<svg width="25" height="26" viewBox="0 0 25 26" fill="none" xmlns="http://www.w3.org/2000/svg">
<path fill-rule="evenodd" clip-rule="evenodd" d="M15.8707 3.80332L16.4942 4.43323C16.6889 4.63146 16.7948 4.89389 16.7925 5.17336C16.7901 5.45269 16.6796 5.71357 16.4816 5.90844L9.29614 12.9717L16.3675 20.1651C16.5622 20.363 16.668 20.6257 16.6656 20.905C16.6632 21.1844 16.553 21.4454 16.3549 21.6401L15.7245 22.2594C15.3146 22.6627 14.6526 22.657 14.2496 22.2468L5.7998 13.682C5.60524 13.484 5.46921 13.2214 5.47162 12.9396L5.47165 12.9363C5.47404 12.6568 5.6147 12.3965 5.81246 12.202L14.3844 3.79061C14.5824 3.59574 14.8527 3.49016 15.132 3.49224C15.4115 3.49463 15.6762 3.60509 15.8707 3.80332Z" fill="#7A7879"/>
</svg>
