<svg width="24" height="24" viewBox="0 0 24 24" fill="none" xmlns="http://www.w3.org/2000/svg">
<path fill-rule="evenodd" clip-rule="evenodd" d="M8.31038 21.2286L7.68149 20.604C7.48509 20.4075 7.37689 20.1459 7.37689 19.8665C7.37689 19.5871 7.48509 19.3253 7.68149 19.1287L14.8062 12.0043L7.67359 4.87168C7.47719 4.67543 7.36914 4.41361 7.36914 4.13428C7.36914 3.85494 7.47719 3.59297 7.67359 3.39657L8.2986 2.77186C8.70505 2.36511 9.36711 2.36511 9.77356 2.77186L18.2964 11.2641C18.4926 11.4604 18.6309 11.7219 18.6309 12.0037V12.007C18.6309 12.2864 18.4925 12.548 18.2964 12.7442L9.79665 21.2286C9.60041 21.4251 9.33099 21.533 9.05166 21.5333C8.77217 21.5333 8.50648 21.4251 8.31038 21.2286Z" fill="#85CE79"/>
</svg>
