<svg width="25" height="24" viewBox="0 0 25 24" fill="none" xmlns="http://www.w3.org/2000/svg">
<path fill-rule="evenodd" clip-rule="evenodd" d="M7.0974 5.11548H19.5793C20.2686 5.11548 20.8275 5.67432 20.8275 6.36367C20.8275 7.05302 20.2686 7.61185 19.5793 7.61185H7.0974C6.40805 7.61185 5.84921 7.05302 5.84921 6.36367C5.84921 5.67432 6.40805 5.11548 7.0974 5.11548ZM4.23281 5.48369C4.46719 5.71671 4.59962 6.03317 4.60102 6.36367C4.61034 6.44452 4.61034 6.5262 4.60102 6.60706C4.57863 6.68933 4.54723 6.76886 4.50741 6.84422C4.4739 6.91813 4.43423 6.98912 4.38883 7.05641C4.34401 7.12639 4.29171 7.19125 4.23281 7.24988C3.99877 7.482 3.68243 7.61213 3.35284 7.61185C3.27198 7.6209 3.1903 7.6209 3.10944 7.61185C3.01824 7.59266 2.93005 7.56115 2.84732 7.51824C2.77212 7.48735 2.70085 7.44752 2.63513 7.39966C2.56745 7.35668 2.50469 7.30644 2.4479 7.24988C2.389 7.19125 2.33669 7.12639 2.29188 7.05641C2.24647 6.98912 2.2068 6.91813 2.1733 6.84422C2.14178 6.76792 2.11877 6.68839 2.10465 6.60706C2.09533 6.5262 2.09533 6.44452 2.10465 6.36367C2.10601 6.03317 2.23844 5.71671 2.47286 5.48369C2.9597 4.99975 3.74598 4.99975 4.23281 5.48369ZM4.60102 11.9805C4.61031 11.8996 4.61031 11.818 4.60102 11.7371C4.57945 11.6566 4.54801 11.579 4.50741 11.5062C4.47527 11.4296 4.43552 11.3565 4.38883 11.2878C4.34557 11.2186 4.29307 11.1556 4.23281 11.1005C3.74598 10.6166 2.9597 10.6166 2.47286 11.1005C2.23844 11.3336 2.10601 11.65 2.10465 11.9805C2.10707 12.145 2.13878 12.3077 2.19826 12.4611C2.22954 12.5349 2.26715 12.6059 2.3106 12.6733C2.35807 12.7411 2.41244 12.8038 2.47286 12.8605C2.52802 12.9206 2.59097 12.9731 2.66009 13.0165C2.72582 13.0644 2.79704 13.1042 2.87228 13.1351C2.94838 13.1671 3.02799 13.1902 3.10944 13.2037C3.18928 13.2216 3.271 13.23 3.35284 13.2287C3.43369 13.238 3.51537 13.238 3.59623 13.2287C3.67565 13.2151 3.75319 13.192 3.82715 13.16C3.90442 13.1294 3.97775 13.0896 4.04558 13.0415C4.1147 12.9981 4.17765 12.9456 4.23281 12.8854C4.29295 12.8303 4.34546 12.7673 4.38883 12.6982C4.43681 12.6325 4.47663 12.5613 4.50741 12.486C4.55004 12.4032 4.58152 12.315 4.60102 12.2239C4.61062 12.143 4.61062 12.0614 4.60102 11.9805ZM4.60102 17.354C4.61027 17.4348 4.61027 17.5165 4.60102 17.5974C4.61062 17.6782 4.61062 17.7599 4.60102 17.8407C4.58148 17.9319 4.55 18.02 4.50741 18.1029C4.47667 18.1781 4.43685 18.2494 4.38883 18.3151C4.34546 18.3842 4.29295 18.4471 4.23281 18.5023C4.17765 18.5624 4.1147 18.6149 4.04558 18.6583C3.97775 18.7064 3.90442 18.7462 3.82715 18.7769C3.75319 18.8089 3.67565 18.8319 3.59623 18.8455C3.51537 18.8549 3.43369 18.8549 3.35284 18.8455C3.271 18.8469 3.18928 18.8385 3.10944 18.8206C3.02799 18.807 2.94838 18.7839 2.87228 18.7519C2.79704 18.7211 2.72582 18.6812 2.66009 18.6333C2.59097 18.59 2.52802 18.5375 2.47286 18.4773C2.23848 18.2443 2.10605 17.9278 2.10465 17.5974C2.10367 17.5155 2.11202 17.4339 2.12961 17.354C2.14283 17.2724 2.16589 17.1928 2.19826 17.1168C2.23177 17.0429 2.27144 16.9719 2.31684 16.9046C2.36021 16.8355 2.41272 16.7725 2.47286 16.7174C2.9597 16.2334 3.74598 16.2334 4.23281 16.7174C4.29295 16.7725 4.34546 16.8355 4.38883 16.9046C4.43423 16.9719 4.4739 17.0429 4.50741 17.1168C4.54801 17.1918 4.57945 17.2714 4.60102 17.354ZM20.8275 10.7323H7.0974C6.40805 10.7323 5.84921 11.2912 5.84921 11.9805C5.84921 12.6699 6.40805 13.2287 7.0974 13.2287H20.8275C21.5168 13.2287 22.0756 12.6699 22.0756 11.9805C22.0756 11.2912 21.5168 10.7323 20.8275 10.7323ZM7.0974 16.3492H15.2106C15.9 16.3492 16.4588 16.908 16.4588 17.5974C16.4588 18.2867 15.9 18.8455 15.2106 18.8455H7.0974C6.40805 18.8455 5.84921 18.2867 5.84921 17.5974C5.84921 16.908 6.40805 16.3492 7.0974 16.3492Z" fill="#7A7879"/>
<path d="M4.60102 6.36367L4.25103 6.36515L4.25111 6.38452L4.25333 6.40375L4.60102 6.36367ZM4.23281 5.48369L4.47957 5.23548L4.47956 5.23547L4.23281 5.48369ZM4.60102 6.60706L4.93874 6.69898L4.94569 6.67344L4.94872 6.64715L4.60102 6.60706ZM4.50741 6.84422L4.19796 6.68069L4.19301 6.69006L4.18863 6.69972L4.50741 6.84422ZM4.38883 7.05641L4.09862 6.86058L4.0941 6.86764L4.38883 7.05641ZM4.23281 7.24988L4.47928 7.49838L4.47972 7.49794L4.23281 7.24988ZM3.35284 7.61185L3.35313 7.26185L3.33346 7.26184L3.31391 7.26402L3.35284 7.61185ZM3.10944 7.61185L3.03736 7.95435L3.05381 7.95781L3.07051 7.95968L3.10944 7.61185ZM2.84732 7.51824L3.00846 7.20754L2.99467 7.20039L2.98031 7.19449L2.84732 7.51824ZM2.63513 7.39966L2.84116 7.11673L2.83217 7.11018L2.82278 7.10422L2.63513 7.39966ZM2.4479 7.24988L2.69488 7.00188L2.69481 7.00182L2.4479 7.24988ZM2.29188 7.05641L2.58669 6.86759L2.582 6.86064L2.29188 7.05641ZM2.1733 6.84422L1.84963 6.97792L1.85452 6.98872L2.1733 6.84422ZM2.10465 6.60706L1.75695 6.64715L1.7581 6.65708L1.75981 6.66693L2.10465 6.60706ZM2.10465 6.36367L2.45234 6.40375L2.45456 6.3845L2.45465 6.36511L2.10465 6.36367ZM2.47286 5.48369L2.71961 5.73192L2.71961 5.73192L2.47286 5.48369ZM4.60102 11.7371L4.94874 11.6972L4.94579 11.6715L4.93911 11.6466L4.60102 11.7371ZM4.60102 11.9805L4.25331 11.9406L4.24865 11.9812L4.25346 12.0218L4.60102 11.9805ZM4.50741 11.5062L4.18469 11.6417L4.19223 11.6596L4.20172 11.6766L4.50741 11.5062ZM4.38883 11.2878L4.09183 11.4734L4.09937 11.4845L4.38883 11.2878ZM4.23281 11.1005L3.98606 11.3488L3.99131 11.354L3.99678 11.359L4.23281 11.1005ZM2.47286 11.1005L2.71961 11.3488L2.71961 11.3488L2.47286 11.1005ZM2.10465 11.9805L1.75459 11.9791L1.75469 11.9857L2.10465 11.9805ZM2.19826 12.4611L1.87179 12.5877L1.87599 12.5976L2.19826 12.4611ZM2.3106 12.6733L2.01627 12.8631L2.02384 12.8739L2.3106 12.6733ZM2.47286 12.8605L2.73083 12.6239L2.72188 12.6142L2.71223 12.6051L2.47286 12.8605ZM2.66009 13.0165L2.86623 12.7336L2.85642 12.7265L2.84613 12.72L2.66009 13.0165ZM2.87228 13.1351L3.00804 12.8125L3.00507 12.8112L2.87228 13.1351ZM3.10944 13.2037L3.18602 12.8622L3.17655 12.8601L3.16698 12.8585L3.10944 13.2037ZM3.35284 13.2287L3.39292 12.881L3.37012 12.8784L3.34717 12.8787L3.35284 13.2287ZM3.59623 13.2287L3.63632 13.5764L3.64588 13.5753L3.65537 13.5737L3.59623 13.2287ZM3.82715 13.16L3.69801 12.8346L3.68821 12.8388L3.82715 13.16ZM4.04558 13.0415L3.85954 12.745L3.85119 12.7502L3.84314 12.756L4.04558 13.0415ZM4.23281 12.8854L3.99626 12.6275L3.98509 12.6377L3.97485 12.6489L4.23281 12.8854ZM4.38883 12.6982L4.10619 12.4918L4.09892 12.5017L4.09237 12.5122L4.38883 12.6982ZM4.50741 12.486L4.1962 12.3259L4.18921 12.3394L4.18344 12.3536L4.50741 12.486ZM4.60102 12.2239L4.94327 12.2972L4.94667 12.2813L4.94858 12.2651L4.60102 12.2239ZM4.60102 17.5974L4.25329 17.5576L4.24866 17.5981L4.25346 17.6386L4.60102 17.5974ZM4.60102 17.354L4.94876 17.3142L4.94593 17.2895L4.93965 17.2655L4.60102 17.354ZM4.60102 17.8407L4.94324 17.9141L4.94666 17.8982L4.94858 17.882L4.60102 17.8407ZM4.50741 18.1029L4.19611 17.9429L4.18914 17.9565L4.18338 17.9706L4.50741 18.1029ZM4.38883 18.3151L4.10633 18.1084L4.09899 18.1185L4.09237 18.129L4.38883 18.3151ZM4.23281 18.5023L3.99626 18.2443L3.98509 18.2546L3.97484 18.2657L4.23281 18.5023ZM4.04558 18.6583L3.85954 18.3618L3.85119 18.3671L3.84314 18.3728L4.04558 18.6583ZM3.82715 18.7769L3.69801 18.4514L3.68821 18.4556L3.82715 18.7769ZM3.59623 18.8455L3.63632 19.1932L3.64588 19.1921L3.65537 19.1905L3.59623 18.8455ZM3.35284 18.8455L3.39292 18.4978L3.37012 18.4952L3.34717 18.4956L3.35284 18.8455ZM3.10944 18.8206L3.18602 18.4791L3.17655 18.4769L3.16698 18.4753L3.10944 18.8206ZM2.87228 18.7519L3.00804 18.4293L3.00507 18.4281L2.87228 18.7519ZM2.66009 18.6333L2.86623 18.3505L2.85642 18.3433L2.84613 18.3369L2.66009 18.6333ZM2.47286 18.4773L2.73083 18.2408L2.72536 18.2348L2.71963 18.2291L2.47286 18.4773ZM2.10465 17.5974L2.45466 17.5959L2.45462 17.5932L2.10465 17.5974ZM2.12961 17.354L2.47143 17.4292L2.47353 17.4196L2.4751 17.41L2.12961 17.354ZM2.19826 17.1168L1.8794 16.9723L1.87627 16.9796L2.19826 17.1168ZM2.31684 16.9046L2.60713 17.1005L2.6133 17.0906L2.31684 16.9046ZM2.47286 16.7174L2.70961 16.9755L2.71961 16.9656L2.47286 16.7174ZM4.23281 16.7174L3.98586 16.9658L3.99626 16.9753L4.23281 16.7174ZM4.38883 16.9046L4.09221 17.0907L4.0987 17.1004L4.38883 16.9046ZM4.50741 17.1168L4.18863 17.2613L4.19373 17.2726L4.19961 17.2834L4.50741 17.1168ZM19.5793 4.76548H7.0974V5.46548H19.5793V4.76548ZM21.1775 6.36367C21.1775 5.48102 20.4619 4.76548 19.5793 4.76548V5.46548C20.0753 5.46548 20.4775 5.86761 20.4775 6.36367H21.1775ZM19.5793 7.96185C20.4619 7.96185 21.1775 7.24632 21.1775 6.36367H20.4775C20.4775 6.85972 20.0753 7.26185 19.5793 7.26185V7.96185ZM7.0974 7.96185H19.5793V7.26185H7.0974V7.96185ZM5.49921 6.36367C5.49921 7.24632 6.21475 7.96185 7.0974 7.96185V7.26185C6.60135 7.26185 6.19921 6.85972 6.19921 6.36367H5.49921ZM7.0974 4.76548C6.21475 4.76548 5.49921 5.48102 5.49921 6.36367H6.19921C6.19921 5.86761 6.60135 5.46548 7.0974 5.46548V4.76548ZM4.95102 6.36218C4.94922 5.93901 4.77966 5.53383 4.47957 5.23548L3.98604 5.7319C4.15472 5.8996 4.25002 6.12733 4.25103 6.36515L4.95102 6.36218ZM4.94872 6.64715C4.96111 6.53965 4.96111 6.43107 4.94872 6.32358L4.25333 6.40375C4.25958 6.45798 4.25958 6.51275 4.25333 6.56698L4.94872 6.64715ZM4.81685 7.00775C4.8687 6.90964 4.90958 6.80609 4.93874 6.69898L4.26331 6.51515C4.24768 6.57256 4.22576 6.62807 4.19796 6.68069L4.81685 7.00775ZM4.67896 7.25218C4.73533 7.16864 4.78458 7.08049 4.82619 6.98872L4.18863 6.69972C4.16322 6.75577 4.13313 6.80961 4.0987 6.86064L4.67896 7.25218ZM4.47972 7.49794C4.55668 7.42134 4.62502 7.33659 4.68356 7.24518L4.0941 6.86764C4.06301 6.91619 4.02673 6.96117 3.9859 7.00182L4.47972 7.49794ZM3.35255 7.96185C3.77458 7.9622 4.17962 7.79559 4.47928 7.49838L3.98634 7.00138C3.81792 7.16842 3.59029 7.26205 3.35313 7.26185L3.35255 7.96185ZM3.07051 7.95968C3.17724 7.97163 3.28503 7.97163 3.39176 7.95968L3.31391 7.26402C3.25892 7.27018 3.20335 7.27018 3.14837 7.26402L3.07051 7.95968ZM2.68618 7.82894C2.79696 7.88639 2.91511 7.92862 3.03736 7.95435L3.18151 7.26935C3.12138 7.2567 3.06314 7.2359 3.00846 7.20754L2.68618 7.82894ZM2.4291 7.68259C2.51744 7.74693 2.61323 7.80046 2.71433 7.84199L2.98031 7.19449C2.931 7.17423 2.88426 7.14811 2.84116 7.11673L2.4291 7.68259ZM2.20092 7.49788C2.27564 7.57228 2.35828 7.63845 2.44748 7.6951L2.82278 7.10422C2.77663 7.0749 2.73375 7.04059 2.69488 7.00188L2.20092 7.49788ZM1.99714 7.24518C2.05569 7.33659 2.12403 7.42134 2.20099 7.49794L2.69481 7.00182C2.65397 6.96117 2.6177 6.91619 2.58661 6.86764L1.99714 7.24518ZM1.85452 6.98872C1.89612 7.08049 1.94537 7.16864 2.00175 7.25218L2.582 6.86064C2.54757 6.80961 2.51749 6.75577 2.49208 6.69972L1.85452 6.98872ZM1.75981 6.66693C1.77831 6.77352 1.80848 6.87779 1.84981 6.97785L2.49678 6.71059C2.47508 6.65806 2.45922 6.60326 2.44949 6.54719L1.75981 6.66693ZM1.75695 6.32358C1.74456 6.43107 1.74456 6.53965 1.75695 6.64715L2.45234 6.56698C2.44609 6.51275 2.44609 6.45798 2.45234 6.40375L1.75695 6.32358ZM2.22612 5.23546C1.92597 5.53381 1.7564 5.93901 1.75465 6.36222L2.45465 6.36511C2.45563 6.12732 2.5509 5.89961 2.71961 5.73192L2.22612 5.23546ZM4.47956 5.23547C3.85621 4.61582 2.84946 4.61582 2.22611 5.23547L2.71961 5.73192C3.06993 5.38367 3.63574 5.38367 3.98606 5.73192L4.47956 5.23547ZM4.25331 11.777C4.25954 11.8314 4.25954 11.8863 4.25331 11.9406L4.94874 12.0204C4.96107 11.913 4.96107 11.8046 4.94874 11.6972L4.25331 11.777ZM4.20172 11.6766C4.22827 11.7243 4.24883 11.775 4.26294 11.8276L4.93911 11.6466C4.91007 11.5381 4.86775 11.4338 4.8131 11.3357L4.20172 11.6766ZM4.09937 11.4845C4.13301 11.534 4.1616 11.5867 4.18469 11.6417L4.83013 11.3707C4.78893 11.2726 4.73803 11.1789 4.67829 11.091L4.09937 11.4845ZM3.99678 11.359C4.0336 11.3926 4.06565 11.4311 4.09205 11.4733L4.68561 11.1022C4.62549 11.0061 4.55255 10.9185 4.46883 10.8421L3.99678 11.359ZM2.71961 11.3488C3.06993 11.0005 3.63574 11.0005 3.98606 11.3488L4.47956 10.8523C3.85621 10.2327 2.84946 10.2327 2.22611 10.8523L2.71961 11.3488ZM2.45465 11.982C2.45563 11.7442 2.5509 11.5165 2.71961 11.3488L2.22612 10.8523C1.92597 11.1507 1.7564 11.5559 1.75465 11.9791L2.45465 11.982ZM2.52458 12.3345C2.48011 12.2198 2.45642 12.0983 2.45461 11.9754L1.75469 11.9857C1.75772 12.1917 1.79745 12.3955 1.87195 12.5876L2.52458 12.3345ZM2.60472 12.4835C2.57212 12.433 2.54395 12.3798 2.52053 12.3245L1.87599 12.5976C1.91514 12.69 1.96217 12.7788 2.01648 12.863L2.60472 12.4835ZM2.71223 12.6051C2.66949 12.5651 2.63099 12.5206 2.59735 12.4726L2.02384 12.8739C2.08515 12.9615 2.1554 13.0426 2.2335 13.1158L2.71223 12.6051ZM2.84613 12.72C2.80367 12.6934 2.76489 12.6611 2.73083 12.6239L2.2149 13.097C2.29115 13.1802 2.37827 13.2529 2.47405 13.313L2.84613 12.72ZM3.00507 12.8112C2.95592 12.7911 2.90931 12.765 2.86623 12.7336L2.45395 13.2994C2.54232 13.3638 2.63816 13.4174 2.7395 13.4589L3.00507 12.8112ZM3.16698 12.8585C3.11243 12.8494 3.05906 12.834 3.00804 12.8125L2.73653 13.4577C2.83771 13.5003 2.94356 13.5309 3.0519 13.549L3.16698 12.8585ZM3.34717 12.8787C3.293 12.8796 3.23889 12.8741 3.18602 12.8622L3.03286 13.5453C3.13968 13.5692 3.249 13.5804 3.3585 13.5786L3.34717 12.8787ZM3.55615 12.881C3.50192 12.8872 3.44714 12.8872 3.39292 12.881L3.31275 13.5764C3.42024 13.5888 3.52882 13.5888 3.63632 13.5764L3.55615 12.881ZM3.68821 12.8388C3.63982 12.8597 3.58907 12.8748 3.5371 12.8837L3.65537 13.5737C3.76223 13.5553 3.86656 13.5243 3.96608 13.4813L3.68821 12.8388ZM3.84314 12.756C3.79803 12.7879 3.74932 12.8144 3.69807 12.8347L3.95623 13.4854C4.05952 13.4444 4.15747 13.3912 4.24802 13.327L3.84314 12.756ZM3.97485 12.6489C3.94078 12.686 3.902 12.7184 3.85954 12.745L4.23162 13.3379C4.3274 13.2778 4.41452 13.2051 4.49077 13.122L3.97485 12.6489ZM4.09237 12.5122C4.06573 12.5546 4.0334 12.5934 3.99626 12.6275L4.46936 13.1434C4.55251 13.0672 4.62519 12.98 4.68529 12.8843L4.09237 12.5122ZM4.18344 12.3536C4.16342 12.4025 4.1375 12.4489 4.10619 12.4918L4.67147 12.9047C4.73612 12.8161 4.78984 12.7201 4.83138 12.6185L4.18344 12.3536ZM4.25877 12.1506C4.24573 12.2116 4.22469 12.2705 4.1962 12.3259L4.81862 12.6462C4.8754 12.5358 4.91731 12.4185 4.94327 12.2972L4.25877 12.1506ZM4.25346 12.0218C4.2598 12.0752 4.2598 12.1292 4.25346 12.1827L4.94858 12.2651C4.96143 12.1569 4.96143 12.0475 4.94858 11.9393L4.25346 12.0218ZM4.94876 17.6371C4.96102 17.5298 4.96102 17.4215 4.94876 17.3142L4.25329 17.3937C4.25951 17.4482 4.25951 17.5032 4.25329 17.5576L4.94876 17.6371ZM4.94858 17.882C4.96143 17.7737 4.96143 17.6644 4.94858 17.5561L4.25346 17.6386C4.2598 17.6921 4.2598 17.746 4.25346 17.7995L4.94858 17.882ZM4.81871 18.2628C4.87536 18.1526 4.91724 18.0354 4.94324 17.9141L4.2588 17.7674C4.24572 17.8283 4.22465 17.8874 4.19611 17.9429L4.81871 18.2628ZM4.67133 18.5217C4.73616 18.4331 4.78993 18.3368 4.83144 18.2352L4.18338 17.9706C4.16341 18.0195 4.13754 18.0658 4.10633 18.1084L4.67133 18.5217ZM4.46936 18.7602C4.55251 18.684 4.62519 18.5969 4.68529 18.5011L4.09237 18.129C4.06573 18.1715 4.0334 18.2103 3.99626 18.2443L4.46936 18.7602ZM4.23162 18.9548C4.3274 18.8947 4.41452 18.822 4.49077 18.7388L3.97484 18.2657C3.94078 18.3029 3.90199 18.3352 3.85954 18.3618L4.23162 18.9548ZM3.95623 19.1022C4.05952 19.0612 4.15747 19.008 4.24802 18.9438L3.84314 18.3728C3.79803 18.4048 3.74932 18.4312 3.69807 18.4516L3.95623 19.1022ZM3.65537 19.1905C3.76223 19.1722 3.86656 19.1412 3.96608 19.0981L3.68821 18.4556C3.63982 18.4766 3.58907 18.4917 3.5371 18.5006L3.65537 19.1905ZM3.31275 19.1932C3.42024 19.2056 3.52882 19.2056 3.63632 19.1932L3.55615 18.4978C3.50192 18.5041 3.44714 18.5041 3.39292 18.4978L3.31275 19.1932ZM3.03286 19.1621C3.13968 19.186 3.249 19.1973 3.3585 19.1955L3.34717 18.4956C3.293 18.4965 3.23889 18.4909 3.18602 18.4791L3.03286 19.1621ZM2.73653 19.0745C2.83771 19.1171 2.94356 19.1478 3.0519 19.1658L3.16698 18.4753C3.11243 18.4662 3.05906 18.4508 3.00804 18.4293L2.73653 19.0745ZM2.45395 18.9162C2.54232 18.9806 2.63816 19.0342 2.73949 19.0758L3.00507 18.4281C2.95592 18.4079 2.90931 18.3819 2.86623 18.3505L2.45395 18.9162ZM2.2149 18.7139C2.29115 18.797 2.37827 18.8697 2.47405 18.9298L2.84613 18.3369C2.80367 18.3102 2.76489 18.2779 2.73083 18.2408L2.2149 18.7139ZM1.75465 17.5988C1.75645 18.022 1.92601 18.4272 2.2261 18.7255L2.71963 18.2291C2.55095 18.0614 2.45566 17.8337 2.45464 17.5959L1.75465 17.5988ZM1.78779 17.2787C1.76444 17.3848 1.75338 17.4931 1.75467 17.6015L2.45462 17.5932C2.45396 17.5379 2.4596 17.4829 2.47143 17.4292L1.78779 17.2787ZM1.87627 16.9796C1.83281 17.0816 1.80187 17.1885 1.78413 17.2979L2.4751 17.41C2.4838 17.3564 2.49896 17.304 2.52025 17.254L1.87627 16.9796ZM2.02671 16.7088C1.97034 16.7924 1.92109 16.8805 1.87948 16.9723L2.51704 17.2613C2.54245 17.2052 2.57254 17.1514 2.60697 17.1004L2.02671 16.7088ZM2.23631 16.4594C2.15316 16.5357 2.08048 16.6228 2.02038 16.7186L2.6133 17.0906C2.63994 17.0482 2.67227 17.0094 2.70941 16.9753L2.23631 16.4594ZM4.47956 16.4692C3.85621 15.8495 2.84946 15.8495 2.22611 16.4692L2.71961 16.9656C3.06993 16.6174 3.63574 16.6174 3.98606 16.9656L4.47956 16.4692ZM4.68529 16.7186C4.62519 16.6228 4.55251 16.5357 4.46936 16.4594L3.99626 16.9753C4.0334 17.0094 4.06573 17.0482 4.09237 17.0906L4.68529 16.7186ZM4.82619 16.9723C4.78458 16.8805 4.73533 16.7924 4.67896 16.7088L4.0987 17.1004C4.13313 17.1514 4.16322 17.2052 4.18863 17.2613L4.82619 16.9723ZM4.93965 17.2655C4.91096 17.1557 4.86916 17.0499 4.8152 16.9502L4.19961 17.2834C4.22687 17.3338 4.24794 17.3871 4.2624 17.4425L4.93965 17.2655ZM7.0974 11.0823H20.8275V10.3823H7.0974V11.0823ZM6.19921 11.9805C6.19921 11.4845 6.60135 11.0823 7.0974 11.0823V10.3823C6.21475 10.3823 5.49921 11.0979 5.49921 11.9805H6.19921ZM7.0974 12.8787C6.60135 12.8787 6.19921 12.4766 6.19921 11.9805H5.49921C5.49921 12.8632 6.21475 13.5787 7.0974 13.5787V12.8787ZM20.8275 12.8787H7.0974V13.5787H20.8275V12.8787ZM21.7256 11.9805C21.7256 12.4766 21.3235 12.8787 20.8275 12.8787V13.5787C21.7101 13.5787 22.4256 12.8632 22.4256 11.9805H21.7256ZM20.8275 11.0823C21.3235 11.0823 21.7256 11.4845 21.7256 11.9805H22.4256C22.4256 11.0979 21.7101 10.3823 20.8275 10.3823V11.0823ZM15.2106 15.9992H7.0974V16.6992H15.2106V15.9992ZM16.8088 17.5974C16.8088 16.7147 16.0933 15.9992 15.2106 15.9992V16.6992C15.7067 16.6992 16.1088 17.1013 16.1088 17.5974H16.8088ZM15.2106 19.1955C16.0933 19.1955 16.8088 18.48 16.8088 17.5974H16.1088C16.1088 18.0934 15.7067 18.4955 15.2106 18.4955V19.1955ZM7.0974 19.1955H15.2106V18.4955H7.0974V19.1955ZM5.49921 17.5974C5.49921 18.48 6.21475 19.1955 7.0974 19.1955V18.4955C6.60135 18.4955 6.19921 18.0934 6.19921 17.5974H5.49921ZM7.0974 15.9992C6.21475 15.9992 5.49921 16.7147 5.49921 17.5974H6.19921C6.19921 17.1013 6.60135 16.6992 7.0974 16.6992V15.9992Z" fill="#7A7879"/>
</svg>
