<svg width="24" height="24" viewBox="0 0 24 24" fill="none" xmlns="http://www.w3.org/2000/svg">
<path fill-rule="evenodd" clip-rule="evenodd" d="M6.99486 5.11548H19.4767C20.1661 5.11548 20.7249 5.67432 20.7249 6.36367C20.7249 7.05302 20.1661 7.61185 19.4767 7.61185H6.99486C6.30551 7.61185 5.74667 7.05302 5.74667 6.36367C5.74667 5.67432 6.30551 5.11548 6.99486 5.11548ZM4.13027 5.48369C4.36465 5.71671 4.49708 6.03317 4.49848 6.36367C4.50781 6.44452 4.50781 6.5262 4.49848 6.60706C4.47609 6.68933 4.44469 6.76886 4.40487 6.84422C4.37136 6.91813 4.33169 6.98912 4.28629 7.05641C4.24147 7.12639 4.18917 7.19125 4.13027 7.24988C3.89623 7.482 3.5799 7.61213 3.2503 7.61185C3.16944 7.6209 3.08776 7.6209 3.0069 7.61185C2.9157 7.59266 2.82751 7.56115 2.74478 7.51824C2.66958 7.48735 2.59831 7.44752 2.53259 7.39966C2.46491 7.35668 2.40215 7.30644 2.34536 7.24988C2.28646 7.19125 2.23415 7.12639 2.18934 7.05641C2.14393 6.98912 2.10427 6.91813 2.07076 6.84422C2.03924 6.76792 2.01623 6.68839 2.00211 6.60706C1.99279 6.5262 1.99279 6.44452 2.00211 6.36367C2.00347 6.03317 2.1359 5.71671 2.37032 5.48369C2.85716 4.99975 3.64344 4.99975 4.13027 5.48369ZM4.49848 11.9805C4.50777 11.8996 4.50777 11.818 4.49848 11.7371C4.47691 11.6566 4.44547 11.579 4.40487 11.5062C4.37273 11.4296 4.33298 11.3565 4.28629 11.2878C4.24303 11.2186 4.19053 11.1556 4.13027 11.1005C3.64344 10.6166 2.85716 10.6166 2.37032 11.1005C2.1359 11.3336 2.00347 11.65 2.00211 11.9805C2.00453 12.145 2.03624 12.3077 2.09572 12.4611C2.12701 12.5349 2.16461 12.6059 2.20806 12.6733C2.25553 12.7411 2.3099 12.8038 2.37032 12.8605C2.42548 12.9206 2.48843 12.9731 2.55755 13.0165C2.62328 13.0644 2.6945 13.1042 2.76974 13.1351C2.84584 13.1671 2.92546 13.1902 3.0069 13.2037C3.08674 13.2216 3.16846 13.23 3.2503 13.2287C3.33116 13.238 3.41283 13.238 3.49369 13.2287C3.57311 13.2151 3.65065 13.192 3.72461 13.16C3.80188 13.1294 3.87521 13.0896 3.94304 13.0415C4.01216 12.9981 4.07511 12.9456 4.13027 12.8854C4.19042 12.8303 4.24292 12.7673 4.28629 12.6982C4.33427 12.6325 4.37409 12.5613 4.40487 12.486C4.4475 12.4032 4.47898 12.315 4.49848 12.2239C4.50808 12.143 4.50808 12.0614 4.49848 11.9805ZM4.49848 17.354C4.50773 17.4348 4.50773 17.5165 4.49848 17.5974C4.50808 17.6782 4.50808 17.7599 4.49848 17.8407C4.47894 17.9319 4.44746 18.02 4.40487 18.1029C4.37413 18.1781 4.33431 18.2494 4.28629 18.3151C4.24292 18.3842 4.19042 18.4471 4.13027 18.5023C4.07511 18.5624 4.01216 18.6149 3.94304 18.6583C3.87521 18.7064 3.80188 18.7462 3.72461 18.7769C3.65065 18.8089 3.57311 18.8319 3.49369 18.8455C3.41283 18.8549 3.33116 18.8549 3.2503 18.8455C3.16846 18.8469 3.08674 18.8385 3.0069 18.8206C2.92546 18.807 2.84584 18.7839 2.76974 18.7519C2.6945 18.7211 2.62328 18.6812 2.55755 18.6333C2.48843 18.59 2.42548 18.5375 2.37032 18.4773C2.13594 18.2443 2.00351 17.9278 2.00211 17.5974C2.00113 17.5155 2.00948 17.4339 2.02707 17.354C2.0403 17.2724 2.06335 17.1928 2.09572 17.1168C2.12923 17.0429 2.1689 16.9719 2.2143 16.9046C2.25768 16.8355 2.31018 16.7725 2.37032 16.7174C2.85716 16.2334 3.64344 16.2334 4.13027 16.7174C4.19042 16.7725 4.24292 16.8355 4.28629 16.9046C4.33169 16.9719 4.37136 17.0429 4.40487 17.1168C4.44547 17.1918 4.47691 17.2714 4.49848 17.354ZM20.7249 10.7323H6.99486C6.30551 10.7323 5.74667 11.2912 5.74667 11.9805C5.74667 12.6699 6.30551 13.2287 6.99486 13.2287H20.7249C21.4143 13.2287 21.9731 12.6699 21.9731 11.9805C21.9731 11.2912 21.4143 10.7323 20.7249 10.7323ZM6.99486 16.3492H15.1081C15.7974 16.3492 16.3563 16.908 16.3563 17.5974C16.3563 18.2867 15.7974 18.8455 15.1081 18.8455H6.99486C6.30551 18.8455 5.74667 18.2867 5.74667 17.5974C5.74667 16.908 6.30551 16.3492 6.99486 16.3492Z" fill="#85CE79"/>
<path d="M4.49848 6.36367L4.14849 6.36515L4.14857 6.38452L4.15079 6.40375L4.49848 6.36367ZM4.13027 5.48369L4.37703 5.23548L4.37702 5.23547L4.13027 5.48369ZM4.49848 6.60706L4.8362 6.69898L4.84315 6.67344L4.84618 6.64715L4.49848 6.60706ZM4.40487 6.84422L4.09542 6.68069L4.09047 6.69006L4.08609 6.69972L4.40487 6.84422ZM4.28629 7.05641L3.99608 6.86058L3.99156 6.86764L4.28629 7.05641ZM4.13027 7.24988L4.37674 7.49838L4.37718 7.49794L4.13027 7.24988ZM3.2503 7.61185L3.25059 7.26185L3.23092 7.26184L3.21137 7.26402L3.2503 7.61185ZM3.0069 7.61185L2.93483 7.95435L2.95127 7.95781L2.96797 7.95968L3.0069 7.61185ZM2.74478 7.51824L2.90592 7.20754L2.89213 7.20039L2.87777 7.19449L2.74478 7.51824ZM2.53259 7.39966L2.73862 7.11673L2.72963 7.11018L2.72024 7.10422L2.53259 7.39966ZM2.34536 7.24988L2.59234 7.00188L2.59227 7.00182L2.34536 7.24988ZM2.18934 7.05641L2.48415 6.86759L2.47946 6.86064L2.18934 7.05641ZM2.07076 6.84422L1.74709 6.97792L1.75198 6.98872L2.07076 6.84422ZM2.00211 6.60706L1.65441 6.64715L1.65556 6.65708L1.65727 6.66693L2.00211 6.60706ZM2.00211 6.36367L2.34981 6.40375L2.35203 6.3845L2.35211 6.36511L2.00211 6.36367ZM2.37032 5.48369L2.61707 5.73192L2.61707 5.73192L2.37032 5.48369ZM4.49848 11.7371L4.8462 11.6972L4.84325 11.6715L4.83657 11.6466L4.49848 11.7371ZM4.49848 11.9805L4.15077 11.9406L4.14611 11.9812L4.15092 12.0218L4.49848 11.9805ZM4.40487 11.5062L4.08215 11.6417L4.08969 11.6596L4.09918 11.6766L4.40487 11.5062ZM4.28629 11.2878L3.98929 11.4734L3.99683 11.4845L4.28629 11.2878ZM4.13027 11.1005L3.88352 11.3488L3.88877 11.354L3.89424 11.359L4.13027 11.1005ZM2.37032 11.1005L2.61707 11.3488L2.61707 11.3488L2.37032 11.1005ZM2.00211 11.9805L1.65205 11.9791L1.65215 11.9857L2.00211 11.9805ZM2.09572 12.4611L1.76925 12.5877L1.77345 12.5976L2.09572 12.4611ZM2.20806 12.6733L1.91373 12.8631L1.9213 12.8739L2.20806 12.6733ZM2.37032 12.8605L2.62829 12.6239L2.61934 12.6142L2.60969 12.6051L2.37032 12.8605ZM2.55755 13.0165L2.76369 12.7336L2.75388 12.7265L2.74359 12.72L2.55755 13.0165ZM2.76974 13.1351L2.90551 12.8125L2.90253 12.8112L2.76974 13.1351ZM3.0069 13.2037L3.08348 12.8622L3.07401 12.8601L3.06444 12.8585L3.0069 13.2037ZM3.2503 13.2287L3.29038 12.881L3.26758 12.8784L3.24463 12.8787L3.2503 13.2287ZM3.49369 13.2287L3.53378 13.5764L3.54334 13.5753L3.55283 13.5737L3.49369 13.2287ZM3.72461 13.16L3.59547 12.8346L3.58567 12.8388L3.72461 13.16ZM3.94304 13.0415L3.757 12.745L3.74865 12.7502L3.7406 12.756L3.94304 13.0415ZM4.13027 12.8854L3.89372 12.6275L3.88255 12.6377L3.87231 12.6489L4.13027 12.8854ZM4.28629 12.6982L4.00366 12.4918L3.99638 12.5017L3.98983 12.5122L4.28629 12.6982ZM4.40487 12.486L4.09366 12.3259L4.08667 12.3394L4.0809 12.3536L4.40487 12.486ZM4.49848 12.2239L4.84073 12.2972L4.84413 12.2813L4.84604 12.2651L4.49848 12.2239ZM4.49848 17.5974L4.15075 17.5576L4.14612 17.5981L4.15092 17.6386L4.49848 17.5974ZM4.49848 17.354L4.84622 17.3142L4.84339 17.2895L4.83711 17.2655L4.49848 17.354ZM4.49848 17.8407L4.8407 17.9141L4.84412 17.8982L4.84604 17.882L4.49848 17.8407ZM4.40487 18.1029L4.09357 17.9429L4.0866 17.9565L4.08084 17.9706L4.40487 18.1029ZM4.28629 18.3151L4.00379 18.1084L3.99645 18.1185L3.98983 18.129L4.28629 18.3151ZM4.13027 18.5023L3.89372 18.2443L3.88255 18.2546L3.87231 18.2657L4.13027 18.5023ZM3.94304 18.6583L3.757 18.3618L3.74865 18.3671L3.7406 18.3728L3.94304 18.6583ZM3.72461 18.7769L3.59547 18.4514L3.58567 18.4556L3.72461 18.7769ZM3.49369 18.8455L3.53378 19.1932L3.54334 19.1921L3.55283 19.1905L3.49369 18.8455ZM3.2503 18.8455L3.29038 18.4978L3.26758 18.4952L3.24463 18.4956L3.2503 18.8455ZM3.0069 18.8206L3.08348 18.4791L3.07401 18.4769L3.06444 18.4753L3.0069 18.8206ZM2.76974 18.7519L2.90551 18.4293L2.90253 18.4281L2.76974 18.7519ZM2.55755 18.6333L2.76369 18.3505L2.75388 18.3433L2.74359 18.3369L2.55755 18.6333ZM2.37032 18.4773L2.62829 18.2408L2.62282 18.2348L2.61709 18.2291L2.37032 18.4773ZM2.00211 17.5974L2.35212 17.5959L2.35208 17.5932L2.00211 17.5974ZM2.02707 17.354L2.36889 17.4292L2.37099 17.4196L2.37256 17.41L2.02707 17.354ZM2.09572 17.1168L1.77686 16.9723L1.77373 16.9796L2.09572 17.1168ZM2.2143 16.9046L2.50459 17.1005L2.51076 17.0906L2.2143 16.9046ZM2.37032 16.7174L2.60707 16.9755L2.61707 16.9656L2.37032 16.7174ZM4.13027 16.7174L3.88332 16.9658L3.89372 16.9753L4.13027 16.7174ZM4.28629 16.9046L3.98967 17.0907L3.99616 17.1004L4.28629 16.9046ZM4.40487 17.1168L4.08609 17.2613L4.09119 17.2726L4.09708 17.2834L4.40487 17.1168ZM19.4767 4.76548H6.99486V5.46548H19.4767V4.76548ZM21.0749 6.36367C21.0749 5.48102 20.3594 4.76548 19.4767 4.76548V5.46548C19.9728 5.46548 20.3749 5.86761 20.3749 6.36367H21.0749ZM19.4767 7.96185C20.3594 7.96185 21.0749 7.24632 21.0749 6.36367H20.3749C20.3749 6.85972 19.9728 7.26185 19.4767 7.26185V7.96185ZM6.99486 7.96185H19.4767V7.26185H6.99486V7.96185ZM5.39667 6.36367C5.39667 7.24632 6.11221 7.96185 6.99486 7.96185V7.26185C6.49881 7.26185 6.09667 6.85972 6.09667 6.36367H5.39667ZM6.99486 4.76548C6.11221 4.76548 5.39667 5.48102 5.39667 6.36367H6.09667C6.09667 5.86761 6.49881 5.46548 6.99486 5.46548V4.76548ZM4.84848 6.36218C4.84668 5.93901 4.67712 5.53383 4.37703 5.23548L3.8835 5.7319C4.05218 5.8996 4.14748 6.12733 4.14849 6.36515L4.84848 6.36218ZM4.84618 6.64715C4.85857 6.53965 4.85857 6.43107 4.84618 6.32358L4.15079 6.40375C4.15704 6.45798 4.15704 6.51275 4.15079 6.56698L4.84618 6.64715ZM4.71432 7.00775C4.76616 6.90964 4.80705 6.80609 4.8362 6.69898L4.16077 6.51515C4.14514 6.57256 4.12323 6.62807 4.09542 6.68069L4.71432 7.00775ZM4.57642 7.25218C4.63279 7.16864 4.68205 7.08049 4.72365 6.98872L4.08609 6.69972C4.06068 6.75577 4.0306 6.80961 3.99617 6.86064L4.57642 7.25218ZM4.37718 7.49794C4.45414 7.42134 4.52248 7.33659 4.58102 7.24518L3.99156 6.86764C3.96047 6.91619 3.92419 6.96117 3.88336 7.00182L4.37718 7.49794ZM3.25001 7.96185C3.67204 7.9622 4.07708 7.79559 4.37674 7.49838L3.8838 7.00138C3.71538 7.16842 3.48775 7.26205 3.25059 7.26185L3.25001 7.96185ZM2.96797 7.95968C3.0747 7.97163 3.18249 7.97163 3.28922 7.95968L3.21137 7.26402C3.15638 7.27018 3.10082 7.27018 3.04583 7.26402L2.96797 7.95968ZM2.58364 7.82894C2.69442 7.88639 2.81257 7.92862 2.93483 7.95435L3.07897 7.26935C3.01884 7.2567 2.9606 7.2359 2.90592 7.20754L2.58364 7.82894ZM2.32656 7.68259C2.41491 7.74693 2.51069 7.80046 2.61179 7.84199L2.87777 7.19449C2.82846 7.17423 2.78172 7.14811 2.73862 7.11673L2.32656 7.68259ZM2.09838 7.49788C2.1731 7.57228 2.25574 7.63845 2.34494 7.6951L2.72024 7.10422C2.67409 7.0749 2.63121 7.04059 2.59234 7.00188L2.09838 7.49788ZM1.8946 7.24518C1.95315 7.33659 2.02149 7.42134 2.09845 7.49794L2.59227 7.00182C2.55143 6.96117 2.51516 6.91619 2.48407 6.86764L1.8946 7.24518ZM1.75198 6.98872C1.79358 7.08049 1.84283 7.16864 1.89921 7.25218L2.47946 6.86064C2.44503 6.80961 2.41495 6.75577 2.38954 6.69972L1.75198 6.98872ZM1.65727 6.66693C1.67577 6.77352 1.70594 6.87779 1.74727 6.97785L2.39425 6.71059C2.37254 6.65806 2.35668 6.60326 2.34695 6.54719L1.65727 6.66693ZM1.65441 6.32358C1.64202 6.43107 1.64202 6.53965 1.65441 6.64715L2.34981 6.56698C2.34355 6.51275 2.34355 6.45798 2.34981 6.40375L1.65441 6.32358ZM2.12358 5.23546C1.82343 5.53381 1.65386 5.93901 1.65211 6.36222L2.35211 6.36511C2.35309 6.12732 2.44837 5.89961 2.61707 5.73192L2.12358 5.23546ZM4.37702 5.23547C3.75367 4.61582 2.74692 4.61582 2.12357 5.23547L2.61707 5.73192C2.96739 5.38367 3.5332 5.38367 3.88352 5.73192L4.37702 5.23547ZM4.15077 11.777C4.15701 11.8314 4.15701 11.8863 4.15077 11.9406L4.8462 12.0204C4.85853 11.913 4.85853 11.8046 4.8462 11.6972L4.15077 11.777ZM4.09918 11.6766C4.12573 11.7243 4.14629 11.775 4.1604 11.8276L4.83657 11.6466C4.80754 11.5381 4.76521 11.4338 4.71056 11.3357L4.09918 11.6766ZM3.99683 11.4845C4.03047 11.534 4.05906 11.5867 4.08215 11.6417L4.72759 11.3707C4.68639 11.2726 4.63549 11.1789 4.57575 11.091L3.99683 11.4845ZM3.89424 11.359C3.93106 11.3926 3.96311 11.4311 3.98951 11.4733L4.58307 11.1022C4.52295 11.0061 4.45001 10.9185 4.36629 10.8421L3.89424 11.359ZM2.61707 11.3488C2.96739 11.0005 3.5332 11.0005 3.88352 11.3488L4.37702 10.8523C3.75367 10.2327 2.74692 10.2327 2.12357 10.8523L2.61707 11.3488ZM2.35211 11.982C2.35309 11.7442 2.44837 11.5165 2.61707 11.3488L2.12358 10.8523C1.82343 11.1507 1.65386 11.5559 1.65211 11.9791L2.35211 11.982ZM2.42204 12.3345C2.37757 12.2198 2.35388 12.0983 2.35207 11.9754L1.65215 11.9857C1.65518 12.1917 1.69491 12.3955 1.76941 12.5876L2.42204 12.3345ZM2.50218 12.4835C2.46958 12.433 2.44141 12.3798 2.41799 12.3245L1.77345 12.5976C1.8126 12.69 1.85963 12.7788 1.91394 12.863L2.50218 12.4835ZM2.60969 12.6051C2.56695 12.5651 2.52845 12.5206 2.49481 12.4726L1.9213 12.8739C1.98261 12.9615 2.05286 13.0426 2.13096 13.1158L2.60969 12.6051ZM2.74359 12.72C2.70113 12.6934 2.66235 12.6611 2.62829 12.6239L2.11236 13.097C2.18861 13.1802 2.27573 13.2529 2.37151 13.313L2.74359 12.72ZM2.90253 12.8112C2.85338 12.7911 2.80677 12.765 2.76369 12.7336L2.35141 13.2994C2.43978 13.3638 2.53562 13.4174 2.63696 13.4589L2.90253 12.8112ZM3.06444 12.8585C3.00989 12.8494 2.95652 12.834 2.9055 12.8125L2.63399 13.4577C2.73517 13.5003 2.84102 13.5309 2.94936 13.549L3.06444 12.8585ZM3.24463 12.8787C3.19046 12.8796 3.13635 12.8741 3.08348 12.8622L2.93032 13.5453C3.03714 13.5692 3.14646 13.5804 3.25596 13.5786L3.24463 12.8787ZM3.45361 12.881C3.39938 12.8872 3.34461 12.8872 3.29038 12.881L3.21021 13.5764C3.31771 13.5888 3.42628 13.5888 3.53378 13.5764L3.45361 12.881ZM3.58567 12.8388C3.53728 12.8597 3.48653 12.8748 3.43456 12.8837L3.55283 13.5737C3.65969 13.5553 3.76402 13.5243 3.86354 13.4813L3.58567 12.8388ZM3.7406 12.756C3.69549 12.7879 3.64678 12.8144 3.59553 12.8347L3.85369 13.4854C3.95698 13.4444 4.05493 13.3912 4.14548 13.327L3.7406 12.756ZM3.87231 12.6489C3.83824 12.686 3.79946 12.7184 3.757 12.745L4.12908 13.3379C4.22486 13.2778 4.31198 13.2051 4.38823 13.122L3.87231 12.6489ZM3.98983 12.5122C3.96319 12.5546 3.93086 12.5934 3.89372 12.6275L4.36682 13.1434C4.44997 13.0672 4.52265 12.98 4.58275 12.8843L3.98983 12.5122ZM4.0809 12.3536C4.06089 12.4025 4.03496 12.4489 4.00366 12.4918L4.56893 12.9047C4.63358 12.8161 4.6873 12.7201 4.72884 12.6185L4.0809 12.3536ZM4.15624 12.1506C4.14319 12.2116 4.12215 12.2705 4.09366 12.3259L4.71608 12.6462C4.77286 12.5358 4.81477 12.4185 4.84073 12.2972L4.15624 12.1506ZM4.15092 12.0218C4.15727 12.0752 4.15727 12.1292 4.15092 12.1827L4.84604 12.2651C4.85889 12.1569 4.85889 12.0475 4.84604 11.9393L4.15092 12.0218ZM4.84622 17.6371C4.85848 17.5298 4.85848 17.4215 4.84622 17.3142L4.15075 17.3937C4.15697 17.4482 4.15697 17.5032 4.15075 17.5576L4.84622 17.6371ZM4.84604 17.882C4.85889 17.7737 4.85889 17.6644 4.84604 17.5561L4.15092 17.6386C4.15727 17.6921 4.15727 17.746 4.15092 17.7995L4.84604 17.882ZM4.71617 18.2628C4.77282 18.1526 4.8147 18.0354 4.8407 17.9141L4.15627 17.7674C4.14318 17.8283 4.12211 17.8874 4.09357 17.9429L4.71617 18.2628ZM4.56879 18.5217C4.63362 18.4331 4.68739 18.3368 4.7289 18.2352L4.08084 17.9706C4.06087 18.0195 4.035 18.0658 4.00379 18.1084L4.56879 18.5217ZM4.36682 18.7602C4.44997 18.684 4.52265 18.5969 4.58275 18.5011L3.98983 18.129C3.96319 18.1715 3.93086 18.2103 3.89372 18.2443L4.36682 18.7602ZM4.12908 18.9548C4.22486 18.8947 4.31198 18.822 4.38823 18.7388L3.87231 18.2657C3.83824 18.3029 3.79946 18.3352 3.757 18.3618L4.12908 18.9548ZM3.85369 19.1022C3.95698 19.0612 4.05493 19.008 4.14548 18.9438L3.7406 18.3728C3.69549 18.4048 3.64678 18.4312 3.59553 18.4516L3.85369 19.1022ZM3.55283 19.1905C3.65969 19.1722 3.76402 19.1412 3.86354 19.0981L3.58567 18.4556C3.53728 18.4766 3.48653 18.4917 3.43456 18.5006L3.55283 19.1905ZM3.21021 19.1932C3.31771 19.2056 3.42628 19.2056 3.53378 19.1932L3.45361 18.4978C3.39938 18.5041 3.34461 18.5041 3.29038 18.4978L3.21021 19.1932ZM2.93032 19.1621C3.03714 19.186 3.14646 19.1973 3.25596 19.1955L3.24463 18.4956C3.19046 18.4965 3.13635 18.4909 3.08348 18.4791L2.93032 19.1621ZM2.63399 19.0745C2.73517 19.1171 2.84102 19.1478 2.94936 19.1658L3.06444 18.4753C3.00989 18.4662 2.95652 18.4508 2.9055 18.4293L2.63399 19.0745ZM2.35141 18.9162C2.43978 18.9806 2.53562 19.0342 2.63696 19.0758L2.90253 18.4281C2.85338 18.4079 2.80677 18.3819 2.76369 18.3505L2.35141 18.9162ZM2.11236 18.7139C2.18861 18.797 2.27573 18.8697 2.37151 18.9298L2.74359 18.3369C2.70113 18.3102 2.66235 18.2779 2.62829 18.2408L2.11236 18.7139ZM1.65211 17.5988C1.65391 18.022 1.82347 18.4272 2.12356 18.7255L2.61709 18.2291C2.44841 18.0614 2.35312 17.8337 2.35211 17.5959L1.65211 17.5988ZM1.68525 17.2787C1.6619 17.3848 1.65084 17.4931 1.65213 17.6015L2.35208 17.5932C2.35143 17.5379 2.35706 17.4829 2.36889 17.4292L1.68525 17.2787ZM1.77373 16.9796C1.73027 17.0816 1.69933 17.1885 1.68159 17.2979L2.37256 17.41C2.38126 17.3564 2.39642 17.304 2.41771 17.254L1.77373 16.9796ZM1.92417 16.7088C1.8678 16.7924 1.81855 16.8805 1.77695 16.9723L2.4145 17.2613C2.43991 17.2052 2.47 17.1514 2.50443 17.1004L1.92417 16.7088ZM2.13377 16.4594C2.05063 16.5357 1.97795 16.6228 1.91784 16.7186L2.51076 17.0906C2.5374 17.0482 2.56973 17.0094 2.60687 16.9753L2.13377 16.4594ZM4.37702 16.4692C3.75367 15.8495 2.74692 15.8495 2.12357 16.4692L2.61707 16.9656C2.96739 16.6174 3.5332 16.6174 3.88352 16.9656L4.37702 16.4692ZM4.58275 16.7186C4.52265 16.6228 4.44997 16.5357 4.36682 16.4594L3.89372 16.9753C3.93086 17.0094 3.96319 17.0482 3.98983 17.0906L4.58275 16.7186ZM4.72365 16.9723C4.68205 16.8805 4.63279 16.7924 4.57642 16.7088L3.99616 17.1004C4.03059 17.1514 4.06068 17.2052 4.08609 17.2613L4.72365 16.9723ZM4.83711 17.2655C4.80842 17.1557 4.76662 17.0499 4.71266 16.9502L4.09708 17.2834C4.12433 17.3338 4.1454 17.3871 4.15986 17.4425L4.83711 17.2655ZM6.99486 11.0823H20.7249V10.3823H6.99486V11.0823ZM6.09667 11.9805C6.09667 11.4845 6.49881 11.0823 6.99486 11.0823V10.3823C6.11221 10.3823 5.39667 11.0979 5.39667 11.9805H6.09667ZM6.99486 12.8787C6.49881 12.8787 6.09667 12.4766 6.09667 11.9805H5.39667C5.39667 12.8632 6.11221 13.5787 6.99486 13.5787V12.8787ZM20.7249 12.8787H6.99486V13.5787H20.7249V12.8787ZM21.6231 11.9805C21.6231 12.4766 21.221 12.8787 20.7249 12.8787V13.5787C21.6076 13.5787 22.3231 12.8632 22.3231 11.9805H21.6231ZM20.7249 11.0823C21.221 11.0823 21.6231 11.4845 21.6231 11.9805H22.3231C22.3231 11.0979 21.6076 10.3823 20.7249 10.3823V11.0823ZM15.1081 15.9992H6.99486V16.6992H15.1081V15.9992ZM16.7063 17.5974C16.7063 16.7147 15.9907 15.9992 15.1081 15.9992V16.6992C15.6041 16.6992 16.0063 17.1013 16.0063 17.5974H16.7063ZM15.1081 19.1955C15.9907 19.1955 16.7063 18.48 16.7063 17.5974H16.0063C16.0063 18.0934 15.6041 18.4955 15.1081 18.4955V19.1955ZM6.99486 19.1955H15.1081V18.4955H6.99486V19.1955ZM5.39667 17.5974C5.39667 18.48 6.11221 19.1955 6.99486 19.1955V18.4955C6.49881 18.4955 6.09667 18.0934 6.09667 17.5974H5.39667ZM6.99486 15.9992C6.11221 15.9992 5.39667 16.7147 5.39667 17.5974H6.09667C6.09667 17.1013 6.49881 16.6992 6.99486 16.6992V15.9992Z" fill="#85CE79"/>
</svg>
