<svg width="14" height="14" viewBox="0 0 14 14" fill="none" xmlns="http://www.w3.org/2000/svg">
<path d="M1.03271 3C1.30886 3 1.53271 2.77614 1.53271 2.5C1.53271 2.22386 1.30886 2 1.03271 2C0.756572 2 0.532715 2.22386 0.532715 2.5C0.532715 2.77614 0.756572 3 1.03271 3Z" stroke="#5D5D65" stroke-linecap="round" stroke-linejoin="round"/>
<path d="M4.53271 2.5H13.186" stroke="#5D5D65" stroke-width="1.5" stroke-linecap="round" stroke-linejoin="round"/>
<path d="M1.03271 7.5C1.30886 7.5 1.53271 7.27614 1.53271 7C1.53271 6.72386 1.30886 6.5 1.03271 6.5C0.756572 6.5 0.532715 6.72386 0.532715 7C0.532715 7.27614 0.756572 7.5 1.03271 7.5Z" stroke="#5D5D65" stroke-linecap="round" stroke-linejoin="round"/>
<path d="M4.53271 7H13.186" stroke="#5D5D65" stroke-width="1.5" stroke-linecap="round" stroke-linejoin="round"/>
<path d="M1.03271 12C1.30886 12 1.53271 11.7761 1.53271 11.5C1.53271 11.2239 1.30886 11 1.03271 11C0.756572 11 0.532715 11.2239 0.532715 11.5C0.532715 11.7761 0.756572 12 1.03271 12Z" stroke="#5D5D65" stroke-linecap="round" stroke-linejoin="round"/>
<path d="M4.53271 11.5H13.186" stroke="#5D5D65" stroke-width="1.5" stroke-linecap="round" stroke-linejoin="round"/>
</svg>
