<svg width="25" height="24" viewBox="0 0 25 24" fill="none" xmlns="http://www.w3.org/2000/svg">
<path fill-rule="evenodd" clip-rule="evenodd" d="M1.68692 4.01553L7.18942 5.58774C7.38644 5.64414 7.52215 5.82417 7.52215 6.02875V19.785C7.52215 19.9288 7.45453 20.0644 7.33988 20.1513C7.25928 20.2118 7.16212 20.2436 7.0636 20.2436C7.02151 20.2436 6.97895 20.2378 6.93777 20.2261L1.43527 18.6539C1.23821 18.5975 1.10254 18.4175 1.10254 18.2128V4.45659C1.10254 4.31283 1.17016 4.17716 1.28481 4.09033C1.39942 4.00388 1.54902 3.97658 1.68692 4.01553ZM19.4442 12.2518C17.4215 12.2518 15.7759 13.8974 15.7759 15.9201C15.7759 17.7941 18.7421 21.7186 19.0802 22.1601C19.1671 22.2734 19.3014 22.3397 19.4443 22.3397C19.5871 22.3397 19.7215 22.2734 19.8083 22.1601C20.1463 21.7186 23.1125 17.7942 23.1125 15.9201C23.1125 13.8975 21.4669 12.2518 19.4442 12.2518ZM19.4442 16.8372C18.9387 16.8372 18.5272 16.4257 18.5272 15.9201C18.5272 15.4146 18.9387 15.0031 19.4442 15.0031C19.9498 15.0031 20.3613 15.4146 20.3613 15.9201C20.3613 16.4257 19.9498 16.8372 19.4442 16.8372ZM13.7594 4.35225C13.6444 4.26585 13.4948 4.23851 13.3573 4.27745L8.77191 5.58774C8.57489 5.64418 8.43918 5.82417 8.43918 6.0288V19.785C8.43918 19.9288 8.5068 20.0645 8.62145 20.1514C8.70205 20.2118 8.7992 20.2436 8.89773 20.2436C8.93982 20.2436 8.98238 20.2378 9.02356 20.2262L13.609 18.9159C13.806 18.8595 13.9417 18.6795 13.9417 18.4749V4.7186C13.9417 4.5748 13.8741 4.43913 13.7594 4.35225ZM21.0961 11.4377C20.9811 11.5246 20.8319 11.5515 20.6944 11.5129C18.7824 10.9693 16.7937 11.7256 15.6926 13.293C15.6049 13.4175 15.4638 13.4878 15.3173 13.4878C15.2712 13.4878 15.2247 13.4811 15.179 13.4663C14.9882 13.4063 14.8588 13.2294 14.8588 13.0292V4.7186C14.8588 4.57485 14.9264 4.43918 15.0411 4.3523C15.1561 4.26585 15.3061 4.23855 15.4432 4.2775L20.9457 5.84971C21.1427 5.90611 21.2784 6.08614 21.2784 6.29077V11.0719C21.2784 11.2156 21.2108 11.3513 21.0961 11.4377Z" fill="#7A7879"/>
</svg>
