<svg width="14" height="15" viewBox="0 0 14 15" fill="none" xmlns="http://www.w3.org/2000/svg">
<path d="M1.63819 13.7115C2.03129 13.6413 2.43418 13.4903 2.86393 13.3528C3.50614 13.1473 4.14822 12.9144 4.74101 12.7646C4.8881 12.7275 5.04194 12.7302 5.18939 12.7659L9.09204 13.7116C9.74536 13.8546 10.3932 13.5845 11.1173 13.3528C11.5645 13.2097 12.0115 13.0534 12.4419 12.921C12.8911 12.7829 13.2187 12.3767 13.2187 11.9068V3.54914C13.2187 3.07923 12.8855 2.67518 12.4174 2.71577C11.8969 2.76089 11.3403 2.89541 10.9436 2.99784C10.4706 3.11996 9.92689 3.37251 9.39833 3.60908C9.19999 3.69785 8.97781 3.71664 8.76663 3.66547L4.96532 2.74432C4.312 2.60134 3.30748 2.83845 2.69014 2.99784C2.30452 3.09741 1.87187 3.28368 1.43874 3.47731C1.07473 3.64003 0.838623 4.00243 0.838623 4.40116V12.9068C0.838623 13.3767 1.1756 13.7941 1.63819 13.7115Z" fill="#FBECF5" stroke="#5D5D65" stroke-width="1.5" stroke-linejoin="round"/>
<path d="M9.08524 13.7099L5.18937 12.7659C5.11574 12.748 5.04052 12.7384 4.96533 12.7379V2.87125C4.96533 2.82908 4.96795 2.78732 4.97307 2.7462L8.76661 3.66546C8.87377 3.69143 8.98376 3.69938 9.09203 3.68932V13.5921C9.09203 13.6317 9.08973 13.6711 9.08524 13.7099Z" fill="white" stroke="#5D5D65" stroke-width="1.5" stroke-linejoin="round"/>
</svg>
