<svg width="24" height="24" viewBox="0 0 24 24" fill="none" xmlns="http://www.w3.org/2000/svg">
<path fill-rule="evenodd" clip-rule="evenodd" d="M1.58438 4.01553L7.08688 5.58774C7.2839 5.64414 7.41961 5.82417 7.41961 6.02875V19.785C7.41961 19.9288 7.35199 20.0644 7.23734 20.1513C7.15674 20.2118 7.05959 20.2436 6.96106 20.2436C6.91897 20.2436 6.87641 20.2378 6.83523 20.2261L1.33273 18.6539C1.13567 18.5975 1 18.4175 1 18.2128V4.45659C1 4.31283 1.06762 4.17716 1.18227 4.09033C1.29688 4.00388 1.44648 3.97658 1.58438 4.01553ZM19.3417 12.2518C17.319 12.2518 15.6734 13.8974 15.6734 15.9201C15.6734 17.7941 18.6396 21.7186 18.9777 22.1601C19.0645 22.2734 19.1989 22.3397 19.3417 22.3397C19.4846 22.3397 19.6189 22.2734 19.7058 22.1601C20.0438 21.7186 23.01 17.7942 23.01 15.9201C23.01 13.8975 21.3644 12.2518 19.3417 12.2518ZM19.3417 16.8372C18.8361 16.8372 18.4246 16.4257 18.4246 15.9201C18.4246 15.4146 18.8361 15.0031 19.3417 15.0031C19.8472 15.0031 20.2588 15.4146 20.2588 15.9201C20.2588 16.4257 19.8472 16.8372 19.3417 16.8372ZM13.6569 4.35225C13.5418 4.26585 13.3923 4.23851 13.2548 4.27745L8.66937 5.58774C8.47235 5.64418 8.33664 5.82417 8.33664 6.0288V19.785C8.33664 19.9288 8.40426 20.0645 8.51891 20.1514C8.59951 20.2118 8.69666 20.2436 8.79519 20.2436C8.83728 20.2436 8.87984 20.2378 8.92102 20.2262L13.5065 18.9159C13.7035 18.8595 13.8392 18.6795 13.8392 18.4749V4.7186C13.8392 4.5748 13.7716 4.43913 13.6569 4.35225ZM20.9936 11.4377C20.8785 11.5246 20.7294 11.5515 20.5919 11.5129C18.6798 10.9693 16.6912 11.7256 15.5901 13.293C15.5023 13.4175 15.3612 13.4878 15.2148 13.4878C15.1687 13.4878 15.1221 13.4811 15.0764 13.4663C14.8856 13.4063 14.7563 13.2294 14.7563 13.0292V4.7186C14.7563 4.57485 14.8239 4.43918 14.9385 4.3523C15.0536 4.26585 15.2036 4.23855 15.3406 4.2775L20.8431 5.84971C21.0402 5.90611 21.1759 6.08614 21.1759 6.29077V11.0719C21.1759 11.2156 21.1082 11.3513 20.9936 11.4377Z" fill="#85CE79"/>
</svg>
