<svg width="24" height="26" viewBox="0 0 24 26" fill="none" xmlns="http://www.w3.org/2000/svg">
<path fill-rule="evenodd" clip-rule="evenodd" d="M4.5 9.82609C4.5 4.95652 8.33333 2 12 2C15.6667 2 19.5 4.95652 19.5 9.82609C19.5 14.4348 12.8333 21.4783 12.5833 21.7391C12.4167 21.913 12.25 22 12 22C11.75 22 11.5833 21.913 11.4167 21.7391C11.1667 21.4783 4.5 14.4348 4.5 9.82609ZM9.5 9.82609C9.5 11.3043 10.5833 12.4348 12 12.4348C13.4167 12.4348 14.5 11.3043 14.5 9.82609C14.5 8.34783 13.4167 7.21739 12 7.21739C10.5833 7.21739 9.5 8.34783 9.5 9.82609Z" fill="white"/>
<g clip-path="url(#clip0_150_7392)">
<path d="M21.3208 11.321C21.3208 18.7847 12.8949 25.6971 12.8949 25.6971C12.4026 26.101 11.5969 26.101 11.1046 25.6971C11.1046 25.6971 2.67871 18.7847 2.67871 11.321C2.6788 6.17315 6.85195 2 11.9998 2C17.1476 2 21.3208 6.17315 21.3208 11.321Z" fill="#FF7C81"/>
<path d="M12 16.0105C9.41416 16.0105 7.31055 13.9068 7.31055 11.3211C7.31055 8.73533 9.41425 6.63153 12 6.63153C14.5857 6.63153 16.6894 8.73524 16.6894 11.321C16.6894 13.9067 14.5858 16.0105 12 16.0105Z" fill="#FFE1D6"/>
</g>
<defs>
<clipPath id="clip0_150_7392">
<rect width="24" height="24" fill="white" transform="translate(0 2)"/>
</clipPath>
</defs>
</svg>
