<svg width="25" height="24" viewBox="0 0 25 24" fill="none" xmlns="http://www.w3.org/2000/svg">
<path fill-rule="evenodd" clip-rule="evenodd" d="M12.1027 1.995C6.58605 1.995 2.09766 6.48301 2.09766 12C2.09766 17.517 6.58605 22.005 12.1027 22.005C17.6193 22.005 22.1077 17.517 22.1077 12C22.1077 6.48301 17.6193 1.995 12.1027 1.995ZM16.9128 12.7696H12.8723V17.0025C12.8723 17.4273 12.5275 17.7721 12.1027 17.7721C11.6778 17.7721 11.333 17.4273 11.333 17.0025V12.7696H7.29256C6.86773 12.7696 6.52294 12.4248 6.52294 12C6.52294 11.5752 6.86773 11.2304 7.29256 11.2304H11.333V7.3823C11.333 6.95748 11.6778 6.61269 12.1027 6.61269C12.5275 6.61269 12.8723 6.95748 12.8723 7.3823V11.2304H16.9128C17.3376 11.2304 17.6824 11.5752 17.6824 12C17.6824 12.4248 17.3376 12.7696 16.9128 12.7696Z" fill="#7A7879"/>
</svg>
