<svg width="25" height="24" viewBox="0 0 25 24" fill="none" xmlns="http://www.w3.org/2000/svg">
<path fill-rule="evenodd" clip-rule="evenodd" d="M7.09966 6.9975C7.09966 4.23469 9.33936 1.995 12.1022 1.995C14.8649 1.995 17.1047 4.23469 17.1047 6.9975C17.1047 9.7603 14.8649 12 12.1022 12C9.33936 12 7.09966 9.7603 7.09966 6.9975ZM12.1022 3.996C10.4444 3.996 9.10066 5.33982 9.10066 6.99749C9.10066 8.65517 10.4444 9.99899 12.1022 9.99899C13.7599 9.99899 15.1037 8.65517 15.1037 6.99749C15.1037 5.33982 13.7599 3.996 12.1022 3.996ZM8.10016 14.001C6.77341 14.001 5.50101 14.5281 4.56286 15.4662C3.6247 16.4043 3.09766 17.6767 3.09766 19.0035V21.0045C3.09766 21.5571 3.5456 22.005 4.09816 22.005C4.65071 22.005 5.09866 21.5571 5.09866 21.0045V19.0035C5.09866 18.2075 5.41488 17.444 5.97778 16.8811C6.54067 16.3183 7.30411 16.002 8.10016 16.002H16.1042C16.9002 16.002 17.6636 16.3183 18.2265 16.8811C18.7894 17.444 19.1057 18.2075 19.1057 19.0035V21.0045C19.1057 21.5571 19.5536 22.005 20.1062 22.005C20.6587 22.005 21.1067 21.5571 21.1067 21.0045V19.0035C21.1067 17.6767 20.5796 16.4043 19.6414 15.4662C18.7034 14.5281 17.4309 14.001 16.1042 14.001H8.10016Z" fill="#7A7879"/>
</svg>
