<svg width="15" height="16" viewBox="0 0 15 16" fill="none" xmlns="http://www.w3.org/2000/svg">
<path d="M1 4.99524H13.5" stroke="#5D5D65" stroke-width="1.5" stroke-linecap="round"/>
<path d="M11.7407 4.99524H2.75509L2.69079 6.15789C2.56758 8.38548 2.67227 10.6198 3.00321 12.8262C3.14753 13.7883 3.97402 14.5 4.9469 14.5H9.54891C10.5218 14.5 11.3483 13.7883 11.4926 12.8262C11.8235 10.6198 11.9282 8.38548 11.805 6.15789L11.7407 4.99524Z" fill="#FBECF5"/>
<path d="M2.75509 4.99524V4.24524C2.35697 4.24524 2.02822 4.55631 2.00624 4.95382L2.75509 4.99524ZM11.7407 4.99524L12.4896 4.95382C12.4676 4.55631 12.1388 4.24524 11.7407 4.24524V4.99524ZM11.805 6.15789L11.0562 6.19931L11.0562 6.19931L11.805 6.15789ZM2.69079 6.15789L1.94193 6.11647L2.69079 6.15789ZM3.00321 12.8262L3.74491 12.7149L3.74491 12.7149L3.00321 12.8262ZM11.4926 12.8262L10.7509 12.7149L10.7509 12.7149L11.4926 12.8262ZM2.75509 5.74524H11.7407V4.24524H2.75509V5.74524ZM9.54891 13.75H4.9469V15.25H9.54891V13.75ZM10.9919 5.03666L11.0562 6.19931L12.5539 6.11647L12.4896 4.95382L10.9919 5.03666ZM3.43964 6.19931L3.50395 5.03666L2.00624 4.95382L1.94193 6.11647L3.43964 6.19931ZM3.74491 12.7149C3.42154 10.5591 3.31926 8.3759 3.43964 6.19931L1.94193 6.11647C1.8159 8.39507 1.92299 10.6806 2.26151 12.9374L3.74491 12.7149ZM11.0562 6.19931C11.1766 8.3759 11.0743 10.5591 10.7509 12.7149L12.2343 12.9374C12.5728 10.6806 12.6799 8.39507 12.5539 6.11647L11.0562 6.19931ZM4.9469 13.75C4.34527 13.75 3.83416 13.3099 3.74491 12.7149L2.26151 12.9374C2.4609 14.2667 3.60277 15.25 4.9469 15.25V13.75ZM9.54891 15.25C10.893 15.25 12.0349 14.2667 12.2343 12.9374L10.7509 12.7149C10.6616 13.3099 10.1505 13.75 9.54891 13.75V15.25Z" fill="#5D5D65"/>
<path d="M4.75183 3.99521V3.49601C4.75183 2.83402 5.0148 2.19916 5.48289 1.73106C5.95099 1.26297 6.58586 1 7.24784 1C7.90982 1 8.54469 1.26297 9.01278 1.73106C9.48087 2.19916 9.74384 2.83402 9.74384 3.49601V3.99521" fill="#FBECF5"/>
<path d="M4.75183 3.99521V3.49601C4.75183 2.83402 5.0148 2.19916 5.48289 1.73106C5.95099 1.26297 6.58586 1 7.24784 1C7.90982 1 8.54469 1.26297 9.01278 1.73106C9.48087 2.19916 9.74384 2.83402 9.74384 3.49601V3.99521" stroke="#5D5D65" stroke-width="1.5" stroke-linecap="round" stroke-linejoin="round"/>
<path d="M5.75024 7.6687V11.8066" stroke="#5D5D65" stroke-width="1.5" stroke-linecap="round" stroke-linejoin="round"/>
<path d="M8.74548 7.6687V11.8066" stroke="#5D5D65" stroke-width="1.5" stroke-linecap="round" stroke-linejoin="round"/>
</svg>
