<svg width="24" height="24" viewBox="0 0 24 24" fill="none" xmlns="http://www.w3.org/2000/svg">
<path fill-rule="evenodd" clip-rule="evenodd" d="M6.99712 6.9975C6.99712 4.23469 9.23682 1.995 11.9996 1.995C14.7624 1.995 17.0021 4.23469 17.0021 6.9975C17.0021 9.7603 14.7624 12 11.9996 12C9.23682 12 6.99712 9.7603 6.99712 6.9975ZM11.9996 3.996C10.3419 3.996 8.99812 5.33982 8.99812 6.99749C8.99812 8.65517 10.3419 9.99899 11.9996 9.99899C13.6573 9.99899 15.0011 8.65517 15.0011 6.99749C15.0011 5.33982 13.6573 3.996 11.9996 3.996ZM7.99762 14.001C6.67087 14.001 5.39847 14.5281 4.46032 15.4662C3.52216 16.4043 2.99512 17.6767 2.99512 19.0035V21.0045C2.99512 21.5571 3.44306 22.005 3.99562 22.005C4.54817 22.005 4.99612 21.5571 4.99612 21.0045V19.0035C4.99612 18.2075 5.31235 17.444 5.87524 16.8811C6.43813 16.3183 7.20157 16.002 7.99762 16.002H16.0016C16.7976 16.002 17.5611 16.3183 18.124 16.8811C18.6869 17.444 19.0031 18.2075 19.0031 19.0035V21.0045C19.0031 21.5571 19.451 22.005 20.0036 22.005C20.5562 22.005 21.0041 21.5571 21.0041 21.0045V19.0035C21.0041 17.6767 20.4771 16.4043 19.5389 15.4662C18.6008 14.5281 17.3284 14.001 16.0016 14.001H7.99762Z" fill="#85CE79"/>
</svg>
