<svg xmlns="http://www.w3.org/2000/svg" viewBox="0 0 1096 1040"><defs><style>.cls-1{isolation:isolate;}.cls-2{fill:#fffae3;}.cls-3,.cls-4{fill:#fcedf6;}.cls-14,.cls-15,.cls-16,.cls-4,.cls-7,.cls-9{mix-blend-mode:multiply;}.cls-5{fill:#f9deec;}.cls-6{fill:#ffbad1;}.cls-7{fill:#e9dbd9;}.cls-8{fill:#fffbee;}.cls-12,.cls-17,.cls-8{mix-blend-mode:soft-light;}.cls-9{fill:#f0eae4;}.cls-10{fill:#251f24;}.cls-11{fill:#443b45;}.cls-12,.cls-17{fill:#fff;}.cls-13{fill:#e8547a;}.cls-14{fill:#e8dae2;}.cls-15{fill:#ad8b9c;}.cls-16{fill:#d0afc0;}.cls-17{opacity:0.5;}</style></defs><g class="cls-1"><g id="Layer_1" data-name="Layer 1"><rect class="cls-2" x="-4" y="4" width="1096" height="1040"/><path class="cls-3" d="M383.15,657.86S306.8,612.65,256,637.94c0,0,18.55,47.64-27.06,66.9,0,0-41.49,22-70.23-20.29,0,0-29.06-31.54,13.25-79.27,0,0,51.92-43.59,117-22.24,0,0,75.8,22.3,116.89,88.78Z"/><path class="cls-4" d="M236.12,610.31l15,3.68a61.74,61.74,0,0,0,15.26,1.75c23.57-.25,94.72,1.34,104.91,12.2,13.2,14.06,34.52,43.88,34.52,43.88s-87.42-59.1-149.8-33.88L235.6,611.11A.51.51,0,0,1,236.12,610.31Z"/><path class="cls-4" d="M149.83,659.47s40.26,68.16,109.58,8.46c0,0-6.17,40.43-55,43.27a36.65,36.65,0,0,1-16.75-3C173.31,701.91,148.79,683,149.83,659.47Z"/><path class="cls-3" d="M717.89,586.2s78.32-55.44,75.75-116.75c0,0-55.22-2.7-54.12-56.24,0,0-3.42-50.67,51-60.41,0,0,44-14.77,72.44,48.06,0,0,20.14,70.5-29.63,125.3,0,0-55.46,65-139.24,76.27Z"/><path class="cls-4" d="M829.7,462l-10.24,13.19a66.06,66.06,0,0,0-8.47,14.3c-10.15,23.38-43.11,92.94-58.33,98.22-19.71,6.83-58.56,14.73-58.56,14.73s96.94-60.26,99.54-133l35.5-8.33A.55.55,0,0,1,829.7,462Z"/><path class="cls-5" d="M585.1,186.09C563.5,312,577.74,426.75,618.36,433.72s98.91-135.26,113.85-222.41c12.37-72.2-20.93-134.72-51.72-140S598.87,105.75,585.1,186.09Z"/><path class="cls-6" d="M598.55,366.25c-4.16-47-3.06-107.27,3-142.53,12.61-73.6,54.78-114.12,71.88-111.19s40.79,59.92,29.45,126.07c-9.74,56.87-38.42,137.25-62,174.61C629.48,394.68,615.24,378,598.55,366.25Z"/><path class="cls-7" d="M620.44,385.77c43.75-83.22,70.87-177.89,40.43-270,4.88-2.7,9.2-3.82,12.55-3.24,17.11,2.93,40.79,59.92,29.45,126.07-9.74,56.87-38.42,137.25-62,174.61A185,185,0,0,0,620.44,385.77Z"/><path class="cls-5" d="M420.55,199.56C462.33,320.3,467,435.82,428,449.31S308.41,331.94,279.49,248.38c-24-69.22-1.26-136.33,28.26-146.54S393.88,122.54,420.55,199.56Z"/><path class="cls-6" d="M436.59,379.51c-3.55-47-14.45-106.34-26.15-140.14-24.42-70.57-72.61-103.69-89-98s-30.51,65.76-8.56,129.19c18.87,54.52,60.25,129.17,89.57,162.19C410.68,412.59,422,393.84,436.59,379.51Z"/><path class="cls-7" d="M418.15,402.33c-56.71-75-98.86-164-83.81-259.83-5.25-1.86-9.7-2.26-12.91-1.15C305,147,290.92,207.11,312.87,270.54c18.87,54.52,60.25,129.17,89.57,162.19A184.56,184.56,0,0,1,418.15,402.33Z"/><path class="cls-3" d="M755.57,689.42c8.47,103.38-76,236-192.86,245.54S340.94,827.45,332.47,724.06c-10.91-133.33,64.27-379.57,181.11-389.14S744.34,552.24,755.57,689.42Z"/><path class="cls-8" d="M484.3,525.66c2.09,69.75,20.57,143.44,73.12,187.54,52.75,44.27,129.72,48.8,194.92,29.34a198.54,198.54,0,0,0,3.23-53.12c-10.82-132.17-117-347.58-229.21-354.58C493.51,392.51,482.34,460.22,484.3,525.66Z"/><path class="cls-8" d="M656.94,632.32c5.59,1.59,11.21,3.07,16.91,4.19,6.69,1.3,13.41,2.5,20.2,3.23,3.19.35,6.4.67,9.6.92l2.15.07a262.77,262.77,0,0,0,41.48-2.57l.28,0c-23.95-108.66-93.41-243-173.1-288C557.11,402.76,545,457,555.71,511.78c3.55,18.19,10.27,36.68,18.43,53.43-1.3-3,6.35,10.77,7.82,12.9,3.3,4.77,6.78,9.44,10.51,13.89.84.59,9,9,10.63,10.4a180.9,180.9,0,0,0,15.71,12.3l.9.62c.56.3,1.24.68,2.19,1.22,2.31,1.33,4.64,2.62,7,3.85,4.74,2.44,9.52,4.82,14.44,6.87C645.68,628.23,660.14,633.08,656.94,632.32Z"/><path class="cls-4" d="M495,786.77C421.89,722,389,623.13,388,527.38a606.9,606.9,0,0,1,4.67-82.95c-43.55,85.27-66.59,201.72-60.21,279.63,8.47,103.39,113.4,220.47,230.24,210.9C620.84,930.2,671,895,705.6,848.05,630.37,854.12,552.65,837.83,495,786.77Z"/><path class="cls-9" d="M440.81,822.56c-56.28-57.43-89.46-127.67-102.54-205.06-6.16,38.67-8.33,75.66-5.8,106.56,8.47,103.39,113.4,220.47,230.24,210.9,27.32-2.24,52.84-11.27,75.84-25C564.56,905.18,494.93,877.8,440.81,822.56Z"/><path class="cls-10" d="M480.9,489.79a23.93,23.93,0,1,1-25.8-21.89A23.93,23.93,0,0,1,480.9,489.79Z"/><path class="cls-11" d="M461.74,474.54a20.11,20.11,0,0,0-.47-2.93,20.17,20.17,0,0,0-5.11-.23A20.9,20.9,0,0,0,437,493.91a21.83,21.83,0,0,0,.48,2.93,20.82,20.82,0,0,0,24.22-22.3Z"/><path class="cls-10" d="M615.76,475.13A23.92,23.92,0,1,1,590,453.24,23.92,23.92,0,0,1,615.76,475.13Z"/><path class="cls-11" d="M596.61,459.88a20.34,20.34,0,0,0-.48-2.93,20.56,20.56,0,0,0-5.1-.23,20.89,20.89,0,0,0-19.12,22.53,20.33,20.33,0,0,0,.47,2.93,21.16,21.16,0,0,0,5.11.23A20.9,20.9,0,0,0,596.61,459.88Z"/><path class="cls-6" d="M620.53,561.1c.85,10.32-10.39,19.66-25.09,20.87s-27.3-6.19-28.15-16.51,10.39-19.65,25.09-20.86S619.69,550.79,620.53,561.1Z"/><path class="cls-6" d="M495.39,571.35c.84,10.32-10.39,19.66-25.1,20.87S443,586,442.15,575.71s10.39-19.66,25.09-20.86S494.54,561,495.39,571.35Z"/><path class="cls-10" d="M582.49,557l3.45-2.23c2.22-1.37,5.35-3.4,9.19-5.7,7.65-4.64,18-10.6,28.43-16.34s21-11.23,29.06-15.19c4-2,7.41-3.54,9.76-4.68l3.74-1.7-3.45,2.23c-2.23,1.37-5.36,3.41-9.2,5.71-7.65,4.64-18,10.6-28.43,16.34S604,546.69,596,550.64c-4,2-7.41,3.55-9.76,4.69Z"/><path class="cls-10" d="M589.78,568.84l4.76-.69c3-.38,7.36-1,12.57-1.6s11.28-1.32,17.79-1.95,13.47-1.26,20.43-1.86,13.92-1.09,20.45-1.49,12.64-.68,17.87-1,9.61-.34,12.66-.47l4.81-.09-4.76.69c-3,.37-7.36,1-12.57,1.6s-11.27,1.32-17.79,2-13.47,1.26-20.42,1.86-13.92,1.08-20.46,1.48-12.64.68-17.87,1-9.6.35-12.66.47Z"/><path class="cls-10" d="M482.61,565.21l-4-1.07c-2.5-.74-6.11-1.72-10.38-3-8.57-2.59-19.9-6.3-31.15-10.25s-22.4-8.15-30.71-11.49c-4.16-1.65-7.58-3.15-10-4.14l-3.77-1.64,4,1.08c2.51.74,6.12,1.71,10.39,3,8.57,2.59,19.9,6.31,31.15,10.25s22.4,8.16,30.7,11.5c4.16,1.64,7.59,3.14,10,4.13Z"/><path class="cls-10" d="M477.33,578.05l-4.76.68c-3,.38-7.36,1-12.57,1.6s-11.27,1.32-17.79,1.95-13.47,1.26-20.43,1.86-13.92,1.09-20.45,1.49-12.64.68-17.87,1-9.61.34-12.66.47l-4.81.09,4.76-.69c3-.37,7.36-1,12.56-1.6s11.28-1.32,17.8-2,13.47-1.25,20.42-1.86S435.45,580,442,579.58s12.64-.68,17.87-1,9.6-.35,12.66-.47Z"/><ellipse class="cls-3" cx="400.21" cy="861.79" rx="67.69" ry="85.38" transform="translate(-257.49 176.01) rotate(-18.89)"/><ellipse class="cls-4" cx="405.93" cy="878.53" rx="53.84" ry="67.69" transform="translate(-262.6 178.77) rotate(-18.89)"/><path class="cls-3" d="M671.82,895.79s-33.62-31.55-23.9-40.06c0,0,13.64-8,40.29,12.63,0,0,12.47-27.9,50.71-24.44,0,0,35.08,2.8,37.88,36.41,0,0,1.4,34-33.13,50.46,0,0-30,16.78-54.71-3.64C689,927.15,676.26,918.52,671.82,895.79Z"/><path class="cls-4" d="M758.11,901.51c.18-.3.37-.6.57-.89a34.32,34.32,0,0,0,5.84-20c-.25-8.28-4-14-13.54-12.76a29.48,29.48,0,0,0-3.52.67s-6.31,1-13.22,6.7A37.76,37.76,0,0,0,722.51,893c-1.83,5.74-3,13.34,0,19.83a10,10,0,0,0,11.15,7.24c.55-.05,1.07-.29,1.61-.39C738.36,919.15,749.27,916.2,758.11,901.51Z"/><path class="cls-6" d="M489.64,620.81a68.89,68.89,0,0,0,10.17,23.33c14.12,20.52,42.7,25.66,62.7,10.81,9.38-7,17.66-18.86,19.45-39.15,0,0-35-4.8-46.5-26.3C535.46,589.5,521.31,621.41,489.64,620.81Z"/><path class="cls-10" d="M606,611.23a65.09,65.09,0,0,1-10.82,4c-1.87.57-3.79.91-5.71,1.3a57,57,0,0,1-5.82.67,47.79,47.79,0,0,1-11.5-.68,40,40,0,0,1-5.44-1.32,53.54,53.54,0,0,1-5.11-1.88,54.77,54.77,0,0,1-16.7-11.59,61,61,0,0,1-6.24-7.37,56.33,56.33,0,0,1-5-8.13l5.39-.81a38.42,38.42,0,0,1-1.57,4.27c-.58,1.39-1.25,2.75-1.95,4.1a56.58,56.58,0,0,1-5,7.88A51.89,51.89,0,0,1,496.14,622a65.41,65.41,0,0,1-10.12.56,64.3,64.3,0,0,1-9.72-.92,78.09,78.09,0,0,0,19.55-1.84,52.75,52.75,0,0,0,17.47-7.48A51,51,0,0,0,526,599.78a58.56,58.56,0,0,0,4.44-7.28,45.13,45.13,0,0,0,3-7.52,3.24,3.24,0,0,1,3.4-2.05,2.47,2.47,0,0,1,2,1.23,55.42,55.42,0,0,0,4.55,7.59,67.11,67.11,0,0,0,5.74,7,54,54,0,0,0,14.89,11.37,45.34,45.34,0,0,0,19.81,4.8,50.37,50.37,0,0,0,5.48-.13c1.84-.21,3.7-.37,5.55-.76A87.05,87.05,0,0,0,606,611.23Z"/><path class="cls-10" d="M533.61,587.11l0-49.74,5.53,48.87a2.89,2.89,0,0,1-2.51,2.87c-1.54.3-2.9-.5-3-1.78A1.64,1.64,0,0,1,533.61,587.11Z"/><path class="cls-6" d="M566.17,533.33c1.51,18.39-30.57,36-30.57,36s-34.51-12.18-36-30.57S564.67,514.94,566.17,533.33Z"/><path class="cls-12" d="M556.42,529.37c.3,3.67-10.38.85-23.17,1.9s-22.87,5.57-23.17,1.89,9.82-7.51,22.62-8.55S556.11,525.69,556.42,529.37Z"/><path class="cls-7" d="M576.78,637.76a64.25,64.25,0,0,0,5.76-22.37s-35-4.8-46.5-26.3c0,0-12.53,30.43-39.78,30.44a132.41,132.41,0,0,1,25.4-3.27,75.28,75.28,0,0,1,51.19,18.14Z"/><path class="cls-13" d="M421.91,401.75c-17.19-7.33-30.59-89.7-20.75-97,18-13.24,88,40.89,88,40.89S439.1,409.09,421.91,401.75Z"/><path class="cls-14" d="M476.68,354.66c-13.3,12.73-34.35,35.25-54.05,31.55-5.17-1-14.06-5.58-16-11.5,4.19,13.68,9.52,24.59,15.29,27,17.19,7.34,67.3-56.07,67.3-56.07s-.91-.7-2.54-1.92A113.64,113.64,0,0,1,476.68,354.66Z"/><path class="cls-14" d="M411.42,387.82c3.19,7.17,6.75,12.34,10.49,13.93,7.24,3.1,20.32-6.38,33-18.36C441.28,395,422.82,404.88,411.42,387.82Z"/><path class="cls-15" d="M484.57,345.56s-61-21.28-76.69-29.5c-6.95-3.65-6-7.45-5.25-8.95s6.48-2.79,17.23.78C436.38,313.37,484.57,345.56,484.57,345.56Z"/><path class="cls-16" d="M403,306.69a1.42,1.42,0,0,0-.37.42c-.78,1.5-1.7,5.3,5.25,8.95,13.49,7.09,60.74,23.89,73.48,28.37C469.7,336.62,412.91,318,403,306.69Z"/><path class="cls-17" d="M410.44,321.26c-10.26-4.26-10.54-9.76-10.54-9.76s0,7,1.3,10.26c-1.8,6.27,2.89,34.89,2.89,34.89s-4.46-29.16.78-32.12c3.76,1.55,75.92,21.74,75.92,21.74S419.86,325.18,410.44,321.26Z"/><path class="cls-13" d="M568.16,374.43c13.38-13.05-3.87-94.7-15.66-97.92-21.53-5.86-67.35,69.93-67.35,69.93S554.78,387.48,568.16,374.43Z"/><path class="cls-14" d="M500.08,350.29c17,7.07,44.75,20.47,61.79,9.91,4.48-2.77,11.1-10.29,10.77-16.52,1.05,14.27,0,26.37-4.48,30.75-13.38,13.05-83-28-83-28s.6-1,1.68-2.71A114.83,114.83,0,0,0,500.08,350.29Z"/><path class="cls-14" d="M572.91,357.65c-.38,7.83-1.84,13.94-4.75,16.78-5.64,5.5-21.25,1.38-37.44-5.2C547.64,375.07,568.43,377.67,572.91,357.65Z"/><path class="cls-15" d="M489.43,344.65s49.25-41.89,60.87-55.2c5.16-5.91,2.94-9.13,1.66-10.25s-7-.26-15.78,7C522.76,297.23,489.43,344.65,489.43,344.65Z"/><path class="cls-16" d="M551.46,279a1.55,1.55,0,0,1,.5.25c1.28,1.12,3.5,4.34-1.66,10.25-10,11.48-48,44.21-58.28,53C500.07,330.94,546.31,293.07,551.46,279Z"/><path class="cls-17" d="M549.78,295.23c8-7.68,6.31-12.92,6.31-12.92s2.51,6.57,2.5,10c3.93,5.19,9.9,33.58,9.9,33.58s-6.38-28.81-12.33-29.67c-2.94,2.81-62.95,47.68-62.95,47.68S542.42,302.28,549.78,295.23Z"/><rect class="cls-13" x="470.72" y="332.08" width="27.7" height="26.95" rx="7.96" transform="translate(-55.23 94.89) rotate(-10.58)"/><path class="cls-14" d="M486.88,354.2a28.75,28.75,0,0,1-16.59-15.61,7.83,7.83,0,0,0-.34,4.09l2,10.84a8,8,0,0,0,9.29,6.37l11.57-2.17a8,8,0,0,0,3.89-2A27.73,27.73,0,0,1,486.88,354.2Z"/><path class="cls-14" d="M470.89,345.37a5.24,5.24,0,0,0-.54-.51l1.62,8.66a8,8,0,0,0,9.29,6.37l5.47-1C479.89,356.23,474.92,351.29,470.89,345.37Z"/><path class="cls-17" d="M496.41,338.36c.81,4.35-13.15-5.67-8.81-6.48S495.6,334,496.41,338.36Z"/></g></g></svg>