<svg xmlns="http://www.w3.org/2000/svg" viewBox="0 0 1096 1040"><defs><style>.cls-1{isolation:isolate;}.cls-2{fill:#f9b7d2;}.cls-3{fill:#422918;}.cls-4{fill:none;stroke:#422918;stroke-miterlimit:10;stroke-width:6.43px;}.cls-5{fill:#f9e48f;}.cls-13,.cls-16,.cls-6{fill:#fff;}.cls-13,.cls-6{mix-blend-mode:soft-light;}.cls-6{opacity:0.5;}.cls-7{fill:#ead4d6;}.cls-7,.cls-8{mix-blend-mode:multiply;}.cls-8{fill:#f0eae4;}.cls-9{fill:#251f24;}.cls-10{fill:#443b45;}.cls-11{fill:#e95a0c;}.cls-12{fill:#d83f0e;}.cls-14{fill:#fc97be;}.cls-15{fill:#fffae3;}.cls-17{fill:#f9dcee;}.cls-18{fill:#d8bfd0;}</style></defs><g class="cls-1"><g id="Layer_1" data-name="Layer 1"><rect class="cls-2" x="8" y="8" width="1096" height="1040"/><path class="cls-3" d="M607.63,327.14s-1.22-2.58-2.64-6.57-3.11-9.35-4.52-14.8-2.54-10.95-3.19-15.14-.86-7-.86-7,1.22,2.58,2.65,6.57,3.1,9.35,4.51,14.8,2.53,11,3.19,15.15S607.63,327.14,607.63,327.14Z"/><path class="cls-3" d="M621.36,335.16s-.22-.8-.53-2.21-.77-3.42-1.19-5.85c-.89-4.86-1.8-11.36-2.46-17.89s-1-13.09-1.1-18c-.06-2.47,0-4.54,0-6s.09-2.27.09-2.27.22.8.53,2.21.77,3.42,1.2,5.85c.89,4.86,1.79,11.36,2.45,17.89s1,13.09,1.09,18c.06,2.47,0,4.54,0,6S621.36,335.16,621.36,335.16Z"/><polyline class="cls-4" points="426.2 819.16 469.91 793.43 494.7 726.26"/><polyline class="cls-4" points="621.93 855.73 590.89 816.03 592.93 744.61"/><path class="cls-5" d="M749.94,629.46C733.5,714.37,638.3,789,542.3,771S389,649.94,402.28,564.5c18-115.25,112.78-266.66,227.61-245.2C741.56,340.16,773.13,509.73,749.94,629.46Z"/><path class="cls-6" d="M654,342.72c10.22,12.53,24.55,27,36.13,40.69,24,28.38,42.3,58.77,51.75,94.94a114.87,114.87,0,0,0,5.8,18.07c-.4-1.52,4.72,6.54,4.75,6.58-1.33-2.2-.71-1.95,1.87.72-10-87.09-47.81-167.62-120.8-183.62A243,243,0,0,1,654,342.72Z"/><path class="cls-7" d="M430.86,636.72c-13.83-22.85-21.64-59.52-26-86.27-1,4.73-1.82,9.42-2.54,14C389,649.94,446.3,753.08,542.3,771c34.06,6.36,68,1.07,98.39-12.19C568.42,747.93,475.52,710.53,430.86,636.72Z"/><path class="cls-5" d="M886.52,527.37c-5.83,30.09-60,119.71-139.6,90.93-24.4-8.82-48.81-27-43-57.12s22.94-57.54,46.37-46.42C796.68,536.77,892.35,497.27,886.52,527.37Z"/><path class="cls-8" d="M879.15,516.68c-24,56.12-82.57,84.25-142.86,97.1a104.57,104.57,0,0,0,10.63,4.52c79.57,28.78,133.77-60.84,139.6-90.93C887.67,521.4,884.8,518.2,879.15,516.68Z"/><path class="cls-5" d="M307.35,419.16c-5.83,30.09,11.08,133,95.86,134.93,26,.59,55.49-7.55,61.32-37.65s.17-61.79-25.77-59.9C387.39,460.29,313.18,389.06,307.35,419.16Z"/><path class="cls-8" d="M318.19,411.87c1.33,60.85,45.31,108.14,96.59,141.84a109.7,109.7,0,0,1-11.57.38c-84.78-1.93-101.69-104.84-95.86-134.93C308.5,413.19,312.37,411.25,318.19,411.87Z"/><path class="cls-9" d="M584.12,455.11a11.79,11.79,0,0,1-13.73,9.34,11.6,11.6,0,0,1-9.27-13.63,11.8,11.8,0,0,1,13.72-9.35A11.62,11.62,0,0,1,584.12,455.11Z"/><path class="cls-10" d="M577.1,445.46a12.13,12.13,0,0,0,.16-1.45,10.44,10.44,0,0,0-2.37-.77,10.31,10.31,0,0,0-12,8.17,8.94,8.94,0,0,0-.16,1.44,10.21,10.21,0,0,0,14.36-7.39Z"/><path class="cls-9" d="M657.19,468.76a11.79,11.79,0,0,1-13.72,9.34,11.61,11.61,0,0,1-9.28-13.63,11.79,11.79,0,0,1,13.73-9.34A11.6,11.6,0,0,1,657.19,468.76Z"/><path class="cls-10" d="M650.17,459.11a10.21,10.21,0,0,0,.16-1.45,10.77,10.77,0,0,0-2.37-.76,10.19,10.19,0,0,0-12.15,9.6,10.22,10.22,0,0,0,14.36-7.39Z"/><path class="cls-11" d="M629.66,491.92l-29.88,20.33L579.6,482.57a35.41,35.41,0,0,1,27.18-6.45C624.76,479.48,629.66,491.92,629.66,491.92Z"/><path class="cls-12" d="M629.66,491.92l-29.88,20.33L579.6,482.57s16.37,12.61,23.81,14S629.66,491.92,629.66,491.92Z"/><path class="cls-13" d="M619.1,486.26c-.53,2.76-5.91-1.1-13.22-2.47s-13.76.29-13.22-2.47,6.89-3.89,14.19-2.53S619.64,483.5,619.1,486.26Z"/><path class="cls-14" d="M688.41,512.47c-1.24,6.38-13.39,9.48-27.14,6.91s-23.89-9.83-22.66-16.22,13.39-9.48,27.14-6.91S689.65,506.08,688.41,512.47Z"/><path class="cls-14" d="M566.33,489.66c-1.24,6.38-13.39,9.48-27.14,6.91s-23.89-9.83-22.66-16.22,13.39-9.48,27.14-6.91S567.57,483.27,566.33,489.66Z"/><line class="cls-4" x1="590.89" y1="816.03" x2="640.27" y2="840.6"/><path class="cls-15" d="M680.63,836.25c30-23.53,54.79-53.82,70.78-86.08C685.84,751.7,615.6,728,578.14,673.56a162.18,162.18,0,0,1-22-47.33L531.66,654l-51.1-44.67-20.8,7.27c6.34,38.68,19.66,76,41.34,109.37C541.34,788,609.23,822.81,680.63,836.25Z"/><path class="cls-16" d="M751.41,750.17l0,0c.92-1.87,1.82-3.74,2.68-5.62.18-.39.35-.78.53-1.18q2.07-4.56,3.89-9.17c.36-.91.73-1.82,1.08-2.73.54-1.4,1-2.81,1.55-4.23q.87-2.46,1.67-4.94c.38-1.19.76-2.38,1.13-3.57q1-3.3,1.85-6.58l.6-2.37c.65-2.69,1.27-5.37,1.79-8,.39-2,.76-4,1.11-6.07.12-.68.22-1.38.34-2.07.23-1.38.45-2.75.67-4.15.12-.82.23-1.65.35-2.48.19-1.29.38-2.57.55-3.88.12-.92.24-1.85.35-2.78.16-1.22.31-2.45.46-3.69.11-1,.21-2,.32-3,.13-1.2.26-2.4.38-3.62.1-1,.19-2.07.29-3.11,0-.55.09-1.1.14-1.65l-36.07,12.45-51.36-29.93-52.55,10.52-41.41-72.42-35.61,40.42a162.18,162.18,0,0,0,22,47.33C615.6,728,685.84,751.7,751.41,750.17Z"/><path class="cls-17" d="M605.13,877.22c1-.27,2-.52,3-.81.62-.18,1.27-.33,1.9-.52,2.86-.86,5.7-1.82,8.52-2.81.46-.16.93-.29,1.38-.46,3-1,5.9-2.21,8.83-3.4l.93-.36c3-1.26,6-2.6,9-4l.57-.26q4.59-2.18,9.11-4.56c.1,0,.2-.09.3-.15q4.55-2.42,9-5l.22-.13q4.51-2.65,8.93-5.51a.18.18,0,0,1,.07,0q4.38-2.84,8.65-5.87l.12-.09q4.2-3,8.27-6.14l.25-.18C612,823.33,543.31,788.38,502.51,726.28c-22-33.47-35.52-70.8-42-109.5l-45.12,15.54-14.1-56.26-3.82,2.55c1.12,57.9,15.36,114.29,44.87,167C478.73,810.73,536.94,853.91,605.13,877.22Z"/><path class="cls-18" d="M372.82,600.73c-.78,2.81-1.52,5.58-2.23,8.34-.4,1.59-.83,3.18-1.2,4.75-1.05,4.35-2,8.65-2.82,12.83-19,98.08,48,233.32,158.87,254.05,3.35.62,6.69,1.12,10,1.53,1.5.18,3,.27,4.49.41,1.81.17,3.62.36,5.43.46,2,.12,4,.15,6,.19h0c1.25,0,2.5.08,3.75.08,2.36,0,4.71-.09,7.06-.2h.22c.79,0,1.58,0,2.38-.1,2.63-.15,5.26-.39,7.88-.67l.59-.06,1-.11c2.85-.33,5.7-.74,8.53-1.21l.85-.14c3-.52,6-1.11,9-1.77l.31-.07q4.65-1,9.24-2.32h0C534.9,853.53,477.4,810.48,441.51,745.5c-29.08-52.67-43.06-109-44.05-166.89l-22.64,15.3-.19.61C374,596.61,373.41,598.67,372.82,600.73Z"/><path class="cls-17" d="M609.45,230.28a87.18,87.18,0,0,0-12.31-.19c-46.89,2.84-87.92,45.16-119.38,102.86a581.54,581.54,0,0,0-6.7,79.68c-.18,9.71,0,19.47.54,29.22l6.9,13,58-38L564.33,431c-.28-6-.47-12.05-.48-18C563.7,350,576.27,285.07,609.45,230.28Z"/><path class="cls-15" d="M655.37,246a168,168,0,0,1,20.88,14.75c-21.23-17.42-43.74-28.5-66.76-30.44h0C576.27,285.07,563.7,350,563.85,412.94c0,6,.2,12,.48,18l32.73,16.71,33.75-65.1C627.31,336.06,639.37,290.37,655.37,246Z"/><path class="cls-16" d="M775,403.1c-2.95-6.64-6-13.23-9.2-19.72a2.92,2.92,0,0,1-.14-.31c-4.85-9.86-9.94-19.52-15.27-28.9a.2.2,0,0,1,0-.08q-5.34-9.37-11-18.33l-.13-.2q-5.6-8.9-11.48-17.3l-.19-.27q-5.85-8.36-12-16.16c-.07-.09-.14-.17-.2-.26q-6.12-7.79-12.48-14.92l-.18-.2q-6.37-7.14-12.94-13.54l-.15-.14q-6.6-6.4-13.4-12l0,0A168,168,0,0,0,655.37,246c-16,44.4-28.06,90.09-24.56,136.62L638.88,367l57.84,60.1,48.51-22.93,34.61,10q-2.24-5.33-4.56-10.59C775.19,403.45,775.12,403.28,775,403.1Z"/><path class="cls-18" d="M471.06,412.63a581.54,581.54,0,0,1,6.7-79.68h0A479,479,0,0,0,455,381.33v0c-4.19,10.28-8.07,20.81-11.71,31.45l8.14-9,20.22,38.09C471.08,432.1,470.88,422.34,471.06,412.63Z"/></g></g></svg>