<svg xmlns="http://www.w3.org/2000/svg" viewBox="0 0 1096 1040"><defs><style>.cls-1{isolation:isolate;}.cls-2{fill:#d2ffdd;}.cls-3{fill:#422918;}.cls-4{fill:none;stroke:#422918;stroke-miterlimit:10;stroke-width:6.35px;}.cls-5{fill:#f9ba53;}.cls-12,.cls-6{fill:#fff;mix-blend-mode:soft-light;}.cls-6{opacity:0.5;}.cls-7{fill:#ead4d6;mix-blend-mode:multiply;}.cls-8{fill:#251f24;}.cls-9{fill:#443b45;}.cls-10{fill:#e95a0c;}.cls-11{fill:#d83f0e;}.cls-13{fill:#fc97be;}.cls-14{fill:#fffae3;}.cls-15{fill:#ecdec0;}.cls-16{fill:#ccbfa8;}</style></defs><g class="cls-1"><g id="Layer_1" data-name="Layer 1"><rect class="cls-2" x="-6" y="9" width="1096" height="1040"/><path class="cls-3" d="M569.31,320s-1.26-2.55-2.74-6.48-3.26-9.22-4.76-14.58-2.72-10.81-3.45-14.94-1-6.95-1-6.95,1.26,2.54,2.74,6.47,3.25,9.22,4.75,14.59,2.72,10.81,3.45,14.94S569.31,320,569.31,320Z"/><path class="cls-3" d="M583,327.77s-.23-.79-.56-2.18-.83-3.38-1.29-5.77c-1-4.79-2-11.21-2.78-17.66s-1.27-12.92-1.44-17.8c-.11-2.44-.06-4.48-.09-5.91s0-2.25,0-2.25.24.79.57,2.18.83,3.38,1.29,5.78c1,4.79,2,11.21,2.78,17.65s1.25,12.93,1.43,17.8c.11,2.44.06,4.49.1,5.91S583,327.77,583,327.77Z"/><polyline class="cls-4" points="399.89 807.19 442.53 781.47 465.68 714.96"/><line class="cls-4" x1="442.53" y1="781.47" x2="388.22" y2="786.83"/><polyline class="cls-4" points="593.82 841.97 562.4 802.97 563.01 732.42"/><path class="cls-5" d="M715.73,617.59c-14.56,84-107.06,158.32-202.18,141.25s-153.74-118.55-142.28-203c15.45-114,106.07-264.17,219.86-243.76C701.77,331.89,736.27,499.17,715.73,617.59Z"/><path class="cls-6" d="M615.36,335c10.34,12.31,24.76,26.48,36.47,39.95,24.23,27.87,42.91,57.77,52.95,93.43a115.08,115.08,0,0,0,6.08,17.81c-.42-1.5,4.79,6.43,4.83,6.47-1.37-2.17-.74-1.93,1.86.69-11.6-85.95-50.5-165.24-122.87-180.54A243.41,243.41,0,0,1,615.36,335Z"/><path class="cls-7" d="M400.9,627c-14.1-22.48-22.53-58.65-27.4-85.05-.86,4.68-1.62,9.33-2.23,13.9-11.46,84.49,47.16,186,142.28,203,33.75,6.06,67.17.6,96.89-12.71C538.88,735.86,446.43,699.55,400.9,627Z"/><path class="cls-5" d="M848.54,515.82c-5.16,29.76-56.89,118.66-136,90.78-24.26-8.55-48.71-26.37-43.55-56.14s21.52-57,44.86-46.17C760.05,525.72,853.71,486.05,848.54,515.82Z"/><path class="cls-7" d="M841.06,505.31C818.5,560.91,761.21,589.1,702,602.2a109.47,109.47,0,0,0,10.58,4.4c79.12,27.88,130.85-61,136-90.78C849.57,509.92,846.67,506.78,841.06,505.31Z"/><path class="cls-5" d="M274.69,412.88c-5.16,29.77,13.56,131.31,97.29,132.63,25.66.41,54.63-7.83,59.79-37.6s-1-61-26.62-59C354.52,453,279.86,383.11,274.69,412.88Z"/><path class="cls-7" d="M285.25,405.61c2.51,60.1,46.86,106.52,98.15,139.45a107.07,107.07,0,0,1-11.42.45c-83.73-1.32-102.45-102.86-97.29-132.63C275.72,407,279.5,405,285.25,405.61Z"/><path class="cls-8" d="M548.61,446.51a11.47,11.47,0,0,1-13.36,9.32,11.64,11.64,0,0,1-9.42-13.41,11.48,11.48,0,0,1,13.36-9.32A11.64,11.64,0,0,1,548.61,446.51Z"/><path class="cls-9" d="M541.49,437a8.64,8.64,0,0,0,.13-1.43,10.15,10.15,0,0,0-2.36-.74A10,10,0,0,0,527.59,443a11.69,11.69,0,0,0-.13,1.43,10.46,10.46,0,0,0,2.36.74A10,10,0,0,0,541.49,437Z"/><path class="cls-8" d="M621,459.5a11.48,11.48,0,0,1-13.36,9.32,11.64,11.64,0,0,1-9.42-13.41,11.47,11.47,0,0,1,13.36-9.32A11.64,11.64,0,0,1,621,459.5Z"/><path class="cls-9" d="M613.89,450a8.74,8.74,0,0,0,.13-1.43,10,10,0,0,0-14,7.4,8.76,8.76,0,0,0-.14,1.43,10.3,10.3,0,0,0,2.36.74A10,10,0,0,0,613.89,450Z"/><path class="cls-10" d="M594.29,482.56,565.2,502.85l-20.51-29.19a34.64,34.64,0,0,1,26.71-6.55C589.21,470.3,594.29,482.56,594.29,482.56Z"/><path class="cls-11" d="M594.29,482.56,565.2,502.85l-20.51-29.19S561.1,486,568.47,487.33,594.29,482.56,594.29,482.56Z"/><path class="cls-12" d="M583.76,477c-.47,2.73-5.86-1.05-13.1-2.35s-13.57.38-13.1-2.35,6.73-3.89,14-2.59S584.24,474.31,583.76,477Z"/><path class="cls-13" d="M652.69,502.45c-1.09,6.32-13,9.46-26.66,7s-23.77-9.54-22.68-15.86,13-9.46,26.65-7S653.79,496.14,652.69,502.45Z"/><path class="cls-13" d="M531.73,480.76c-1.09,6.31-13,9.45-26.65,7s-23.78-9.55-22.69-15.87,13-9.45,26.65-7S532.83,474.44,531.73,480.76Z"/><line class="cls-4" x1="562.4" y1="802.97" x2="611.63" y2="826.91"/><path class="cls-14" d="M651.38,822.33c29.16-23.44,53-53.54,68.18-85.51-64.7,2-134.5-21-172.55-74.49a162.65,162.65,0,0,1-22.63-46.6l-23.63,27.64L449.42,599.6,429,606.92c7,38.16,20.91,74.9,43,107.75C512.94,775.63,580.64,809.54,651.38,822.33Z"/><path class="cls-14" d="M719.56,736.82l0,0q1.3-2.78,2.54-5.57c.16-.39.33-.78.49-1.16,1.31-3,2.52-6,3.67-9.09.33-.9.68-1.8,1-2.7.51-1.4,1-2.79,1.45-4.19q.81-2.45,1.55-4.9c.36-1.18.71-2.35,1.05-3.53q.92-3.25,1.69-6.52c.19-.78.37-1.56.55-2.34.59-2.66,1.15-5.31,1.61-8,.35-2,.67-4,1-6,.1-.67.19-1.36.29-2,.2-1.37.4-2.72.58-4.11.11-.81.2-1.63.3-2.45.16-1.27.32-2.54.47-3.84.1-.91.19-1.83.29-2.74.13-1.21.26-2.42.37-3.65.09-1,.18-2,.26-3,.11-1.19.21-2.37.31-3.58.07-1,.14-2,.22-3.07,0-.54.07-1.08.11-1.63L704,665.27l-51.28-29.21L601,646.81l-42.3-71.25-34.36,40.17A162.65,162.65,0,0,0,547,662.33C585.06,715.85,654.86,738.78,719.56,736.82Z"/><path class="cls-15" d="M574.88,862.82c1-.28,1.94-.53,2.9-.83.62-.18,1.24-.33,1.86-.53,2.77-.87,5.53-1.84,8.27-2.84.44-.17.9-.3,1.34-.47,2.87-1.07,5.72-2.23,8.56-3.44l.9-.36c2.94-1.27,5.85-2.62,8.74-4l.55-.26q4.46-2.18,8.82-4.58l.29-.15c2.93-1.61,5.84-3.3,8.71-5l.2-.12q4.38-2.67,8.63-5.53l.07,0q4.21-2.85,8.34-5.88l.12-.09q4.05-3,8-6.13l.23-.18C580.64,809.54,512.94,775.63,472,714.67c-22.05-32.85-35.94-69.59-43-107.75l-43.79,15.73-14.77-55.43-3.68,2.55c2.11,57.17,17,112.73,46.77,164.55C450.26,798.27,507.87,840.4,574.88,862.82Z"/><path class="cls-16" d="M342.9,591.79c-.72,2.78-1.39,5.53-2,8.25-.37,1.58-.75,3.16-1.09,4.71-.95,4.3-1.81,8.55-2.53,12.68-16.82,97,51.94,230.15,161.83,249.87,3.31.59,6.62,1.06,9.93,1.44,1.48.17,3,.25,4.43.38,1.79.15,3.59.33,5.37.42,2,.1,4,.11,6,.14h0c1.24,0,2.47.07,3.71.06,2.33,0,4.64-.13,7-.25h.22c.77,0,1.56-.06,2.34-.11,2.6-.18,5.19-.43,7.77-.73l.58-.06,1-.11q4.21-.53,8.41-1.26l.83-.14q4.46-.8,8.86-1.82l.31-.07q4.56-1.06,9.08-2.35h0c-67-22.42-124.62-64.55-161.32-128.5-29.75-51.82-44.66-107.38-46.77-164.55l-22.05,15.28-.18.6C344,587.71,343.44,589.76,342.9,591.79Z"/><path class="cls-15" d="M569.19,224.25a85.07,85.07,0,0,0-12.16-.1c-46.22,3.12-85.89,45.21-115.81,102.42a574.11,574.11,0,0,0-5.05,78.75c0,9.59.4,19.23,1.11,28.86L444.34,447l56.56-38,27.7,13.81c-.39-5.95-.7-11.9-.83-17.82C526.39,342.79,537.52,278.6,569.19,224.25Z"/><path class="cls-14" d="M614.84,239.43a170.06,170.06,0,0,1,20.89,14.44C614.43,236.8,592,226,569.23,224.25h0C537.52,278.6,526.39,342.79,527.77,405c.13,5.92.44,11.87.83,17.82l32.64,16.28,32-64.54C588.91,328.62,599.91,283.4,614.84,239.43Z"/><path class="cls-14" d="M736.05,393.83q-4.56-9.81-9.47-19.41a2.89,2.89,0,0,1-.15-.31c-5-9.71-10.2-19.22-15.64-28.44l0-.08q-5.46-9.22-11.18-18l-.13-.2q-5.7-8.75-11.67-17c-.06-.09-.13-.17-.2-.26q-5.94-8.22-12.14-15.89a2.43,2.43,0,0,0-.2-.25q-6.19-7.65-12.61-14.66l-.18-.19q-6.44-7-13-13.29l-.15-.13q-6.64-6.29-13.47-11.77l0,0a170.06,170.06,0,0,0-20.89-14.44c-14.93,44-25.93,89.19-21.57,135.12l7.66-15.42,58.29,59,47.43-23L741,404.78q-2.31-5.23-4.71-10.42C736.22,394.18,736.14,394,736.05,393.83Z"/><path class="cls-16" d="M436.17,405.32a574.11,574.11,0,0,1,5.05-78.75h0a466.62,466.62,0,0,0-21.56,47.94h0c-3.93,10.19-7.56,20.61-10.94,31.15l7.86-9,20.71,37.48C436.57,424.55,436.19,414.91,436.17,405.32Z"/></g></g></svg>