<svg xmlns="http://www.w3.org/2000/svg" viewBox="0 0 1096 1040"><defs><style>.cls-1{isolation:isolate;}.cls-2{fill:#dbedfc;}.cls-2,.cls-7,.cls-8{mix-blend-mode:multiply;}.cls-3{fill:#422918;}.cls-4{fill:none;stroke:#422918;stroke-miterlimit:10;stroke-width:6.72px;}.cls-5{fill:#fffae3;}.cls-13,.cls-16,.cls-6{fill:#fff;}.cls-13,.cls-6{mix-blend-mode:soft-light;}.cls-6{opacity:0.5;}.cls-7{fill:#ead4d6;}.cls-8{fill:#f0eae4;}.cls-9{fill:#251f24;}.cls-10{fill:#443b45;}.cls-11{fill:#e95a0c;}.cls-12{fill:#d83f0e;}.cls-14{fill:#fc97be;}.cls-15{fill:#fcedf6;}.cls-17{fill:#f9dcee;}.cls-18{fill:#d8bfd0;}</style></defs><g class="cls-1"><g id="Layer_1" data-name="Layer 1"><rect class="cls-2" x="-4" y="-3" width="1096" height="1040"/><path class="cls-3" d="M566.92,320.42s-1.16-2.76-2.45-7-2.8-9.94-4-15.69-2.12-11.59-2.61-16-.56-7.4-.56-7.4,1.16,2.77,2.45,7,2.8,9.94,4,15.7,2.12,11.58,2.61,16S566.92,320.42,566.92,320.42Z"/><path class="cls-3" d="M580.85,329.54s-.2-.85-.45-2.34-.64-3.62-1-6.18c-.7-5.12-1.34-12-1.72-18.82s-.44-13.73-.29-18.89c.05-2.58.25-4.74.31-6.25s.2-2.37.2-2.37.19.85.45,2.34.64,3.62,1,6.18c.7,5.11,1.34,12,1.71,18.81s.44,13.73.29,18.89c-.05,2.59-.24,4.74-.3,6.25S580.85,329.54,580.85,329.54Z"/><polyline class="cls-4" points="354.59 824.55 401.36 800.03 430.37 731.21"/><polyline class="cls-4" points="556.88 873.27 526.4 830.14 531.9 755.66"/><path class="cls-5" d="M701,643.83c-21.15,87.8-123.89,160.58-223.11,136.69S323.77,645.8,341.67,557.28C365.82,437.87,471.8,284.84,590.49,313.42,705.9,341.22,730.81,520,701,643.83Z"/><path class="cls-6" d="M614.49,339.18c10.06,13.64,24.31,29.5,35.74,44.44,23.65,30.94,41.32,63.66,49.46,101.95,1.37,6.43,2.78,13,5.19,19.19-.34-1.61,4.62,7.08,4.65,7.13-1.29-2.37-.65-2.08,1.92.84-6.33-91.49-41.93-177.64-117.26-198.27A255.68,255.68,0,0,1,614.49,339.18Z"/><path class="cls-7" d="M368.06,634.25c-13.34-24.61-19.75-63.33-23.07-91.51-1.24,4.89-2.35,9.75-3.32,14.54-17.9,88.52,37,199.34,136.21,223.24,35.2,8.48,70.85,4.78,103.13-7.44C506.2,757.81,411.12,713.74,368.06,634.25Z"/><path class="cls-5" d="M848.16,544.55C840.67,575.66,780,666.36,698.36,632c-25-10.53-49.59-30.86-42.1-62s26.63-58.86,50.52-46C754.08,549.53,855.66,513.42,848.16,544.55Z"/><path class="cls-8" d="M841,533c-27.64,57.33-90,83.55-153.49,93.73a114.42,114.42,0,0,0,10.86,5.3c81.59,34.34,142.31-56.36,149.8-87.47C849.65,538.38,846.8,534.88,841,533Z"/><path class="cls-5" d="M249.58,400.37c-7.5,31.12,5.27,139.51,93.55,146.09,27.06,2,58.2-4.9,65.69-36s3.1-64.53-24-63.95C331.07,447.64,257.07,369.25,249.58,400.37Z"/><path class="cls-8" d="M261.22,393.34c-1.48,63.63,42.13,115.39,94,153.35a115.48,115.48,0,0,1-12.08-.23c-88.28-6.58-101-115-93.55-146.09C251.06,394.2,255.19,392.38,261.22,393.34Z"/><path class="cls-9" d="M536.37,452.81a12.22,12.22,0,1,1-9-14.74A12.23,12.23,0,0,1,536.37,452.81Z"/><path class="cls-10" d="M529.51,442.35a11.11,11.11,0,0,0,.23-1.5,10.81,10.81,0,0,0-2.44-.93,10.69,10.69,0,0,0-12.88,7.88,11.35,11.35,0,0,0-.23,1.5,10.53,10.53,0,0,0,2.44.93A10.68,10.68,0,0,0,529.51,442.35Z"/><path class="cls-9" d="M611.89,471a12.22,12.22,0,1,1-9-14.74A12.23,12.23,0,0,1,611.89,471Z"/><path class="cls-10" d="M605,460.54a9.72,9.72,0,0,0,.23-1.5A10.61,10.61,0,0,0,590,466a10,10,0,0,0-.24,1.5,10.53,10.53,0,0,0,2.44.93A10.68,10.68,0,0,0,605,460.54Z"/><path class="cls-11" d="M582.1,493.71,550,513.34l-19.64-32.1A36.77,36.77,0,0,1,559,476C577.58,480.45,582.1,493.71,582.1,493.71Z"/><path class="cls-12" d="M582.1,493.71,550,513.34l-19.64-32.1s16.47,14.06,24.16,15.91S582.1,493.71,582.1,493.71Z"/><path class="cls-13" d="M571.37,487.23c-.69,2.86-6.12-1.47-13.67-3.29s-14.35-.44-13.67-3.29,7.37-3.7,14.92-1.88S572.06,484.37,571.37,487.23Z"/><path class="cls-14" d="M642.37,518.33c-1.59,6.6-14.4,9.18-28.62,5.76s-24.44-11.56-22.85-18.16,14.4-9.18,28.61-5.76S644,511.72,642.37,518.33Z"/><path class="cls-14" d="M516.2,487.94c-1.59,6.6-14.4,9.18-28.62,5.76s-24.44-11.56-22.85-18.16,14.4-9.18,28.61-5.76S517.79,481.33,516.2,487.94Z"/><line class="cls-4" x1="526.4" y1="830.14" x2="576.72" y2="858.46"/><path class="cls-15" d="M619,856.08c32.39-23,59.65-53.26,77.84-86.09-68.42-1.93-140.51-30.46-177-89.34A170.61,170.61,0,0,1,499.15,630l-26.84,27.73-51.16-49.41-22,6.48c4.79,40.73,16.91,80.4,37.94,116.45C476.08,798.21,545.2,838.21,619,856.08Z"/><path class="cls-16" d="M696.82,770l0,0q1.59-2.87,3.07-5.73l.6-1.2c1.58-3.1,3.07-6.23,4.5-9.37.41-.93.84-1.86,1.24-2.79.63-1.44,1.23-2.89,1.82-4.34.68-1.68,1.34-3.38,2-5.07.46-1.22.91-2.44,1.35-3.67.79-2.26,1.54-4.51,2.24-6.77.25-.82.49-1.63.73-2.45.81-2.76,1.59-5.53,2.26-8.31.49-2.06,1-4.16,1.44-6.28.15-.7.3-1.43.45-2.14.3-1.43.6-2.85.89-4.3.17-.85.32-1.71.49-2.57.25-1.34.51-2.67.75-4,.17-1,.33-1.93.5-2.88.22-1.28.44-2.55.65-3.83l.48-3.12c.19-1.25.38-2.5.56-3.77l.45-3.22c.07-.57.15-1.15.22-1.72l-38.19,11.06-52.11-34-55.27,8.16-39.75-77.87-39,40.31a170.61,170.61,0,0,0,20.68,50.61C556.31,739.53,628.4,768.06,696.82,770Z"/><path class="cls-17" d="M538.36,894.82c1-.23,2.1-.44,3.15-.69.66-.15,1.34-.27,2-.44,3-.75,6-1.59,9-2.47.49-.15,1-.26,1.46-.41,3.14-.94,6.26-2,9.36-3.08l1-.32c3.22-1.15,6.41-2.39,9.59-3.69l.61-.24q4.89-2,9.71-4.27l.32-.14q4.86-2.27,9.62-4.76l.23-.12c3.22-1.69,6.42-3.45,9.57-5.28l.08,0q4.7-2.75,9.29-5.67l.13-.09q4.51-2.88,8.91-6c.08-.07.18-.12.26-.18-74.6-18.07-144.55-58.27-184.14-125.33-21.34-36.13-33.69-75.85-38.63-116.62l-47.76,13.8L340.08,569.3l-4.1,2.46C334.42,632.3,346.6,692,374.87,748.64,409.75,818.57,468.38,866.81,538.36,894.82Z"/><path class="cls-18" d="M309.26,593.54c-.95,2.89-1.85,5.75-2.72,8.59-.5,1.64-1,3.28-1.48,4.9-1.3,4.49-2.5,8.92-3.54,13.24-24.43,101.43,39,246.29,153.61,273.89,3.46.84,6.92,1.54,10.39,2.14,1.54.27,3.1.45,4.65.67,1.88.27,3.76.57,5.64.78,2.09.23,4.17.37,6.26.52h0c1.31.09,2.61.22,3.91.29,2.46.12,4.92.15,7.37.16h.23c.82,0,1.65,0,2.48,0,2.76,0,5.51-.14,8.26-.29l.61,0,1.09-.05q4.48-.3,8.95-.81l.89-.1c3.17-.38,6.33-.83,9.48-1.37l.33-.05q4.89-.85,9.74-1.93h0C466.27,866.3,408.37,818.24,374,748.44c-27.84-56.58-39.75-116.17-38-176.68l-24.32,14.77c-.07.21-.15.42-.22.62C310.68,589.3,310,591.42,309.26,593.54Z"/><path class="cls-17" d="M573.38,219.35a90.08,90.08,0,0,0-12.83-.86c-49,.44-93.77,42.43-129.28,101a607.43,607.43,0,0,0-10.74,82.86q-1,15.19-.82,30.55l6.58,13.95,62.3-36.61,28.29,16.3c0-6.32.08-12.62.35-18.87C520.05,341.9,536.21,274.79,573.38,219.35Z"/><path class="cls-15" d="M620.51,238.2a178.61,178.61,0,0,1,21.06,16.54c-21.31-19.35-44.24-32.13-68.15-35.39h0c-37.17,55.44-53.33,122.55-56.15,188.33-.27,6.25-.36,12.55-.35,18.87l33.33,19.2,38.25-66.17C587,330.79,601.73,283.72,620.51,238.2Z"/><path class="cls-16" d="M737.82,408.75q-4.14-10.63-8.66-21.08c0-.11-.1-.22-.14-.33-4.58-10.56-9.43-20.93-14.54-31a.41.41,0,0,1-.05-.09q-5.11-10.07-10.55-19.73l-.13-.22q-5.41-9.59-11.15-18.69c-.05-.09-.12-.19-.18-.28q-5.71-9.06-11.72-17.53c-.06-.1-.14-.19-.2-.28q-6-8.46-12.3-16.26L668,283q-6.3-7.78-12.85-14.84A.67.67,0,0,1,655,268q-6.59-7-13.41-13.26l0,0a178.61,178.61,0,0,0-21.06-16.54c-18.78,45.52-33.51,92.59-32,141.38l9.14-15.82,57.46,65.88,51.64-21.33,35.61,12.32q-2.09-5.67-4.26-11.3C738,409.13,737.9,408.94,737.82,408.75Z"/><path class="cls-18" d="M420.53,402.36a607.43,607.43,0,0,1,10.74-82.86h0a496.38,496.38,0,0,0-26.05,49.3h0c-4.85,10.52-9.4,21.3-13.69,32.22l8.91-9,19.28,40.87Q419.58,417.58,420.53,402.36Z"/></g></g></svg>