<svg xmlns="http://www.w3.org/2000/svg" viewBox="0 0 1125 2436"><defs><style>.cls-1{isolation:isolate;}.cls-2,.cls-6{fill:#fcedf6;}.cls-11,.cls-16,.cls-17,.cls-18,.cls-2,.cls-30,.cls-9{mix-blend-mode:multiply;}.cls-3,.cls-5{fill:#ffaecd;stroke-width:46.43px;}.cls-3{stroke:#d2ffdd;}.cls-28,.cls-3,.cls-35,.cls-36,.cls-4,.cls-40,.cls-41,.cls-5{stroke-miterlimit:10;}.cls-4{fill:#ffefab;stroke:#fce69f;stroke-width:53.72px;}.cls-5{stroke:#ffcfe1;}.cls-7{fill:#f9deec;}.cls-8{fill:#ffbad1;}.cls-9{fill:#e9dbd9;}.cls-10{fill:#fffbee;}.cls-10,.cls-14,.cls-19{mix-blend-mode:soft-light;}.cls-11{fill:#f0eae4;}.cls-12{fill:#251f24;}.cls-13{fill:#443b45;}.cls-14,.cls-19,.cls-37{fill:#fff;}.cls-15{fill:#e8547a;}.cls-16{fill:#e8dae2;}.cls-17{fill:#ad8b9c;}.cls-18{fill:#d0afc0;}.cls-19{opacity:0.5;}.cls-20{fill:#050505;}.cls-21{fill:#fffae3;}.cls-22{fill:#ff5e5a;}.cls-23{fill:#c5493e;}.cls-24{fill:#db574f;}.cls-25{fill:#ecdec0;}.cls-26{fill:#eddebc;}.cls-27{fill:#422918;}.cls-28,.cls-35,.cls-36,.cls-40,.cls-41{fill:none;stroke:#422918;}.cls-28{stroke-width:2px;}.cls-29{fill:#f9ba53;}.cls-30{fill:#ead4d6;}.cls-31{fill:#e95a0c;}.cls-32{fill:#d83f0e;}.cls-33,.cls-45{fill:#fc97be;}.cls-34{fill:#ccbfa8;}.cls-35{stroke-width:2.41px;}.cls-36{stroke-width:1.88px;}.cls-38{fill:#f9dcee;}.cls-39{fill:#d8bfd0;}.cls-40{stroke-width:2.53px;}.cls-41{stroke-width:1.46px;}.cls-42{fill:#f9e48f;}.cls-43{fill:#ffebf8;}.cls-44{fill:#e8d4e3;}.cls-45{font-size:183px;}.cls-45,.cls-51{font-family:FredokaOne-Regular, Fredoka One;}.cls-46{letter-spacing:-0.12em;}.cls-47{letter-spacing:-0.03em;}.cls-48{letter-spacing:0em;}.cls-49{letter-spacing:-0.03em;}.cls-50{letter-spacing:0em;}.cls-51{font-size:171px;fill:#66c66a;}</style></defs><g class="cls-1"><g id="Layer_1" data-name="Layer 1"><rect class="cls-2" width="1120" height="2436"/><ellipse class="cls-3" cx="568.29" cy="1094.95" rx="479.12" ry="475.95"/><ellipse class="cls-4" cx="570.07" cy="1097.43" rx="377.6" ry="375.1"/><ellipse class="cls-5" cx="570.09" cy="1097.49" rx="275.73" ry="273.9"/><path class="cls-6" d="M376.7,1172.1s39.92-9.77,59.06,8.13c0,0-14.61,18.52,3,33.07,0,0,15.46,15.21,33.87.4,0,0,17.11-10,4.73-36.69,0,0-17.19-26.11-48.89-25.35,0,0-29.26-.2-54.85,16.79a2.22,2.22,0,0,0,1.83,4Z"/><path class="cls-2" d="M442.53,1170.4l-1.14-.06a30.86,30.86,0,0,1-7.5-1.35c-10.65-3.3-42-11.9-47.92-8.5-3.75,2.16-8.85,5.69-13.1,8.75a2,2,0,0,0,1.61,3.61c14.67-3,42.63-6.37,60.12,6.49a2,2,0,0,0,2.4,0l6.74-4.85A2.25,2.25,0,0,0,442.53,1170.4Z"/><path class="cls-2" d="M480,1203.83s-27,24.68-49.74-10.84c0,0-2.67,18.63,18.58,26.37a17,17,0,0,0,7.84.89C463.87,1219.41,477.28,1214.35,480,1203.83Z"/><path class="cls-6" d="M210.3,1210.28s-51.66,3.25-71.35-23.17c0,0,22.26-19.71,3.66-41.66,0,0-15.73-22.28-41.87-8,0,0-23.46,8.63-14.12,44.41,0,0,15.44,36.17,54.88,42.26,0,0,45.31,8.44,84.28-15.07Z"/><path class="cls-2" d="M121.29,1196.13l8.77,2a36,36,0,0,1,8.4,3.12c12.18,6.33,49.58,24.23,57.75,21.31,10.59-3.79,29.57-13.57,29.57-13.57s-61.1,7.5-86.83-21.93l-17.72,8.47A.29.29,0,0,0,121.29,1196.13Z"/><path class="cls-7" d="M257,970.12c7,68.1,31.05,125.26,53.16,123s31.79-84,26.93-131.17c-4-39-30.39-66.51-47.15-64.8S252.52,926.68,257,970.12Z"/><path class="cls-8" d="M290.09,1061.16c-9-23.65-17.12-54.92-19.09-74-4.11-39.81,11.92-66.79,21.24-67.74s29.87,25.06,33.56,60.83c3.18,30.75-.08,76.36-6.91,99C310.28,1071.38,300.47,1064.83,290.09,1061.16Z"/><path class="cls-9" d="M304.29,1068.08c10.68-49.24,11-102-18.11-145.16,2.15-2.09,4.23-3.29,6.06-3.48,9.31-1,29.87,25.06,33.56,60.83,3.18,30.75-.08,76.36-6.91,99A98.8,98.8,0,0,0,304.29,1068.08Z"/><path class="cls-7" d="M173.47,1000.75c39.2,56.3,58.34,115.25,40.06,127.82s-79.14-43.36-106.27-82.32c-22.47-32.28-20.4-70.18-6.55-79.7S148.46,964.84,173.47,1000.75Z"/><path class="cls-8" d="M207.87,1091.31c-8.65-23.76-22.91-52.8-33.88-68.56-22.91-32.9-52.75-43.06-60.45-37.77s-6.32,38.32,14.27,67.9c17.71,25.42,50,58,70,70.81C199.21,1112.11,202.38,1100.8,207.87,1091.31Z"/><path class="cls-9" d="M201.6,1105.74c-40.32-30.54-75.12-70.4-81.18-122-3-.2-5.37.23-6.88,1.27-7.7,5.29-6.32,38.32,14.27,67.9,17.71,25.42,50,58,70,70.81A99,99,0,0,1,201.6,1105.74Z"/><path class="cls-6" d="M418.49,1205.34c19.37,52.13-5.31,132.72-64.62,154.47s-130.79-23.57-150.17-75.7c-25-67.24-21.6-205.14,37.71-226.89S392.78,1136.16,418.49,1205.34Z"/><path class="cls-10" d="M253.83,1159.87c11.19,35.69,31.47,71.07,65.16,86.26s74.46,6.51,105.52-12.91a105.83,105.83,0,0,0-6-27.88c-24.77-66.65-111.13-162.54-170.45-150C239.33,1089.82,243.33,1126.38,253.83,1159.87Z"/><path class="cls-10" d="M359,1190.07c3.13,0,6.26,0,9.39-.28,3.66-.28,7.33-.64,11-1.23q2.57-.42,5.12-.91l1.13-.28a142.26,142.26,0,0,0,21.17-7.29l.15-.07c-28.19-52.62-83.75-112-131.66-123.7-1.39,29.65.19,59.38,13.68,86.12a118.43,118.43,0,0,0,17.32,24.92c-1.11-1.34,4.86,4.65,5.93,5.53,2.41,2,4.89,3.89,7.47,5.66.53.18,6,3.34,7,3.83a96.53,96.53,0,0,0,9.94,4.09l.56.19,1.32.32c1.39.35,2.79.68,4.19,1,2.81.57,5.64,1.11,8.5,1.46C352.54,1189.58,360.75,1190,359,1190.07Z"/><path class="cls-2" d="M297.22,1293.08c-47.36-22.89-78.79-69.19-93.16-118.47a323,323,0,0,1-9.59-43.48c-10.27,50.28-5.37,113.69,9.23,153,19.38,52.13,90.86,97.45,150.17,75.7,29.51-10.82,50.44-36.21,61.64-65.41C377.3,1308.36,334.57,1311.13,297.22,1293.08Z"/><path class="cls-11" d="M274.25,1319.35c-37.56-21.54-65-53-83-91.07,2.4,20.84,6.63,40.25,12.42,55.83,19.38,52.13,90.86,97.45,150.17,75.7A94.62,94.62,0,0,0,389.65,1336C350.52,1344.18,310.38,1340.07,274.25,1319.35Z"/><path class="cls-12" d="M314.81,1114.87a12.79,12.79,0,0,1-7.63,16.46,12.82,12.82,0,1,1,7.63-16.46Z"/><path class="cls-13" d="M302.65,1109.76a12,12,0,0,0-.67-1.45,11.19,11.19,0,0,0-9.35,15,11.76,11.76,0,0,0,.66,1.44,11.16,11.16,0,0,0,9.36-15Z"/><path class="cls-8" d="M329.74,1158.55c1.94,5.21-2.54,11.65-10,14.38s-15.08.74-17-4.46,2.55-11.64,10-14.38S327.81,1153.35,329.74,1158.55Z"/><path class="cls-8" d="M266.21,1181.85c1.94,5.21-2.54,11.64-10,14.38s-15.08.74-17-4.47,2.55-11.63,10-14.37S264.28,1176.65,266.21,1181.85Z"/><path class="cls-12" d="M309.39,1161.93l1.47-1.65c.95-1,2.29-2.53,3.95-4.27,3.3-3.49,7.8-8,12.4-12.52s9.3-8.82,12.9-12c1.79-1.61,3.33-2.89,4.39-3.82l1.69-1.42-1.46,1.65c-1,1-2.29,2.53-4,4.27-3.3,3.5-7.81,8.06-12.41,12.52s-9.3,8.82-12.9,12c-1.79,1.61-3.33,2.89-4.39,3.82Z"/><path class="cls-12" d="M314.89,1167l2.37-1c1.53-.63,3.68-1.59,6.3-2.63s5.67-2.31,9-3.57,6.82-2.59,10.34-3.9,7.08-2.56,10.41-3.71,6.47-2.17,9.15-3.08,4.94-1.55,6.51-2.06l2.48-.74-2.37,1c-1.53.63-3.68,1.6-6.3,2.64s-5.66,2.3-9,3.56-6.81,2.59-10.34,3.9-7.08,2.56-10.41,3.71-6.47,2.17-9.15,3.08-4.94,1.56-6.5,2.06Z"/><path class="cls-12" d="M258.69,1180.52l-2.22,0c-1.41,0-3.42,0-5.83-.07-4.83-.11-11.25-.39-17.67-.81s-12.82-1-17.62-1.51c-2.4-.25-4.39-.53-5.79-.7l-2.2-.3,2.22,0c1.41,0,3.42,0,5.83.07,4.83.11,11.25.39,17.67.81s12.82,1,17.62,1.51c2.4.26,4.39.54,5.79.7Z"/><path class="cls-12" d="M257.8,1187.91l-2.37,1c-1.52.63-3.67,1.59-6.3,2.63s-5.66,2.3-9,3.57-6.81,2.58-10.34,3.9-7.08,2.56-10.41,3.71-6.47,2.17-9.14,3.07-4.94,1.56-6.51,2.07l-2.49.73,2.37-1c1.53-.63,3.68-1.59,6.3-2.63s5.67-2.31,9-3.57,6.82-2.58,10.34-3.9,7.08-2.56,10.42-3.71,6.46-2.17,9.14-3.07,4.94-1.56,6.51-2.06Z"/><ellipse class="cls-6" cx="263.18" cy="1347.01" rx="36.43" ry="45.84" transform="translate(-729.35 399.08) rotate(-35.26)"/><ellipse class="cls-2" cx="268.51" cy="1354.72" rx="29.08" ry="36.47" transform="translate(-733.01 403.77) rotate(-35.27)"/><path class="cls-6" d="M401.5,1328.91s-19.83-10-15.43-15.08c0,0,6.46-5.41,21.85.53,0,0,4.35-14.27,24.43-17.63,0,0,18.4-3.26,22.4,11.62,0,0,3.31,15.24-13.34,27.17,0,0-14.27,11.48-28.64,5.41C412.77,1340.93,405.52,1338.65,401.5,1328.91Z"/><path class="cls-2" d="M446.67,1320.37c.07-.16.15-.32.23-.48a15.46,15.46,0,0,0,1.51-9.81c-.76-3.72-3.14-5.86-8-4-.55.21-1.14.44-1.77.75a19.12,19.12,0,0,0-6.35,4.75,19.47,19.47,0,0,0-4.73,9.58c-.51,2.84-.56,6.44,1.49,9,0,0,1.65,3.42,6.34,1.84.28-.09.52-.27.8-.38C437.77,1330.92,443.2,1328.18,446.67,1320.37Z"/><path class="cls-8" d="M270.39,1208.2a37,37,0,0,0,8.67,10.58,24,24,0,0,0,34.14-3.44c3.86-4.95,6.44-12.28,4.43-23,0,0-18.87,2.56-28-6.88C289.66,1185.45,286.93,1204,270.39,1208.2Z"/><path class="cls-12" d="M329.43,1186.52a35.5,35.5,0,0,1-5,3.63c-.89.56-1.83,1-2.77,1.49a30.9,30.9,0,0,1-2.93,1.18,25.94,25.94,0,0,1-6.07,1.31,23.57,23.57,0,0,1-3,.1,25.55,25.55,0,0,1-2.92-.24,29.6,29.6,0,0,1-10.36-3.57,33.18,33.18,0,0,1-4.31-2.91,31.75,31.75,0,0,1-3.79-3.47l2.68-1.2a21,21,0,0,1-.19,2.43c-.1.8-.25,1.6-.42,2.4a29.82,29.82,0,0,1-1.45,4.79,27.88,27.88,0,0,1-14.9,15.4,35.79,35.79,0,0,1-10.36,2.67,42.67,42.67,0,0,0,9.89-3.76,28.37,28.37,0,0,0,8-6.38,26.87,26.87,0,0,0,4.78-8.28,29.43,29.43,0,0,0,1.25-4.39,23.78,23.78,0,0,0,.5-4.32,1.72,1.72,0,0,1,1.47-1.54,1.32,1.32,0,0,1,1.21.34,29.11,29.11,0,0,0,3.46,3.26,35.51,35.51,0,0,0,4,2.81,29.12,29.12,0,0,0,9.38,3.73,24.62,24.62,0,0,0,11-.38,26.74,26.74,0,0,0,2.82-.85c.93-.38,1.88-.73,2.78-1.19A48,48,0,0,0,329.43,1186.52Z"/><path class="cls-12" d="M288.36,1184.48l-7.19-25.67,9.95,24.42a1.54,1.54,0,0,1-.89,1.85,1.3,1.3,0,0,1-1.84-.48Z"/><path class="cls-8" d="M297.48,1152c3.45,9.28-10.66,23-10.66,23s-19.7-1.32-23.14-10.59S294,1142.77,297.48,1152Z"/><path class="cls-14" d="M291.84,1151.4c.69,1.86-5.27,1.93-11.76,4.32s-11.08,6.17-11.77,4.31,4-5.29,10.52-7.67S291.15,1149.55,291.84,1151.4Z"/><path class="cls-9" d="M318.12,1204.41a34.22,34.22,0,0,0-.25-12.37s-18.87,2.56-28-6.88c0,0-2.09,17.5-16.25,21.43a71.08,71.08,0,0,1,12.72-5.34,40.87,40.87,0,0,1,29.22,2Z"/><path class="cls-15" d="M203.47,1104.9c-10-1.31-28.89-41.89-24.83-47.05,7.41-9.42,51.67,8.43,51.67,8.43S213.47,1106.21,203.47,1104.9Z"/><path class="cls-16" d="M225.1,1072.72c-5.06,8.48-12.73,23.13-23.5,24.06-2.83.24-8.12-.86-10-3.64,4.16,6.46,8.51,11.32,11.86,11.76,10,1.31,26.84-38.62,26.84-38.62l-1.6-.63A60.25,60.25,0,0,1,225.1,1072.72Z"/><path class="cls-16" d="M196,1099.22c2.69,3.24,5.29,5.4,7.46,5.68,4.21.56,9.63-6.21,14.5-14.23C212.55,1098.6,204.4,1106.38,196,1099.22Z"/><path class="cls-17" d="M227.89,1066.88s-34.8-2.19-44.12-4.18c-4.14-.88-4.22-3-4-3.87s3-2.37,9.07-2.07C198.18,1057.21,227.89,1066.88,227.89,1066.88Z"/><path class="cls-18" d="M179.88,1058.56a.87.87,0,0,0-.14.27c-.19.89-.11,3,4,3.87,8,1.71,35,3.58,42.28,4.07C218.86,1064.41,186.66,1063,179.88,1058.56Z"/><path class="cls-19" d="M185.85,1065c-5.94-.73-6.89-3.53-6.89-3.53a21.29,21.29,0,0,0,2.16,5.11c0,3.49,6.56,17.59,6.56,17.59s-6.54-14.41-4.25-16.69c2.18.26,42.59.29,42.59.29S191.31,1065.68,185.85,1065Z"/><path class="cls-15" d="M275.49,1069.75c5.06-8.66-15.73-48.31-22.32-48.27-12,.07-24.86,45.78-24.86,45.78S270.43,1078.41,275.49,1069.75Z"/><path class="cls-16" d="M236.62,1067.09c9.86,1.2,26.22,4.13,33.54-3.78,1.93-2.07,4.28-6.9,3.21-10.07,2.61,7.21,3.82,13.61,2.12,16.51-5.06,8.66-47.18-2.49-47.18-2.49s.17-.6.48-1.64A62.34,62.34,0,0,0,236.62,1067.09Z"/><path class="cls-16" d="M275.53,1060.41c.94,4.1,1.06,7.46,0,9.34-2.13,3.65-10.84,3.78-20.2,2.71C264.93,1073,276.1,1071.39,275.53,1060.41Z"/><path class="cls-17" d="M230.28,1065.72s19.51-28.71,23.62-37.25c1.83-3.79.21-5.13-.62-5.53s-3.7.88-7.19,5.86C240.72,1036.45,230.28,1065.72,230.28,1065.72Z"/><path class="cls-18" d="M253,1022.88a.83.83,0,0,1,.29.06c.83.4,2.45,1.74.62,5.53-3.54,7.37-18.54,29.72-22.6,35.73C233.82,1057.11,252.35,1030.91,253,1022.88Z"/><path class="cls-19" d="M254.47,1031.52c3.06-5.11,1.41-7.57,1.41-7.57a21.42,21.42,0,0,1,2.75,4.82c2.8,2.12,10,15.91,10,15.91s-7.49-14-10.71-13.54c-1.12,1.87-25.79,33.67-25.79,33.67S251.67,1036.22,254.47,1031.52Z"/><path class="cls-15" d="M235.9,1066.26a4.25,4.25,0,0,1-2,5.71l-5.7,2.78a4.31,4.31,0,0,1-5.75-1.94l-2.62-5.3a4.24,4.24,0,0,1,2-5.71l5.7-2.79a4.31,4.31,0,0,1,5.75,2Z"/><path class="cls-16" d="M230.34,1071a15.51,15.51,0,0,1-10.88-5.67,4.15,4.15,0,0,0,.41,2.17l2.62,5.3a4.31,4.31,0,0,0,5.75,1.94l5.7-2.78a4.3,4.3,0,0,0,1.73-1.56A15,15,0,0,1,230.34,1071Z"/><path class="cls-16" d="M220.75,1068.76a2.47,2.47,0,0,0-.36-.19l2.1,4.24a4.31,4.31,0,0,0,5.75,1.94l2.69-1.31A18.56,18.56,0,0,1,220.75,1068.76Z"/><path class="cls-19" d="M233,1061.47c1,2.12-7.65-1-5.51-2.08A4.08,4.08,0,0,1,233,1061.47Z"/><path class="cls-20" d="M215.49,1139.34s24-6.24,34.92-.6a1.63,1.63,0,0,1,.4,2.59c-3.44,3.45-12.72,12.25-22.84,17.35l14.7-15.74a.76.76,0,0,0-.49-1.27Z"/><path class="cls-21" d="M871.64,1255.6s75.82-6.12,98.84-48.69c0,0-36.57-24-14.19-59.83,0,0,18.14-35.7,59.2-20.45,0,0,36,7.64,30,61.64,0,0-14.75,55.84-70.83,73,0,0-64.11,21.79-125.79-4.21Z"/><path class="cls-11" d="M998.09,1216.33l-12.32,4.82a52.78,52.78,0,0,0-11.55,6.29c-16.37,11.77-67,45.67-79.47,43.13-16.2-3.28-45.89-13.52-45.89-13.52s90.46-1.92,121.62-50.14l27.58,8.6A.44.44,0,0,1,998.09,1216.33Z"/><path class="cls-21" d="M855.64,1340.66c-36,73.44-147.2,129.36-230.75,88.95s-107.82-161.86-71.82-235.3c46.43-94.72,197.2-231.37,280.75-191S903.4,1243.21,855.64,1340.66Z"/><path class="cls-10" d="M736.79,1120.82c-26.76,48.1-43.94,105.45-25.91,156.42,18.09,51.16,68.76,85.12,121.09,98.11a156.71,156.71,0,0,0,23.67-34.69c46-93.89,60.65-282.44-13.07-332.23C796.87,1034.31,761.89,1075.71,736.79,1120.82Z"/><path class="cls-10" d="M811.43,1262.39c3.18,3.31,6.41,6.57,9.85,9.62,4,3.57,8.14,7.08,12.47,10.3,2,1.52,4.09,3,6.18,4.47l1.44.91a207.1,207.1,0,0,0,29.32,14.91l.22.09c27.56-83.24,34.48-202.17-1.71-264.6-33.1,28.69-63.26,60.58-78.1,102a173.82,173.82,0,0,0-9,43.6c.31-2.53,0,9.85.12,11.88.33,4.56.82,9.12,1.56,13.63.34.74,2.5,9.7,3,11.31a139.26,139.26,0,0,0,5.74,14.64l.36.78c.27.44.58,1,1,1.71,1,1.83,2.1,3.63,3.21,5.42,2.25,3.55,4.55,7.08,7.08,10.45C805.41,1255.1,813.31,1264.19,811.43,1262.39Z"/><path class="cls-11" d="M638.58,1302c-23.7-73.21-6.2-153.42,31.84-218.68a478.54,478.54,0,0,1,36.7-54.32C643,1069.31,580.2,1139,553.07,1194.31c-36,73.44-11.73,194.88,71.82,235.3,41.57,20.1,90,16.36,132.57-1.53C703.7,1402,657.27,1359.76,638.58,1302Z"/><path class="cls-11" d="M587.16,1304.52c-15.18-61.5-9.43-122.4,12.92-180.08-19.82,23.73-36.25,47.92-47,69.87-36,73.44-11.73,194.88,71.82,235.3,19.54,9.45,40.59,13.57,61.83,13.49C638.18,1410.18,601.76,1363.68,587.16,1304.52Z"/><path class="cls-21" d="M625.18,1118.58s-51.89-47.16-95.41-35.86c0,0,6.66,39.71-31.86,47.2,0,0-35.76,10.26-51.2-27,0,0-17.42-29,23.16-59,0,0,47.36-25.23,94.35,1.72,0,0,55.2,29.42,76.28,87.29Z"/><path class="cls-11" d="M518.82,1058.22l11,5.25a49,49,0,0,0,11.56,3.81c18.33,3.61,73.28,16.32,79.42,26.33,8,13,19.66,39.39,19.66,39.39s-58.24-59.66-110.73-50.28l-11.48-24A.39.39,0,0,1,518.82,1058.22Z"/><path class="cls-11" d="M443.89,1082.19s20.17,59,83.65,24.19c0,0-11.36,30.17-49.67,24.49a29.16,29.16,0,0,1-12.5-5C455.21,1118.68,439.25,1100.17,443.89,1082.19Z"/><path class="cls-21" d="M942.74,931.22c-65.61,76.65-102.26,160.1-77.37,181.13s122.11-51.95,167.51-105c37.62-44,40.16-99.68,21.29-115.61S984.59,882.32,942.74,931.22Z"/><path class="cls-8" d="M879.12,1058.68c16.14-33.5,41.26-73.9,59.62-95.36,38.35-44.81,83.48-55.34,94-46.49s3.61,57-30.85,97.24c-29.62,34.62-81.67,77.57-112.83,93.42C888.73,1090.36,885.75,1073.35,879.12,1058.68Z"/><path class="cls-9" d="M886.16,1080.69c63.47-38.81,120.21-92.07,136.67-166.7,4.42.13,7.82,1.11,9.87,2.84,10.49,8.86,3.61,57-30.85,97.24-29.62,34.62-81.67,77.57-112.83,93.42A143.33,143.33,0,0,0,886.16,1080.69Z"/><path class="cls-21" d="M825.07,874.3c-20.29,98.58-63.81,178.7-95.83,172.2S695.1,919,709.14,850.76c11.63-56.52,54.22-92.87,78.48-87.94S838,811.42,825.07,874.3Z"/><path class="cls-8" d="M763.3,1002.66c16.58-33.29,33.11-77.85,38.79-105.44C814,839.6,794.46,797.82,781,795.08s-47.37,32.31-58,84.09c-9.16,44.52-11.1,111.7-4.45,145.84C732.26,1014.68,747.57,1006.52,763.3,1002.66Z"/><path class="cls-9" d="M741.51,1010.72c-8.38-73.57-1.18-150.78,47.81-209.68-2.82-3.37-5.7-5.43-8.34-6-13.48-2.74-47.37,32.31-58,84.09-9.16,44.52-11.1,111.7-4.45,145.84A146.83,146.83,0,0,1,741.51,1010.72Z"/><path class="cls-12" d="M749,1095.16a19,19,0,0,1-25.35,8.69,18.78,18.78,0,0,1-8.75-25.18,19,19,0,0,1,25.35-8.69A18.77,18.77,0,0,1,749,1095.16Z"/><path class="cls-13" d="M742.05,1077.14a15,15,0,0,0,.87-2.18,16.52,16.52,0,0,0-26.4,7.56,16.55,16.55,0,0,0,25.53-5.38Z"/><path class="cls-12" d="M846.86,1139.36a19,19,0,0,1-25.35,8.69,18.79,18.79,0,0,1-8.75-25.18,19,19,0,0,1,25.36-8.69A18.78,18.78,0,0,1,846.86,1139.36Z"/><path class="cls-13" d="M840,1121.34a16.17,16.17,0,0,0,.86-2.18,15.81,15.81,0,0,0-3.39-2.2,16.44,16.44,0,0,0-23,9.76,16.55,16.55,0,0,0,25.53-5.38Z"/><path class="cls-22" d="M758.52,1026.14c-7.32-12.41,22.35-69.51,31.83-69.49,17.29,0,35.95,65.66,35.95,65.66S765.83,1038.56,758.52,1026.14Z"/><path class="cls-16" d="M814.35,1022.12c-14.16,1.78-37.65,6.06-48.21-5.26-2.77-3-6.18-9.9-4.66-14.46-3.71,10.38-5.42,19.57-3,23.74,7.31,12.42,67.78-3.83,67.78-3.83s-.24-.85-.7-2.36A87.2,87.2,0,0,1,814.35,1022.12Z"/><path class="cls-16" d="M758.42,1012.71c-1.33,5.9-1.5,10.73.1,13.43,3.08,5.23,15.59,5.37,29,3.78C773.72,1030.81,757.65,1028.49,758.42,1012.71Z"/><path class="cls-23" d="M823.47,1020.11S795.28,979,789.33,966.7c-2.64-5.44-.32-7.37.87-7.94s5.31,1.25,10.36,8.38C808.31,978.1,823.47,1020.11,823.47,1020.11Z"/><path class="cls-16" d="M790.62,958.67a1.19,1.19,0,0,0-.42.09c-1.19.57-3.51,2.5-.87,7.94,5.13,10.57,26.8,42.63,32.66,51.24C818.34,1007.76,791.57,970.2,790.62,958.67Z"/><path class="cls-19" d="M788.52,971.1c-4.42-7.34-2-10.88-2-10.88s-3.23,4.37-3.93,6.94c-4,3.06-14.3,22.91-14.3,22.91s10.68-20.08,15.31-19.51c1.62,2.69,37.24,48.25,37.24,48.25S792.57,977.83,788.52,971.1Z"/><path class="cls-22" d="M862.19,1076.29c14.35-1.94,41.3-60.35,35.44-67.75-10.7-13.49-74.21,12.38-74.21,12.38S847.84,1078.22,862.19,1076.29Z"/><path class="cls-16" d="M830.94,1030.14c7.32,12.17,18.42,33.18,33.9,34.46,4.07.34,11.66-1.27,14.33-5.27-5.93,9.3-12.17,16.31-17,17-14.35,1.93-38.77-55.37-38.77-55.37l2.3-.91A88,88,0,0,0,830.94,1030.14Z"/><path class="cls-16" d="M872.89,1068.08c-3.85,4.68-7.58,7.78-10.7,8.21-6.05.81-13.87-8.89-20.91-20.39C849.11,1067.28,860.86,1078.42,872.89,1068.08Z"/><path class="cls-23" d="M826.91,1021.78s50-3.34,63.38-6.25c5.94-1.28,6-4.29,5.76-5.57s-4.27-3.39-13-2.94C869.55,1007.72,826.91,1021.78,826.91,1021.78Z"/><path class="cls-16" d="M895.86,1009.58a1.23,1.23,0,0,1,.19.38c.28,1.28.18,4.29-5.76,5.57-11.54,2.51-50.3,5.34-60.74,6.07C839.86,1018.17,886.13,1015.94,895.86,1009.58Z"/><path class="cls-19" d="M887.3,1018.88c8.54-1.07,9.89-5.1,9.89-5.1s-1.47,5.21-3.08,7.35c0,5-9.33,25.31-9.33,25.31s9.32-20.74,6-24c-3.12.38-61.2.63-61.2.63S879.46,1019.86,887.3,1018.88Z"/><path class="cls-24" d="M831.24,1028.59a6.18,6.18,0,0,1-8.24,2.83l-8.21-4a6.1,6.1,0,0,1-2.84-8.19l3.74-7.64a6.18,6.18,0,0,1,8.25-2.82l8.2,4A6.11,6.11,0,0,1,835,1021Z"/><path class="cls-16" d="M820.92,1026.51a22,22,0,0,1-3.13-17.26,6.12,6.12,0,0,0-2.1,2.37l-3.74,7.64a6.1,6.1,0,0,0,2.84,8.19l8.21,4a6.14,6.14,0,0,0,3.31.57A21.46,21.46,0,0,1,820.92,1026.51Z"/><path class="cls-16" d="M815,1013.72a5.67,5.67,0,0,0-.1-.57l-3,6.11a6.1,6.1,0,0,0,2.84,8.19l3.89,1.88C815.63,1024.56,814.81,1019.23,815,1013.72Z"/><path class="cls-19" d="M834.16,1021.08c-1.5,3.07-5.57-9.53-2.49-8A5.8,5.8,0,0,1,834.16,1021.08Z"/><path class="cls-8" d="M815.38,1199.52c-3.59,7.33-15,9.15-25.54,4.07s-16.12-15.15-12.53-22.48,15-9.15,25.54-4.07S819,1192.2,815.38,1199.52Z"/><path class="cls-8" d="M725.89,1156.23c-3.6,7.33-15,9.16-25.55,4.07s-16.12-15.15-12.52-22.48,15-9.15,25.54-4.06S729.48,1148.91,725.89,1156.23Z"/><path class="cls-12" d="M791.08,1181.49l3.25-.12c2.07,0,5-.16,8.58-.18,7.09-.07,16.54,0,26,.34s18.88.83,26,1.38c3.53.25,6.48.57,8.54.74l3.24.35-3.26.13c-2.07,0-5,.16-8.57.18-7.09.07-16.55,0-26-.35s-18.89-.84-26-1.38c-3.54-.25-6.48-.57-8.54-.74Z"/><path class="cls-12" d="M791.29,1192.42l3.52,1.44c2.22,1,5.44,2.26,9.22,4s8.22,3.64,12.92,5.82,9.69,4.56,14.68,6.94,9.93,4.85,14.55,7.2,8.9,4.62,12.58,6.52,6.69,3.62,8.83,4.76l3.31,1.87-3.52-1.44c-2.22-1-5.44-2.25-9.22-4s-8.22-3.63-12.92-5.82-9.69-4.56-14.68-6.94-9.93-4.86-14.55-7.2-8.9-4.62-12.58-6.52-6.69-3.62-8.83-4.76Z"/><path class="cls-12" d="M719.65,1147s-.82-.85-2.27-2.32-3.47-3.62-5.85-6.23c-4.8-5.19-11-12.26-17.11-19.44s-12-14.52-16.3-20.12c-2.17-2.78-3.9-5.17-5.14-6.81l-1.91-2.63,2.27,2.32c1.41,1.51,3.48,3.62,5.86,6.23,4.79,5.19,11,12.26,17.1,19.44s12,14.53,16.3,20.12c2.17,2.78,3.9,5.17,5.15,6.81Z"/><path class="cls-12" d="M710.87,1153.52l-3.53-1.44c-2.22-1-5.44-2.26-9.22-4s-8.22-3.64-12.92-5.82-9.69-4.56-14.68-6.94-9.93-4.85-14.55-7.2-8.9-4.62-12.59-6.52-6.68-3.62-8.82-4.76l-3.31-1.87,3.52,1.44c2.22,1,5.44,2.25,9.22,4s8.22,3.63,12.92,5.82,9.69,4.56,14.68,6.94,9.93,4.86,14.55,7.21,8.9,4.61,12.59,6.51,6.68,3.62,8.82,4.76Z"/><ellipse class="cls-21" cx="543.62" cy="1314.81" rx="67.25" ry="53.64" transform="translate(-855.89 1570.93) rotate(-77.91)"/><ellipse class="cls-25" cx="540.76" cy="1328.45" rx="53.32" ry="42.67" transform="translate(-871.51 1578.8) rotate(-77.9)"/><path class="cls-21" d="M715.13,1446.86S705,1412,715,1410.13c0,0,12.55,0,22.37,24.73,0,0,19.78-13.9,44.46,3.8,0,0,22.8,16,11.12,39.87,0,0-12.77,23.58-43,20.89,0,0-27.22-.66-35.84-24.43C714.15,1475,709,1464,715.13,1446.86Z"/><path class="cls-26" d="M771.67,1485.37c.24-.13.49-.26.75-.37a27.17,27.17,0,0,0,12.05-11.19c3.18-5.71,2.95-11.12-4.08-14.08a23.11,23.11,0,0,0-2.66-1A24.3,24.3,0,0,0,766,1458a30,30,0,0,0-15.18,7.34c-3.57,3.16-7.46,7.82-8,13.42a7.89,7.89,0,0,0,4.68,9.39c.4.18.85.23,1.26.38C751.07,1489.4,759.71,1491.78,771.67,1485.37Z"/><path class="cls-8" d="M702,1187.44a53.93,53.93,0,0,0-2.48,19.89,35.1,35.1,0,0,0,38.39,32.49c9.21-1,19.66-5.7,29.09-18.72,0,0-21.93-17.3-21.1-36.49C745.88,1184.61,723.34,1200.55,702,1187.44Z"/><path class="cls-12" d="M785.19,1227.63a52,52,0,0,1-9-1.62c-1.51-.37-3-.91-4.42-1.42a41.09,41.09,0,0,1-4.24-1.88,37.35,37.35,0,0,1-7.57-5.07,33.15,33.15,0,0,1-3.18-3.08,40.25,40.25,0,0,1-2.72-3.32,43,43,0,0,1-6.71-14.56,48.88,48.88,0,0,1-1.28-7.49,45,45,0,0,1-.14-7.53l4,1.61a32,32,0,0,1-2.8,2.27c-.95.71-2,1.36-3,2a45.28,45.28,0,0,1-6.6,3.33,41.39,41.39,0,0,1-31.61,0,51.53,51.53,0,0,1-7.13-3.68,50.61,50.61,0,0,1-6.25-4.52,62.69,62.69,0,0,0,14.07,6.6,42.14,42.14,0,0,0,15,1.94,40.39,40.39,0,0,0,13.7-3.38,46.32,46.32,0,0,0,6-3.14,36.3,36.3,0,0,0,5.12-3.87,2.57,2.57,0,0,1,3.14,0,1.93,1.93,0,0,1,.86,1.64,42.65,42.65,0,0,0,0,7,52.2,52.2,0,0,0,1.07,7.08,42.21,42.21,0,0,0,5.56,13.67,35.82,35.82,0,0,0,11.57,11.21,43.36,43.36,0,0,0,3.79,2.11c1.34.6,2.68,1.24,4.09,1.71A68.49,68.49,0,0,0,785.19,1227.63Z"/><path class="cls-12" d="M745.59,1182.25l20.13-33.68-16,35.33a2.3,2.3,0,0,1-2.88.94,1.88,1.88,0,0,1-1.35-2.43C745.54,1182.36,745.56,1182.3,745.59,1182.25Z"/><path class="cls-8" d="M789.53,1158.89C783.12,1172,754.12,1171,754.12,1171s-18.61-22.1-12.21-35.17S795.93,1145.82,789.53,1158.89Z"/><path class="cls-14" d="M784.47,1152.29c-1.28,2.61-7.41-3.59-16.57-8s-17.85-5.4-16.56-8,9.73-1.15,18.88,3.28S785.76,1149.67,784.47,1152.29Z"/><path class="cls-9" d="M754.57,1233.9a50.92,50.92,0,0,0,13-12.85s-21.93-17.3-21.1-36.48c0,0-20.83,15.59-39.42,4.65a105.84,105.84,0,0,1,18.64,8A59.39,59.39,0,0,1,753.24,1230Z"/><path class="cls-27" d="M74.19,1576s-.82-.35-2-1-2.66-1.55-4.11-2.53-2.86-2-3.87-2.88-1.65-1.47-1.65-1.47.82.36,2,1,2.66,1.55,4.11,2.53,2.85,2,3.87,2.88S74.19,1576,74.19,1576Z"/><path class="cls-27" d="M79.07,1575l-.58-.4c-.35-.28-.88-.64-1.48-1.12-1.21-1-2.76-2.28-4.26-3.67s-2.94-2.84-4-4c-.53-.56-.93-1.06-1.23-1.39l-.45-.55s.22.14.58.41.89.64,1.49,1.12c1.21,1,2.76,2.28,4.26,3.66s2.93,2.85,4,4c.52.56.93,1.06,1.23,1.4S79.07,1575,79.07,1575Z"/><polyline class="cls-28" points="132.83 1727.27 137.81 1712.42 129.81 1691.76"/><line class="cls-28" x1="137.81" y1="1712.42" x2="125.88" y2="1724.77"/><polyline class="cls-28" points="186.4 1696.11 170.93 1693.16 156.7 1676.12"/><path class="cls-29" d="M169.92,1617.49c13.62,23.09,6.58,59.75-19.69,75s-61,2.89-75.47-19.69c-19.51-30.47-28.38-84.93,3-103.22C108.38,1551.84,150.72,1584.91,169.92,1617.49Z"/><path class="cls-19" d="M88.3,1570.19c5,.85,11.33,1.3,16.88,2.15,11.49,1.75,22,5.11,31.73,11.61a36.62,36.62,0,0,0,5.08,3c-.41-.27,2.46.57,2.48.57-.77-.24-.57-.31.58-.21-20.29-18.25-45.76-29.33-66.23-18.26A76.92,76.92,0,0,1,88.3,1570.19Z"/><path class="cls-30" d="M96.36,1683.86c-8-2.52-17.35-9.47-23.89-14.81.74,1.3,1.51,2.57,2.29,3.79,14.46,22.58,49.19,35,75.47,19.69a52,52,0,0,0,20.63-22.78C151.62,1681.86,122.06,1692,96.36,1683.86Z"/><path class="cls-29" d="M181,1566c4.83,8.18,10.53,40-14.12,49.46-7.55,2.89-17,3.6-21.87-4.58s-6.45-18.05,1.35-20.21C161.83,1586.43,176.2,1557.85,181,1566Z"/><path class="cls-30" d="M177.1,1565c5.91,17.93-2.08,36.35-13.62,51.56a29.82,29.82,0,0,0,3.43-1.1c24.65-9.43,19-41.28,14.12-49.46C180.07,1564.41,178.74,1564.25,177.1,1565Z"/><path class="cls-29" d="M22.5,1658.25c4.83,8.19,30,28.71,50.34,12,6.23-5.13,11.5-13,6.67-21.2s-12.68-14.42-18.4-8.72C49.8,1651.6,17.67,1650.06,22.5,1658.25Z"/><path class="cls-30" d="M23.55,1654.35c12.84,13.9,32.93,16,51.93,13.44a33.6,33.6,0,0,1-2.64,2.44c-20.34,16.73-45.51-3.79-50.34-12C21.54,1656.63,22.05,1655.39,23.55,1654.35Z"/><path class="cls-12" d="M95,1610.52a3.6,3.6,0,0,1-1.3,5,3.67,3.67,0,0,1-5-1.29,3.61,3.61,0,0,1,1.3-5A3.66,3.66,0,0,1,95,1610.52Z"/><path class="cls-13" d="M91.37,1609.69a2.26,2.26,0,0,0-.26-.37,3.36,3.36,0,0,0-.71.3,3.15,3.15,0,0,0-1.14,4.33,2,2,0,0,0,.26.37,3.36,3.36,0,0,0,.71-.3A3.15,3.15,0,0,0,91.37,1609.69Z"/><path class="cls-12" d="M115,1598.88a3.61,3.61,0,0,1-1.3,5,3.66,3.66,0,0,1-5-1.3,3.61,3.61,0,0,1,1.3-5A3.66,3.66,0,0,1,115,1598.88Z"/><path class="cls-13" d="M111.37,1598.06a1.64,1.64,0,0,0-.26-.37,3.36,3.36,0,0,0-.71.3,3.15,3.15,0,0,0-1.14,4.33c.08.13.17.25.26.37a3.67,3.67,0,0,0,.72-.3A3.16,3.16,0,0,0,111.37,1598.06Z"/><path class="cls-31" d="M113.3,1609.85l-2.84,10.79-10.86-2.82a10.88,10.88,0,0,1,5.07-7C109.59,1608,113.3,1609.85,113.3,1609.85Z"/><path class="cls-32" d="M113.3,1609.85l-2.84,10.79-10.86-2.82s6.45-.38,8.49-1.57S113.3,1609.85,113.3,1609.85Z"/><path class="cls-14" d="M109.66,1610.67c.44.76-1.62.95-3.62,2.11s-3.18,2.86-3.62,2.11.82-2.31,2.82-3.47S109.21,1609.92,109.66,1610.67Z"/><path class="cls-33" d="M131.36,1602.73c1,1.73-1.2,4.92-5,7.11s-7.65,2.55-8.67.81,1.19-4.92,5-7.11S130.33,1601,131.36,1602.73Z"/><path class="cls-33" d="M97.94,1622.16c1,1.74-1.19,4.92-5,7.11s-7.64,2.56-8.67.82,1.2-4.92,5-7.11S96.92,1620.43,97.94,1622.16Z"/><line class="cls-28" x1="170.93" y1="1693.16" x2="187.6" y2="1688.87"/><path class="cls-21" d="M196.2,1679.67a77.93,77.93,0,0,0-1.08-34.38c-15.11,13.65-36.51,22.37-56.53,17.29a51.39,51.39,0,0,1-14.92-6.56l0,11.44-21.22,0-3.4,5.9a89.46,89.46,0,0,0,32.25,17.08C153.5,1696.68,176.64,1691,196.2,1679.67Z"/><path class="cls-21" d="M195.12,1645.29v0c-.17-.62-.34-1.24-.53-1.85,0-.13-.07-.25-.11-.38-.3-1-.63-2-1-2.92-.1-.29-.2-.57-.31-.86s-.33-.86-.5-1.3-.41-1-.63-1.48-.31-.71-.47-1.07c-.29-.64-.6-1.27-.92-1.9-.11-.23-.23-.45-.34-.67-.4-.76-.81-1.51-1.24-2.24-.32-.55-.65-1.09-1-1.64l-.34-.55-.7-1.1-.43-.65c-.22-.34-.44-.68-.67-1l-.49-.71c-.21-.32-.43-.64-.65-1l-.54-.77-.66-.92-.57-.78c-.1-.14-.2-.28-.31-.41l-5.92,10.21-18.24,3.44-10.2,13.1-24.65-8.46-.06,16.63a51.39,51.39,0,0,0,14.92,6.56C158.61,1667.66,180,1658.94,195.12,1645.29Z"/><path class="cls-25" d="M186.11,1705l.53-.79c.1-.17.22-.33.33-.5.49-.78.95-1.57,1.4-2.37.08-.13.16-.25.23-.38.47-.85.92-1.71,1.35-2.57.05-.09.1-.18.14-.27.45-.91.87-1.82,1.28-2.75l.08-.17c.42-1,.81-1.92,1.18-2.9l0-.09c.38-1,.73-2,1.06-3l0-.07c.33-1,.65-2,.94-3.09v0c.29-1,.56-2.07.81-3.11v0c.24-1,.46-2.06.66-3.1a.29.29,0,0,1,0-.09c-19.56,11.35-42.7,17-64.93,10.73A89.46,89.46,0,0,1,99,1673.32L91.73,1686,76.9,1675.74l-.37,1.36A111.15,111.15,0,0,0,121.26,1707C143.09,1714.87,165.48,1713.24,186.11,1705Z"/><path class="cls-34" d="M75.29,1687.24c.4.82.79,1.61,1.19,2.4.24.45.47.91.7,1.35.65,1.22,1.31,2.42,2,3.55,15.73,26.69,59.33,44.59,89.69,26.94q1.36-.81,2.67-1.68c.39-.26.76-.54,1.14-.81s.93-.65,1.37-1,1-.78,1.46-1.17h0c.3-.24.61-.49.9-.74.56-.48,1.09-1,1.62-1.48l.05,0,.54-.51c.59-.57,1.16-1.16,1.72-1.75l.12-.14.22-.23c.61-.66,1.19-1.33,1.76-2l.17-.21c.61-.73,1.19-1.48,1.76-2.24l.06-.08c.58-.79,1.15-1.59,1.69-2.41h0c-20.63,8.28-43,9.91-64.85,2.06a111.15,111.15,0,0,1-44.73-29.92l-2.17,8.15.08.18C74.72,1686,75,1686.65,75.29,1687.24Z"/><path class="cls-25" d="M54.67,1553a26.32,26.32,0,0,0-2.93,2.46c-10.45,10.16-11.38,28.33-6.9,48.14a179.63,179.63,0,0,0,14.83,19.9q2.94,3.45,6.14,6.7l4.3,1.62,5.83-20.62,9.45-2.33c-1.31-1.35-2.59-2.71-3.83-4.1C68.56,1590.18,58.15,1572.52,54.67,1553Z"/><path class="cls-21" d="M68.71,1547.39a53,53,0,0,1,8-.8c-8.58.25-16.16,2.23-22,6.45h0c3.48,19.48,13.89,37.14,26.89,51.77,1.24,1.39,2.52,2.75,3.83,4.1l11.14-2.75-5.47-22C80.66,1574.05,74.09,1561,68.71,1547.39Z"/><path class="cls-21" d="M129.21,1559.71q-3.09-1.43-6.22-2.73l-.1,0c-3.17-1.31-6.36-2.53-9.54-3.63h0q-3.18-1.11-6.35-2l-.07,0q-3.15-.93-6.26-1.7l-.1,0q-3.11-.77-6.15-1.34l-.1,0c-2-.38-4-.7-6-.94H88.2c-2-.25-3.93-.43-5.83-.53H82.3c-1.91-.1-3.79-.13-5.62-.08h0a53,53,0,0,0-8,.8c5.38,13.58,12,26.66,22.35,36.78l-1.3-5.26,26,2.27,6.69-15.17,10.2-4.69c-1.08-.52-2.16-1-3.25-1.54Z"/><path class="cls-34" d="M59.67,1623.54a179.63,179.63,0,0,1-14.83-19.9h0a148.64,148.64,0,0,0,4.59,15.88h0c1.13,3.24,2.38,6.48,3.72,9.69l.05-3.75,12.6,4.77Q62.61,1627,59.67,1623.54Z"/><path class="cls-27" d="M1037.13,530.47s.28-1,.84-2.52,1.38-3.43,2.29-5.33,1.93-3.74,2.76-5.1,1.46-2.22,1.46-2.22-.28,1-.84,2.52-1.38,3.43-2.29,5.33-1.94,3.75-2.76,5.1S1037.13,530.47,1037.13,530.47Z"/><path class="cls-27" d="M1039.09,536.1s.13-.28.38-.76.61-1.16,1.08-2c.92-1.61,2.23-3.69,3.62-5.71s2.88-4,4-5.42c.58-.72,1.11-1.29,1.45-1.71s.58-.62.58-.62-.13.28-.38.76-.61,1.16-1.08,2c-.92,1.6-2.23,3.68-3.63,5.71s-2.87,4-4,5.42c-.58.72-1.11,1.29-1.46,1.7S1039.09,536.1,1039.09,536.1Z"/><polyline class="cls-35" points="866.74 626.99 885.36 630.26 908.63 617.09"/><line class="cls-35" x1="885.36" y1="630.26" x2="868.5" y2="618.3"/><polyline class="cls-35" points="913.44 685.02 914.23 666.13 932.07 646.22"/><path class="cls-29" d="M1004.45,651.47c-25.19,20.27-70.22,18.45-93.13-10s-14.25-71.87,10.18-93.06c33-28.57,96.44-48.8,123.84-14.75C1072,566.75,1040,622.89,1004.45,651.47Z"/><path class="cls-19" d="M1046.52,546.19c-.13,6.07.44,13.68.42,20.41-.06,13.94-2.2,27.08-8.26,39.72a44.38,44.38,0,0,0-2.73,6.57c.26-.53-.24,3-.24,3,.16-.95.27-.73.36.66,18.21-27.32,26.94-59.53,10.1-81.85A91.39,91.39,0,0,1,1046.52,546.19Z"/><path class="cls-30" d="M912.15,576c1.6-9.89,8.25-22.27,13.47-31-1.42,1.12-2.8,2.25-4.12,3.4-24.43,21.19-33.09,64.6-10.18,93.06a62.56,62.56,0,0,0,30.87,20.44C924.31,641.21,907,607.93,912.15,576Z"/><path class="cls-29" d="M1067.88,655.49c-8.93,7.19-46,19.63-61.59-7.94-4.79-8.46-7.32-19.59,1.61-26.78s20.42-10.87,24.38-2C1040.12,636.34,1076.81,648.31,1067.88,655.49Z"/><path class="cls-30" d="M1068.37,650.65c-20.37,10.21-43.79,4-64-7a40,40,0,0,0,1.92,3.88c15.62,27.57,52.66,15.13,61.59,7.94C1069.65,654.07,1069.61,652.45,1068.37,650.65Z"/><path class="cls-29" d="M929.69,483.78c-8.93,7.18-29,40.7-5.41,61.86,7.23,6.49,17.57,11.33,26.5,4.15s15-17.62,7.16-23.38C942.46,515,938.61,476.59,929.69,483.78Z"/><path class="cls-30" d="M934.52,484.33c-14.33,17.71-13.28,41.92-6.87,64a40.74,40.74,0,0,1-3.37-2.71c-23.59-21.16-3.52-54.68,5.41-61.86C931.46,482.35,933,482.74,934.52,484.33Z"/><path class="cls-12" d="M999.53,561.33a4.37,4.37,0,1,1,.67-6.15A4.36,4.36,0,0,1,999.53,561.33Z"/><path class="cls-13" d="M999.87,556.87a3.64,3.64,0,0,0,.4-.38,3.59,3.59,0,0,0-.49-.79,3.82,3.82,0,0,0-5.37-.59,3.64,3.64,0,0,0-.4.38,3.82,3.82,0,0,0,5.86,1.38Z"/><path class="cls-12" d="M1017,583a4.38,4.38,0,1,1,.66-6.16A4.38,4.38,0,0,1,1017,583Z"/><path class="cls-13" d="M1017.31,578.53a4.59,4.59,0,0,0,.39-.37,3.47,3.47,0,0,0-.48-.8,3.84,3.84,0,0,0-5.38-.58,4.59,4.59,0,0,0-.39.37,3.91,3.91,0,0,0,.49.8A3.82,3.82,0,0,0,1017.31,578.53Z"/><path class="cls-31" d="M1003.56,582.92l-13.39-1.45,1.44-13.39a13.18,13.18,0,0,1,9.28,4.77C1005.18,578.18,1003.56,582.92,1003.56,582.92Z"/><path class="cls-32" d="M1003.56,582.92l-13.39-1.45,1.44-13.39s1.6,7.58,3.38,9.79S1003.56,582.92,1003.56,582.92Z"/><path class="cls-14" d="M1001.93,578.74c-.82.66-1.41-1.75-3.15-3.92s-4-3.26-3.16-3.92,2.9.56,4.64,2.73S1002.75,578.08,1001.93,578.74Z"/><path class="cls-33" d="M1015.27,603.08c-1.9,1.52-6.09-.55-9.38-4.63s-4.4-8.61-2.51-10.14,6.09.54,9.37,4.62S1017.16,601.55,1015.27,603.08Z"/><path class="cls-33" d="M986.14,566.88c-1.9,1.52-6.09-.54-9.38-4.62s-4.4-8.62-2.51-10.14,6.09.54,9.37,4.62S988,565.36,986.14,566.88Z"/><line class="cls-35" x1="914.23" y1="666.13" x2="922.3" y2="685.16"/><path class="cls-21" d="M934.81,693.72a94.85,94.85,0,0,0,40.88-7.39c-19-15.51-33.18-39.35-30.65-64a61.34,61.34,0,0,1,5.2-18.87l-13.67,2-3.7-25.19-7.66-3a107,107,0,0,0-14.7,41.31C906.94,646.08,917.79,672.52,934.81,693.72Z"/><path class="cls-21" d="M975.69,686.33h0c.71-.31,1.42-.63,2.12-1l.43-.2q1.69-.81,3.33-1.68l1-.52c.49-.27,1-.54,1.46-.83s1.12-.66,1.67-1l1.18-.75c.72-.47,1.43-.94,2.12-1.43l.74-.53c.84-.61,1.66-1.23,2.46-1.87.59-.47,1.18-1,1.78-1.46l.59-.51,1.2-1,.7-.62,1.09-1,.77-.71,1-1c.27-.25.55-.51.82-.78l1-.94c.28-.27.56-.54.83-.82l.44-.43-13.24-5.21-7.34-21-17.45-9.77,5.75-30.76-19.88,2.89a61.34,61.34,0,0,0-5.2,18.87C942.51,647,956.72,670.82,975.69,686.33Z"/><path class="cls-25" d="M902.81,686.25c.35.16.69.33,1,.48l.66.31c1,.44,2,.85,3.08,1.25l.5.2c1.09.41,2.19.78,3.3,1.14.12,0,.23.09.35.12,1.16.37,2.33.71,3.5,1l.23.06c1.21.33,2.43.62,3.66.89l.12,0c1.25.27,2.5.51,3.75.73h.09c1.28.22,2.56.41,3.85.57h0c1.28.16,2.57.29,3.86.4h0c1.27.11,2.54.18,3.82.24h.11c-17-21.2-27.87-47.64-24.3-75.14a107,107,0,0,1,14.7-41.31l-16.46-6.4,9.66-19.43-1.69-.19a133.2,133.2,0,0,0-27.83,58.41C883.37,637,889.28,663.24,902.81,686.25Z"/><path class="cls-34" d="M904.38,551.59c-.9.61-1.78,1.22-2.64,1.84l-1.5,1.06c-1.34,1-2.65,2-3.89,3-29.1,23.42-42.78,78.35-16.32,111.23.8,1,1.63,1.95,2.48,2.88.38.41.78.81,1.17,1.21s.94,1,1.43,1.45,1.1,1,1.66,1.51h0l1,.94c.67.57,1.36,1.11,2,1.65l.07.06.7.55c.78.59,1.59,1.16,2.4,1.72l.18.12.32.23c.89.59,1.79,1.17,2.71,1.72l.28.17c1,.59,2,1.15,3,1.69l.11,0c1,.56,2.11,1.08,3.18,1.59h0c-13.53-23-19.44-49.29-13.92-76.59a133.2,133.2,0,0,1,27.83-58.41l-10.12-1.13-.2.13Z"/><path class="cls-25" d="M1061.06,503.23a33.42,33.42,0,0,0-3.45-3.05c-14-10.58-35.86-8.46-58.73.38a216.63,216.63,0,0,0-21.16,21.15q-3.6,4.1-6.91,8.48l-1.19,5.39,25.67,3.24,4.46,10.8c1.38-1.79,2.78-3.55,4.22-5.27C1019.15,526.32,1038.4,510.83,1061.06,503.23Z"/><path class="cls-21" d="M1070.3,518.88a63.4,63.4,0,0,1,2.35,9.29c-1.81-10.14-5.52-18.78-11.58-24.93h0c-22.66,7.6-41.91,23.09-57.09,41.12-1.44,1.72-2.84,3.48-4.22,5.27l5.25,12.74L1030.31,552C1040.56,537.8,1055,527.68,1070.3,518.88Z"/><path class="cls-21" d="M1066.28,592.87c.77-2.61,1.49-5.24,2.15-7.87l0-.12c1-4,1.9-8,2.66-12v0q.77-4,1.32-7.9s0-.06,0-.09q.55-3.9.92-7.73a.49.49,0,0,0,0-.12q.36-3.82.51-7.54a.49.49,0,0,1,0-.12c.09-2.47.12-4.91.06-7.29V542q-.09-3.59-.4-7s0-.05,0-.08q-.33-3.43-.9-6.69a0,0,0,0,0,0,0,63.4,63.4,0,0,0-2.35-9.29c-15.27,8.8-29.74,18.92-40,33.07l6-2.48,1.89,31.24,19.3,5.23,7.4,11.28c.44-1.37.86-2.75,1.27-4.13Z"/><path class="cls-34" d="M977.72,521.71a216.63,216.63,0,0,1,21.16-21.15h0a178,178,0,0,0-18.16,8.29h0c-3.68,1.92-7.32,4-10.93,6.14l4.5-.6-3.47,15.8Q974.13,525.81,977.72,521.71Z"/><path class="cls-27" d="M82.15,433s-.82-.18-2-.57-2.73-1-4.24-1.63-3-1.4-4.08-2S70,427.72,70,427.72s.82.18,2,.57,2.73,1,4.25,1.63,3,1.4,4.08,2S82.15,433,82.15,433Z"/><path class="cls-27" d="M86.5,431.29l-.61-.28c-.38-.19-.93-.44-1.57-.78-1.29-.67-2.95-1.64-4.58-2.66s-3.22-2.13-4.37-3c-.59-.43-1.05-.83-1.38-1.09s-.51-.43-.51-.43l.61.28c.37.19.93.44,1.57.78,1.28.67,3,1.63,4.58,2.66s3.21,2.13,4.37,3c.58.43,1,.83,1.38,1.08S86.5,431.29,86.5,431.29Z"/><polyline class="cls-36" points="163.03 563.37 165.01 548.69 153.97 530.89"/><polyline class="cls-36" points="207 525 192.19 524.97 176.04 511.63"/><path class="cls-21" d="M177.89,454.8c16.66,19.09,16.64,54.4-4.93,73.22s-55.83,13.4-73.17-5.06c-23.4-24.9-41.21-74-15.41-96.5C109.46,404.57,154.41,427.89,177.89,454.8Z"/><path class="cls-19" d="M94.16,425.15c4.76-.08,10.7-.77,16-1,10.92-.39,21.27.88,31.35,5.23a34.46,34.46,0,0,0,5.23,1.92c-.42-.18,2.37.1,2.39.1-.76-.09-.59-.19.5-.31-22-13.39-47.44-19.23-64.39-5.34A71.25,71.25,0,0,1,94.16,425.15Z"/><path class="cls-30" d="M121.68,529.41c-7.8-.94-17.69-5.76-24.68-9.57q1.38,1.62,2.79,3.12c17.34,18.46,51.6,23.88,73.17,5.06a49,49,0,0,0,15-24.8C172.36,517.86,146.85,532.46,121.68,529.41Z"/><path class="cls-21" d="M179.06,405c5.91,6.76,16.8,35.37-4.29,48.46-6.47,4-15.11,6.34-21-.42s-9.15-15.64-2.33-19C164.94,427.35,173.16,398.26,179.06,405Z"/><path class="cls-11" d="M175.25,404.79c8.63,15.62,4.51,34.15-3.46,50.32a30.51,30.51,0,0,0,3-1.63c21.09-13.09,10.2-41.7,4.29-48.46C177.89,403.68,176.63,403.76,175.25,404.79Z"/><path class="cls-21" d="M49,518.57c5.9,6.76,32.77,21.43,48.6,2.3C102.4,515,105.87,506.76,100,500s-14.26-11.17-18.53-4.87C73,507.59,43,511.8,49,518.57Z"/><path class="cls-11" d="M49.23,514.76c14.32,10.67,33.23,9.09,50.33,3.38a32.55,32.55,0,0,1-2,2.73c-15.83,19.13-42.7,4.46-48.6-2.3C47.78,517.22,48,516,49.23,514.76Z"/><path class="cls-12" d="M107.48,461.46a3.43,3.43,0,1,1-4.83-.32A3.42,3.42,0,0,1,107.48,461.46Z"/><path class="cls-13" d="M104,461.34a2.91,2.91,0,0,0-.31-.3,3,3,0,0,0-.61.41,3,3,0,0,0-.29,4.22c.1.11.21.21.31.3a3,3,0,0,0,.61-.41A3,3,0,0,0,104,461.34Z"/><path class="cls-12" d="M123.9,447.14a3.43,3.43,0,1,1-4.84-.33A3.44,3.44,0,0,1,123.9,447.14Z"/><path class="cls-13" d="M120.39,447c-.09-.11-.2-.2-.3-.3a3.1,3.1,0,0,0-.61.41,3,3,0,0,0-.29,4.23c.1.1.2.2.31.29a3,3,0,0,0,.89-4.63Z"/><path class="cls-31" d="M124.26,457.64l-.72,10.53L113,467.45a10.31,10.31,0,0,1,3.44-7.4C120.49,456.52,124.26,457.64,124.26,457.64Z"/><path class="cls-32" d="M124.26,457.64l-.72,10.53L113,467.45s5.89-1.49,7.56-2.94S124.26,457.64,124.26,457.64Z"/><path class="cls-14" d="M121,459c.54.62-1.33,1.16-3,2.6s-2.43,3.21-3,2.59.35-2.29,2-3.72S120.49,458.42,121,459Z"/><path class="cls-33" d="M139.67,447.85c1.25,1.43-.24,4.78-3.33,7.48s-6.6,3.71-7.86,2.28.24-4.79,3.33-7.48S138.42,446.41,139.67,447.85Z"/><path class="cls-33" d="M112.24,471.78c1.26,1.43-.23,4.78-3.32,7.48s-6.61,3.72-7.86,2.28.23-4.78,3.32-7.48S111,470.34,112.24,471.78Z"/><line class="cls-36" x1="192.19" y1="524.97" x2="206.83" y2="518.06"/><path class="cls-6" d="M213.15,508a74.31,74.31,0,0,0-7.07-31.77c-11.54,15.34-29.77,27.2-49.16,26A48.18,48.18,0,0,1,142,498.74l2,10.64-19.61,3.69-2.09,6.08a83.82,83.82,0,0,0,32.8,10.22C176.72,531.3,197.08,522,213.15,508Z"/><path class="cls-37" d="M206.08,476.23v0c-.26-.55-.53-1.09-.81-1.63l-.18-.33c-.45-.87-.92-1.71-1.41-2.55-.15-.24-.29-.49-.44-.74s-.46-.75-.69-1.12l-.84-1.27-.62-.9c-.39-.55-.79-1.09-1.19-1.62-.15-.18-.29-.37-.44-.56-.5-.63-1-1.26-1.54-1.86q-.58-.67-1.2-1.35l-.42-.45q-.4-.45-.84-.9c-.16-.18-.33-.36-.5-.53l-.8-.83-.58-.58-.77-.77-.64-.62-.77-.74-.66-.62-.36-.33-3.66,10.53-16.24,6.4-7.11,14-24.26-3.54L142,498.74a48.18,48.18,0,0,0,14.93,3.48C176.31,503.43,194.54,491.57,206.08,476.23Z"/><path class="cls-38" d="M208.92,532.73c.12-.27.25-.55.36-.83s.15-.35.22-.53c.32-.81.62-1.64.9-2.46,0-.14.1-.27.14-.4.3-.87.56-1.76.82-2.64,0-.1.06-.19.08-.28q.39-1.4.72-2.79c0-.06,0-.12,0-.18.22-1,.42-1.94.6-2.92,0,0,0-.06,0-.09.18-1,.34-2,.47-3,0,0,0,0,0-.07.14-1,.25-2,.35-3v0c.09-1,.16-2,.21-3.05v0c0-1,.08-2,.08-3,0,0,0-.06,0-.08-16.24,14.13-36.78,23.61-58.55,21.79A84,84,0,0,1,122.45,519l-4.6,13.16-15.57-6.9-.1,1.34A103.87,103.87,0,0,0,149,546.41C170.61,549.78,191.16,544.2,208.92,532.73Z"/><path class="cls-39" d="M102.82,536.26q.77,1,1.53,2c.29.38.58.77.88,1.14.81,1,1.63,2,2.45,3,19.24,22,62.67,31,87.59,9.31.75-.66,1.47-1.34,2.17-2,.32-.31.61-.64.91-1s.74-.77,1.09-1.16.77-.9,1.14-1.35h0c.24-.28.48-.56.7-.84.43-.55.84-1.1,1.24-1.66a.1.1,0,0,1,0,0l.4-.57c.45-.63.87-1.28,1.28-1.93l.09-.15.17-.25c.44-.72.86-1.45,1.26-2.18,0-.08.09-.15.13-.22.42-.79.83-1.59,1.22-2.39l0-.09c.4-.84.78-1.68,1.14-2.54h0c-17.59,11.32-38,16.77-59.52,13.29a104.26,104.26,0,0,1-46.59-20l-.57,8,.11.15C102.08,535.24,102.45,535.75,102.82,536.26Z"/><path class="cls-38" d="M60.08,415.11a25.56,25.56,0,0,0-2.28,2.8c-7.85,11.28-5.51,28.34,2.13,46a169.88,169.88,0,0,0,17.21,15.91q3.33,2.69,6.86,5.14l4.26.76L90,465.49l8.32-3.83c-1.44-1-2.87-2.07-4.26-3.14C79.46,447.2,66.73,432.61,60.08,415.11Z"/><path class="cls-6" d="M72,407.39a49.57,49.57,0,0,1,7.2-2.13c-7.88,1.73-14.53,4.9-19.15,9.85h0c6.65,17.5,19.38,32.09,34,43.41,1.39,1.07,2.82,2.12,4.26,3.14l9.8-4.51-8.93-19.49C87.78,430.08,79.4,419.07,72,407.39Z"/><path class="cls-37" d="M130.09,408.23q-3.1-.78-6.23-1.44l-.09,0c-3.16-.67-6.32-1.24-9.46-1.71h0q-3.14-.46-6.22-.79H108q-3.08-.33-6.09-.49h-.09q-3-.16-5.92-.17H95.8c-1.94,0-3.85.06-5.72.18H90c-1.88.11-3.7.29-5.49.53h0q-2.68.36-5.21.91h0a49.57,49.57,0,0,0-7.2,2.13c7.36,11.68,15.74,22.69,27.14,30.27L97.05,433l24.39-2.46,3.5-15.27,8.6-6.15c-1.09-.3-2.18-.58-3.28-.86Z"/><path class="cls-39" d="M77.14,479.78a169.88,169.88,0,0,1-17.21-15.91h0a139.52,139.52,0,0,0,7.05,14h0c1.61,2.82,3.34,5.61,5.15,8.36l-.62-3.5L84,484.92Q80.48,482.46,77.14,479.78Z"/><path class="cls-27" d="M974.3,1618.9s.24-1.1.75-2.69,1.26-3.68,2.12-5.73,1.83-4,2.63-5.51,1.41-2.42,1.41-2.42-.23,1.11-.74,2.7-1.27,3.68-2.13,5.72-1.83,4-2.63,5.52S974.3,1618.9,974.3,1618.9Z"/><path class="cls-27" d="M976.66,1624.72s.12-.31.36-.83.58-1.25,1-2.12c.88-1.73,2.15-4,3.51-6.19s2.81-4.35,4-5.92c.57-.79,1.1-1.41,1.44-1.87s.57-.69.57-.69-.12.31-.36.82-.58,1.26-1,2.12c-.88,1.74-2.15,4-3.51,6.2s-2.81,4.35-4,5.91c-.58.79-1.1,1.42-1.44,1.87S976.66,1624.72,976.66,1624.72Z"/><polyline class="cls-40" points="800.3 1729.48 820.05 1731.92 843.81 1716.83"/><polyline class="cls-40" points="852.5 1788 852.32 1768.1 870.01 1746.2"/><path class="cls-21" d="M946.4,1747.87c-25.4,22.65-72.85,23.14-98.46-5.56s-18.81-74.82,5.74-98.39c33.11-31.81,98.8-56.46,129.42-22.12C1012.89,1655.18,982.22,1715.92,946.4,1747.87Z"/><path class="cls-19" d="M985,1634.93c.19,6.38,1.2,14.35,1.53,21.44.68,14.66-.87,28.59-6.57,42.2a46.87,46.87,0,0,0-2.51,7c.24-.57-.09,3.19-.09,3.21.11-1,.25-.79.41.67,17.69-29.7,25.15-64,6.25-86.59A95.71,95.71,0,0,1,985,1634.93Z"/><path class="cls-30" d="M845.33,1673.42c1.15-10.48,7.47-23.86,12.49-33.3q-2.15,1.88-4.14,3.8c-24.55,23.57-31.34,69.68-5.74,98.39a65.86,65.86,0,0,0,33.55,19.83C861.59,1741.35,841.6,1707.29,845.33,1673.42Z"/><path class="cls-21" d="M1013.3,1748.71c-9,8-47.28,23.09-65.18-5.07-5.49-8.63-8.74-20.2.27-28.23s20.88-12.52,25.52-3.4C983.09,1730.05,1022.31,1740.68,1013.3,1748.71Z"/><path class="cls-11" d="M1013.56,1743.59c-20.87,11.82-45.83,6.55-67.67-3.92a43.63,43.63,0,0,0,2.23,4c17.9,28.16,56.18,13.1,65.18,5.07C1015.09,1747.12,1015,1745.42,1013.56,1743.59Z"/><path class="cls-21" d="M858.84,1575.54c-9,8-28.32,44.35-2.39,65.33,7.95,6.44,19.08,11,28.08,3s14.82-19.32,6.29-25C873.93,1607.68,867.84,1567.51,858.84,1575.54Z"/><path class="cls-11" d="M864,1575.86c-14.12,19.39-11.72,44.79-3.8,67.68a41.45,41.45,0,0,1-3.7-2.67c-25.93-21-6.62-57.3,2.39-65.33C860.62,1574,862.29,1574.27,864,1575.86Z"/><path class="cls-12" d="M936.41,1653.35a4.6,4.6,0,1,1,.38-6.5A4.6,4.6,0,0,1,936.41,1653.35Z"/><path class="cls-13" d="M936.54,1648.64a5,5,0,0,0,.39-.41,4,4,0,0,0-.56-.82,4,4,0,0,0-5.68-.32,5,5,0,0,0-.39.41,4,4,0,0,0,.56.82A4,4,0,0,0,936.54,1648.64Z"/><path class="cls-12" d="M955.9,1675.2a4.6,4.6,0,1,1,.37-6.5A4.6,4.6,0,0,1,955.9,1675.2Z"/><path class="cls-13" d="M956,1670.49a3.16,3.16,0,0,0,.4-.42,4.2,4.2,0,0,0-.56-.81,4,4,0,0,0-5.68-.32,5,5,0,0,0-.39.41,4,4,0,0,0,6.23,1.14Z"/><path class="cls-31" d="M941.8,1675.84l-14.16-.81.81-14.16a13.84,13.84,0,0,1,10,4.52C943.25,1670.76,941.8,1675.84,941.8,1675.84Z"/><path class="cls-32" d="M941.8,1675.84l-14.16-.81.81-14.16s2.09,7.89,4.07,10.11S941.8,1675.84,941.8,1675.84Z"/><path class="cls-14" d="M939.87,1671.53c-.83.74-1.58-1.77-3.53-4s-4.35-3.22-3.53-4,3.08.44,5,2.62S940.69,1670.79,939.87,1671.53Z"/><path class="cls-33" d="M955.19,1696.41c-1.91,1.7-6.44-.25-10.11-4.36s-5.09-8.83-3.18-10.53,6.44.24,10.1,4.35S957.1,1694.7,955.19,1696.41Z"/><path class="cls-33" d="M922.63,1659.9c-1.91,1.71-6.44-.24-10.1-4.36s-5.1-8.82-3.18-10.53,6.43.25,10.09,4.36S924.54,1658.2,922.63,1659.9Z"/><line class="cls-40" x1="852.32" y1="1768.1" x2="861.82" y2="1787.67"/><path class="cls-6" d="M875.43,1796a99.78,99.78,0,0,0,42.59-10c-20.78-15.29-37-39.6-35.64-65.67a64.46,64.46,0,0,1,4.46-20.12l-14.27,2.83-5.24-26.29-8.21-2.72a112.46,112.46,0,0,0-13.25,44.22C843.59,1747.4,856.41,1774.63,875.43,1796Z"/><path class="cls-37" d="M918,1786.05h0c.73-.36,1.46-.73,2.18-1.12.15-.07.29-.16.44-.24,1.16-.62,2.29-1.27,3.41-1.93l1-.6c.51-.31,1-.63,1.5-1s1.14-.76,1.7-1.15l1.2-.85c.73-.53,1.45-1.07,2.15-1.62l.75-.6c.84-.68,1.68-1.37,2.48-2.09.6-.53,1.2-1.08,1.8-1.63l.6-.57,1.2-1.14.7-.69,1.1-1.09.77-.78,1-1,.82-.86,1-1c.28-.29.56-.6.83-.9l.44-.48-14.2-4.77-8.84-21.73-18.87-9.34,4.4-32.65-20.74,4.1a64.46,64.46,0,0,0-4.46,20.12C881,1746.45,897.24,1770.76,918,1786.05Z"/><path class="cls-38" d="M842.14,1790.7l1.12.46.72.3c1.09.41,2.21.8,3.32,1.17l.54.18c1.18.38,2.36.73,3.56,1.06l.38.11c1.24.34,2.5.64,3.76.92l.24,0c1.3.29,2.61.54,3.92.77l.13,0c1.33.23,2.67.42,4,.59h.09c1.36.17,2.73.31,4.1.42h0c1.36.1,2.73.18,4.1.23h.06c1.34,0,2.69.07,4,.06h.12c-19.23-21.61-32.27-49.08-30.14-78.35a112.53,112.53,0,0,1,13.08-44.42l-17.76-6,9-21-1.79-.12a139.49,139.49,0,0,0-25.93,63.14C818.67,1739.47,826.47,1767,842.14,1790.7Z"/><path class="cls-39" d="M835.85,1648.19c-.91.69-1.81,1.38-2.68,2.07-.51.41-1,.8-1.51,1.21-1.37,1.11-2.69,2.22-3.94,3.34-29.35,26.17-40.8,84.66-11.22,117.82.89,1,1.81,2,2.76,2.89.42.41.86.8,1.29,1.21s1,1,1.58,1.45,1.22,1,1.83,1.5h0c.38.31.76.63,1.15.93.73.56,1.49,1.1,2.24,1.63l.07,0,.77.54c.85.58,1.73,1.14,2.61,1.69l.2.12.35.21c1,.58,1.95,1.14,2.95,1.68l.29.16c1.07.56,2.14,1.1,3.23,1.61l.12,0c1.13.53,2.27,1,3.43,1.5h0c-15.46-23.47-23.08-50.79-18.73-79.78a140.15,140.15,0,0,1,26.15-62.9l-10.71-.65-.2.15C837.2,1647.18,836.53,1647.68,835.85,1648.19Z"/><path class="cls-38" d="M998,1589a34.61,34.61,0,0,0-3.79-3c-15.27-10.38-38.15-7-61.73,3.53a230.3,230.3,0,0,0-21.12,23.37q-3.55,4.5-6.81,9.28l-1,5.74,27.16,2L936,1641c1.35-2,2.73-3.89,4.16-5.77C955.17,1615.49,974.59,1598.18,998,1589Z"/><path class="cls-6" d="M1008.55,1604.94a67.42,67.42,0,0,1,3,9.64c-2.45-10.56-6.81-19.45-13.52-25.59h0c-23.41,9.2-42.83,26.51-57.82,46.28-1.43,1.88-2.81,3.82-4.16,5.77l6.2,13.11,26-12.29C978.3,1626.43,993,1615,1008.55,1604.94Z"/><path class="cls-37" d="M1008.28,1683c.66-2.79,1.28-5.6,1.84-8.4l0-.13c.85-4.25,1.57-8.51,2.15-12.73v0c.39-2.81.71-5.61,1-8.38,0,0,0-.06,0-.09q.38-4.14.56-8.19v-.12q.18-4,.14-8s0-.09,0-.13c0-2.61-.13-5.17-.32-7.68v-.1c-.19-2.51-.45-5-.8-7.36,0,0,0-.05,0-.08-.35-2.39-.79-4.73-1.31-7v0a67.42,67.42,0,0,0-3-9.64c-15.59,10.07-30.25,21.49-40.28,36.91l6.23-2.94,3.66,32.75,20.57,4.48,8.39,11.46c.38-1.47.75-2.94,1.1-4.42Z"/><path class="cls-39" d="M911.36,1612.86a230.3,230.3,0,0,1,21.12-23.37h0a187.38,187.38,0,0,0-18.66,9.67h0c-3.76,2.21-7.49,4.58-11.16,7l4.69-.87-2.8,16.79Q907.81,1617.37,911.36,1612.86Z"/><path class="cls-27" d="M1070.9,1397.9s.14-.63.44-1.54.73-2.12,1.23-3.29,1-2.32,1.51-3.17.82-1.38.82-1.38-.14.63-.43,1.54-.73,2.12-1.23,3.29-1.06,2.32-1.52,3.17S1070.9,1397.9,1070.9,1397.9Z"/><path class="cls-27" d="M1072.27,1401.24s.07-.17.21-.47.33-.72.59-1.22c.51-1,1.25-2.29,2-3.56s1.62-2.49,2.29-3.39c.33-.46.63-.82.83-1.08l.33-.39s-.07.17-.21.47-.33.72-.59,1.22c-.51,1-1.25,2.29-2,3.55s-1.62,2.5-2.29,3.4c-.33.45-.63.81-.83,1.07Z"/><polyline class="cls-41" points="970.33 1461.4 981.74 1462.8 995.48 1454.14"/><polyline class="cls-41" points="1000.5 1495 1000.39 1483.57 1010.62 1471"/><path class="cls-42" d="M1054.78,1472c-14.69,13-42.11,13.29-56.91-3.19s-10.88-43,3.31-56.49c19.14-18.27,57.11-32.42,74.81-12.71C1093.21,1418.74,1075.48,1453.61,1054.78,1472Z"/><path class="cls-19" d="M1077.09,1407.1c.11,3.67.7,8.25.89,12.31.4,8.42-.5,16.42-3.8,24.24a27.09,27.09,0,0,0-1.45,4c.14-.33,0,1.83,0,1.84q.09-.87.24.39c10.22-17.06,14.54-36.77,3.61-49.73A56.19,56.19,0,0,1,1077.09,1407.1Z"/><path class="cls-30" d="M996.35,1429.21c.67-6,4.33-13.7,7.23-19.12-.83.72-1.63,1.44-2.4,2.18-14.19,13.53-18.11,40-3.31,56.49a38.07,38.07,0,0,0,19.38,11.39C1005.75,1468.21,994.2,1448.66,996.35,1429.21Z"/><path class="cls-42" d="M1093.45,1472.44c-5.2,4.61-27.33,13.26-37.68-2.91-3.17-5-5-11.6.16-16.21s12.07-7.19,14.75-2C1076,1461.73,1098.65,1467.83,1093.45,1472.44Z"/><path class="cls-11" d="M1093.6,1469.5c-12.06,6.79-26.49,3.76-39.12-2.25q.6,1.18,1.29,2.28c10.35,16.17,32.48,7.52,37.68,2.91A1.91,1.91,0,0,0,1093.6,1469.5Z"/><path class="cls-42" d="M1004.16,1373c-5.2,4.61-16.37,25.47-1.38,37.52,4.6,3.69,11,6.3,16.24,1.69s8.56-11.09,3.63-14.34C1012.89,1391.46,1009.37,1368.39,1004.16,1373Z"/><path class="cls-11" d="M1007.12,1373.19c-8.16,11.13-6.78,25.72-2.2,38.86-.74-.48-1.46-1-2.14-1.53-15-12-3.82-32.91,1.38-37.52A1.94,1.94,0,0,1,1007.12,1373.19Z"/><path class="cls-12" d="M1049,1417.69a2.68,2.68,0,0,1-3.76-.22,2.62,2.62,0,0,1,.21-3.73,2.68,2.68,0,0,1,3.76.21A2.65,2.65,0,0,1,1049,1417.69Z"/><path class="cls-13" d="M1049.08,1415a2.5,2.5,0,0,0,.22-.24,2,2,0,0,0-.32-.46,2.32,2.32,0,0,0-3.28-.19,1.73,1.73,0,0,0-.23.24,2.37,2.37,0,0,0,.32.46A2.35,2.35,0,0,0,1049.08,1415Z"/><path class="cls-12" d="M1060.27,1430.23a2.68,2.68,0,0,1-3.76-.21,2.64,2.64,0,0,1,.22-3.74,2.67,2.67,0,0,1,3.75.22A2.62,2.62,0,0,1,1060.27,1430.23Z"/><path class="cls-13" d="M1060.34,1427.52a2.5,2.5,0,0,0,.23-.23,2.44,2.44,0,0,0-.32-.47,2.35,2.35,0,0,0-3.29-.18,1.58,1.58,0,0,0-.22.23,2.06,2.06,0,0,0,.32.47A2.33,2.33,0,0,0,1060.34,1427.52Z"/><path class="cls-31" d="M1052.12,1430.6l-8.18-.47.46-8.13a8,8,0,0,1,5.78,2.6C1053,1427.68,1052.12,1430.6,1052.12,1430.6Z"/><path class="cls-32" d="M1052.12,1430.6l-8.18-.47.46-8.13s1.21,4.53,2.35,5.81S1052.12,1430.6,1052.12,1430.6Z"/><path class="cls-14" d="M1051,1428.12c-.48.42-.91-1-2-2.27s-2.51-1.85-2-2.27,1.78.25,2.91,1.51S1051.48,1427.7,1051,1428.12Z"/><path class="cls-33" d="M1059.86,1442.41c-1.11,1-3.72-.15-5.84-2.51s-3-5.07-1.84-6,3.72.14,5.84,2.5S1061,1441.43,1059.86,1442.41Z"/><path class="cls-33" d="M1041,1421.45c-1.11,1-3.72-.15-5.84-2.51s-3-5.06-1.84-6,3.72.14,5.84,2.5S1042.14,1420.47,1041,1421.45Z"/><line class="cls-41" x1="1000.4" y1="1483.57" x2="1005.89" y2="1494.81"/><path class="cls-21" d="M1013.75,1499.6a58,58,0,0,0,24.62-5.72c-12-8.78-21.38-22.74-20.6-37.71a36.72,36.72,0,0,1,2.58-11.55l-8.25,1.62-3-15.09-4.75-1.56a64.51,64.51,0,0,0-7.65,25.39C995.35,1471.69,1002.76,1487.32,1013.75,1499.6Z"/><path class="cls-37" d="M1038.37,1493.88h0c.43-.21.85-.43,1.26-.65l.26-.13c.67-.36,1.32-.73,2-1.12l.57-.34c.29-.18.58-.36.86-.55s.66-.43,1-.66l.7-.48,1.24-.93.44-.35c.48-.39,1-.78,1.43-1.2s.69-.62,1-.93l.34-.33c.24-.22.47-.43.7-.66l.4-.39c.22-.21.43-.41.64-.63l.45-.45.59-.6.47-.49.57-.6.48-.52.25-.28-8.21-2.74-5.11-12.48-10.91-5.36,2.55-18.75-12,2.36a36.72,36.72,0,0,0-2.58,11.55C1017,1471.14,1026.36,1485.1,1038.37,1493.88Z"/><path class="cls-38" d="M994.51,1496.55l.65.27.41.16c.64.24,1.28.46,1.92.68l.32.1c.68.22,1.36.42,2.05.61l.22.06c.72.2,1.45.37,2.18.53l.13,0c.76.17,1.51.31,2.27.44h.08c.77.13,1.54.25,2.31.34h.06c.78.1,1.58.18,2.37.24h0c.78.07,1.57.11,2.36.14h0c.78,0,1.55,0,2.33,0h.07c-11.11-12.41-18.65-28.18-17.42-45a64.36,64.36,0,0,1,7.56-25.51l-10.27-3.43,5.23-12.07-1-.07a79.76,79.76,0,0,0-15,36.26C980.94,1467.13,985.46,1482.94,994.51,1496.55Z"/><path class="cls-39" d="M990.88,1414.72c-.53.4-1,.79-1.56,1.19l-.87.69q-1.19,1-2.28,1.92c-17,15-23.58,48.61-6.48,67.65.52.58,1,1.13,1.59,1.66l.75.7.92.83c.34.3.7.58,1,.86h0l.66.53,1.3.94,0,0,.44.31c.5.33,1,.65,1.51,1l.12.07.2.13c.56.33,1.13.65,1.7,1l.18.09c.61.33,1.23.63,1.86.93l.07,0c.65.3,1.31.59,2,.86h0c-8.94-13.48-13.34-29.17-10.83-45.81a80.19,80.19,0,0,1,15.12-36.12l-6.19-.37-.12.08Z"/><path class="cls-38" d="M1084.6,1380.72a18.51,18.51,0,0,0-2.19-1.73c-8.82-6-22.05-4-35.68,2a133.09,133.09,0,0,0-12.21,13.41c-1.37,1.72-2.68,3.51-3.93,5.33l-.56,3.3,15.7,1.16,3,6.39c.78-1.12,1.58-2.23,2.4-3.31C1059.85,1396,1071.07,1386,1084.6,1380.72Z"/><path class="cls-21" d="M1090.7,1389.89a36.81,36.81,0,0,1,1.72,5.53c-1.41-6.06-3.93-11.16-7.81-14.69h0c-13.53,5.28-24.75,15.23-33.42,26.58-.82,1.08-1.62,2.19-2.4,3.31l3.58,7.53,15.06-7.06C1073.21,1402.22,1081.69,1395.67,1090.7,1389.89Z"/><path class="cls-37" d="M1090.54,1434.68c.39-1.6.75-3.21,1.07-4.82a.19.19,0,0,1,0-.07c.49-2.44.9-4.89,1.24-7.31v0c.23-1.62.41-3.22.56-4.81a.13.13,0,0,1,0-.06c.14-1.58.25-3.15.32-4.69v-.08c.07-1.54.1-3.06.08-4.56v-.07c0-1.5-.08-3-.19-4.41v-.06c-.11-1.45-.26-2.85-.46-4.23v0c-.2-1.38-.45-2.72-.75-4v0a36.81,36.81,0,0,0-1.72-5.53c-9,5.78-17.49,12.33-23.28,21.19l3.6-1.69,2.11,18.81,11.9,2.57,4.84,6.58c.22-.84.44-1.69.64-2.54Z"/><path class="cls-39" d="M1034.52,1394.43a133.09,133.09,0,0,1,12.21-13.41h0a108.19,108.19,0,0,0-10.78,5.56h0c-2.17,1.27-4.32,2.63-6.45,4l2.72-.5-1.62,9.64C1031.84,1397.94,1033.15,1396.15,1034.52,1394.43Z"/><path class="cls-27" d="M149.63,662.6s-.61-.23-1.48-.65-2-1-3.1-1.69-2.15-1.37-2.93-2-1.26-1-1.26-1,.61.22,1.48.64,2,1,3.09,1.69,2.16,1.38,2.94,2S149.63,662.6,149.63,662.6Z"/><path class="cls-27" d="M153.15,661.74l-.44-.27c-.27-.19-.67-.44-1.12-.77-.92-.64-2.11-1.55-3.25-2.5s-2.25-2-3.05-2.75c-.41-.39-.72-.74-.95-1s-.35-.39-.35-.39l.44.28c.27.18.67.43,1.13.76.92.65,2.1,1.56,3.25,2.51s2.25,2,3.05,2.75c.4.39.71.73.94,1Z"/><polyline class="cls-41" points="236.12 745.89 224.72 744.33 213.69 732.46"/><path class="cls-42" d="M221,689.2c10.83,16.32,7.13,43.31-11.44,55.47s-44.36,4.45-55.79-11.46c-15.41-21.47-24-60.84-1.79-75.38C173.62,643.7,205.78,666.19,221,689.2Z"/><path class="cls-19" d="M159.69,657.85c3.67.42,8.31.51,12.39.91,8.44.84,16.28,2.88,23.59,7.25a25.79,25.79,0,0,0,3.82,2c-.31-.19,1.82.31,1.83.32q-.85-.23.42-.18c-15.51-12.52-34.51-19.63-49-10.77A56,56,0,0,1,159.69,657.85Z"/><path class="cls-30" d="M170,740.41c-5.9-1.53-13-6.23-18-9.87.6.91,1.2,1.81,1.82,2.67,11.43,15.91,37.23,23.61,55.79,11.46a37.81,37.81,0,0,0,14.16-17.41C210.2,736.84,189.05,745.35,170,740.41Z"/><path class="cls-42" d="M227.14,651.26c3.84,5.78,9.24,28.78-8.37,36.61-5.39,2.39-12.29,3.28-16.12-2.51s-5.41-12.91.19-14.78C213.94,666.87,223.3,645.47,227.14,651.26Z"/><path class="cls-11" d="M224.23,650.68c5,12.84-.1,26.59-7.92,38.12a24,24,0,0,0,2.46-.93C236.38,680,231,657,227.14,651.26,226.38,650.11,225.4,650,224.23,650.68Z"/><path class="cls-42" d="M115.14,724.58c3.84,5.78,23,19.78,37.17,6.8,4.34-4,7.88-9.93,4-15.71s-9.81-10-13.75-5.65C134.79,718.68,111.3,718.79,115.14,724.58Z"/><path class="cls-11" d="M115.75,721.7c9.91,9.64,24.64,10.39,38.39,7.8-.58.66-1.2,1.29-1.83,1.88-14.18,13-33.33-1-37.17-6.8C114.38,723.43,114.7,722.51,115.75,721.7Z"/><path class="cls-12" d="M166.15,687a2.63,2.63,0,0,1-.76,3.66,2.65,2.65,0,1,1,.76-3.66Z"/><path class="cls-13" d="M163.47,686.53a1.71,1.71,0,0,0-.21-.26,2.4,2.4,0,0,0-.51.25,2.3,2.3,0,0,0-.66,3.2,2.56,2.56,0,0,0,.2.26,2.26,2.26,0,0,0,.52-.25A2.31,2.31,0,0,0,163.47,686.53Z"/><path class="cls-12" d="M180.28,677.74a2.63,2.63,0,0,1-.75,3.66,2.67,2.67,0,0,1-3.69-.75,2.63,2.63,0,0,1,.76-3.66A2.66,2.66,0,0,1,180.28,677.74Z"/><path class="cls-13" d="M177.6,677.28a1.71,1.71,0,0,0-.21-.26,2.4,2.4,0,0,0-.51.25,2.31,2.31,0,0,0-.66,3.2,2.56,2.56,0,0,0,.2.26,2.76,2.76,0,0,0,.52-.25A2.31,2.31,0,0,0,177.6,677.28Z"/><path class="cls-31" d="M179.46,685.8l-1.65,8-8-1.64a8,8,0,0,1,3.43-5.3C176.68,684.56,179.46,685.8,179.46,685.8Z"/><path class="cls-32" d="M179.46,685.8l-1.65,8-8-1.64s4.69-.53,6.13-1.47S179.46,685.8,179.46,685.8Z"/><path class="cls-14" d="M176.84,686.54c.35.53-1.15.75-2.56,1.68s-2.2,2.2-2.56,1.67.51-1.71,1.92-2.63S176.49,686,176.84,686.54Z"/><path class="cls-33" d="M192.35,679.91c.81,1.23-.68,3.64-3.34,5.38s-5.48,2.16-6.29.93.68-3.63,3.34-5.38S191.54,678.69,192.35,679.91Z"/><path class="cls-33" d="M168.74,695.37c.82,1.23-.68,3.63-3.34,5.38s-5.47,2.15-6.29.92.68-3.63,3.34-5.37S167.93,694.14,168.74,695.37Z"/><line class="cls-41" x1="224.72" y1="744.33" x2="236.71" y2="740.56"/><path class="cls-21" d="M242.62,733.53a56.89,56.89,0,0,0-2.12-25C230,719,214.75,726.21,200,723.28a37.64,37.64,0,0,1-11.13-4.21l.42,8.34-15.47.78-2.25,4.44a65.32,65.32,0,0,0,24.18,11.22C212.15,747.57,228.8,742.55,242.62,733.53Z"/><path class="cls-37" d="M240.5,708.5h0c-.15-.45-.3-.89-.46-1.33l-.1-.27c-.26-.71-.53-1.41-.82-2.1-.09-.2-.17-.41-.26-.61l-.42-.93-.51-1.06-.39-.75c-.24-.46-.49-.91-.74-1.36l-.28-.48c-.32-.53-.65-1.06-1-1.58l-.78-1.16-.28-.38-.55-.78-.34-.46-.52-.71-.39-.51-.51-.66-.43-.54-.51-.65-.45-.54-.24-.29L226.61,699l-13.17,3.21-6.92,9.94-18.31-5.22.61,12.13A37.64,37.64,0,0,0,200,723.28C214.75,726.21,230,719,240.5,708.5Z"/><path class="cls-38" d="M236.79,752l.36-.6c.07-.13.16-.25.23-.38.33-.59.64-1.19,1-1.79l.15-.29c.32-.64.61-1.29.9-1.94l.1-.2c.29-.68.57-1.37.84-2.06a.5.5,0,0,1,.05-.13c.27-.72.53-1.44.77-2.17a.19.19,0,0,1,0-.07c.24-.74.47-1.48.67-2.23l0,0c.21-.76.4-1.53.58-2.29v0q.26-1.15.48-2.31v0c.15-.76.27-1.53.38-2.29,0,0,0,0,0-.07-14,9.12-30.78,14.24-47.34,10.59a65.5,65.5,0,0,1-24.31-11.13l-4.91,9.59-11.26-6.89-.22,1a80.85,80.85,0,0,0,33.94,20C205.52,761.06,221.92,758.92,236.79,752Z"/><path class="cls-39" d="M154.76,743.69c.32.58.64,1.14,1,1.7.19.32.37.65.56,1,.52.87,1.05,1.71,1.58,2.52,12.51,18.85,45,30.23,66.45,16.19.64-.42,1.27-.87,1.88-1.33.27-.2.53-.42.8-.63s.65-.51,1-.78.68-.6,1-.91h0l.63-.57c.38-.37.75-.76,1.12-1.14l0,0c.13-.13.26-.25.38-.39.4-.43.8-.89,1.18-1.34l.09-.1.15-.18c.41-.5.81-1,1.2-1.54l.12-.15c.41-.56.81-1.13,1.19-1.7l0-.07c.4-.59.78-1.2,1.15-1.82h0c-14.72,6.83-31,8.88-47.2,4a81.16,81.16,0,0,1-33.78-20.09l-1.27,6,.07.12Z"/><path class="cls-38" d="M134.51,646.64a18.38,18.38,0,0,0-2,1.9c-7.22,7.81-7.2,21.09-3.16,35.36a132.08,132.08,0,0,0,11.59,14c1.52,1.6,3.1,3.14,4.74,4.64l3.2,1,3.44-15.26,6.8-2.06c-1-.93-2-1.88-2.95-2.85C146.08,673.18,137.8,660.7,134.51,646.64Z"/><path class="cls-21" d="M144.52,642a38.33,38.33,0,0,1,5.76-.88c-6.25.51-11.69,2.24-15.77,5.54h0c3.29,14.06,11.57,26.54,21.61,36.7,1,1,1.95,1.92,2.95,2.85l8-2.43-4.84-15.83C154.27,661,149,651.67,144.52,642Z"/><path class="cls-37" d="M189.11,648.63q-2.31-.92-4.64-1.75l-.07,0q-3.56-1.26-7.1-2.29h0c-1.58-.45-3.15-.87-4.71-1.25h-.06c-1.55-.38-3.1-.71-4.63-1h-.07c-1.53-.29-3-.54-4.54-.74h-.07c-1.49-.2-3-.36-4.42-.46h-.06c-1.45-.11-2.88-.16-4.27-.17h0c-1.4,0-2.77.05-4.1.15h0a38.33,38.33,0,0,0-5.76.88c4.45,9.7,9.75,19,17.73,26l-1.16-3.78,19,.65,4.28-11.31,7.26-3.81c-.81-.34-1.62-.68-2.43-1Z"/><path class="cls-39" d="M140.89,697.85a132.08,132.08,0,0,1-11.59-14h0a109.71,109.71,0,0,0,4,11.4h0c1,2.32,2,4.64,3.1,6.93l-.11-2.74,9.37,3C144,701,142.41,699.45,140.89,697.85Z"/><path class="cls-21" d="M1042.51,238.44c-16.13,11.08-45.75,9.67-58.26-8.55s-3.19-46.38,12.94-57.45c20.8-14.28,68.15-25.05,80.66-6.83S1063.91,223.75,1042.51,238.44Z"/><path class="cls-10" d="M1043.89,178.7c-11.22,6.87-21.55,16.81-23.84,29.54s4.17,25.8,13.46,34.65a37.21,37.21,0,0,0,9-4.45c20.62-14.16,45.93-51.72,36.55-70.74C1066.55,167.73,1054.42,172.24,1043.89,178.7Z"/><path class="cls-10" d="M1042.61,217c.27,1.06.55,2.12.9,3.16.42,1.22.85,2.43,1.37,3.61.24.55.49,1.11.75,1.66l.19.35a48.94,48.94,0,0,0,4.3,6.55l0,0c15.54-14.1,31-38.06,30.91-55.32-10.24,2.1-20.25,5.2-28.21,12.08a41.39,41.39,0,0,0-7,8c.36-.49-1.17,2-1.38,2.49-.47,1-.91,2-1.29,3,0,.19-.63,2.31-.71,2.71a35.64,35.64,0,0,0-.54,3.73c0,.08,0,.13,0,.2v.47c0,.51,0,1,0,1.51,0,1,.1,2,.23,3C1042.23,214.72,1042.79,217.54,1042.61,217Z"/><path class="cls-11" d="M1002.16,204.92c3.75-18,16.85-32.69,32.43-41.82a113.76,113.76,0,0,1,14-7c-18,.86-39.25,8-51.41,16.35-16.13,11.07-25.45,39.22-12.94,57.45,6.23,9.06,16.69,14,27.61,15.24C1003.82,233.38,999.2,219.14,1002.16,204.92Z"/><path class="cls-11" d="M991.22,199.4a71.18,71.18,0,0,1,24-36,86.9,86.9,0,0,0-18,9c-16.13,11.07-25.45,39.22-12.94,57.45A33.22,33.22,0,0,0,995.45,240C989.3,227.4,987.25,213.44,991.22,199.4Z"/><path class="cls-11" d="M861,961.89a51,51,0,0,1,3.59,14.28c0-2.61,0-5.12-.19-7.23-.58-7.05-3.94-15.35-7.23-15.09a3,3,0,0,0-2.07,1.45C857.26,955.87,859.32,958,861,961.89Z"/><path class="cls-21" d="M111.42,1398.29c6.83,12.68,3,34.38-11.8,42.27s-35.11-1-41.94-13.7c-8.81-16.34-12.53-52,2.31-59.87S102.36,1381.48,111.42,1398.29Z"/><path class="cls-10" d="M66.68,1392.94c4.13,8.76,10.64,17.08,20,19.7s19.76-1.2,27.26-7.4a26.73,26.73,0,0,0-2.51-7c-8.73-16.2-34.6-37.55-49.75-32C60.54,1375.47,62.81,1384.73,66.68,1392.94Z"/><path class="cls-10" d="M95.29,1396.66c.82-.12,1.64-.25,2.46-.43s1.9-.45,2.83-.74l1.32-.44.28-.11a38,38,0,0,0,5.32-2.7l0,0c-9.16-12.46-25.72-25.6-38.69-26.77.63,7.69,2,15.29,6.47,21.65a30.19,30.19,0,0,0,5.38,5.75c-.34-.31,1.43,1,1.74,1.19.7.42,1.41.81,2.15,1.17.14,0,1.68.63,2,.72a26.18,26.18,0,0,0,2.75.66l.15,0,.36,0c.38,0,.75.07,1.13.09.76,0,1.52.07,2.28,0C93.58,1396.78,95.75,1396.57,95.29,1396.66Z"/><path class="cls-11" d="M82.52,1425.56c-13.19-4.06-23-14.77-28.41-26.9a82.65,82.65,0,0,1-4-10.82c-1,13.33,2.39,29.47,7.54,39,6.83,12.68,27.1,21.59,41.94,13.7,7.39-3.93,12-11.27,14-19.22C104.05,1426.41,92.93,1428.77,82.52,1425.56Z"/><path class="cls-11" d="M77.37,1433.21A51.76,51.76,0,0,1,52.55,1413a62,62,0,0,0,5.13,13.89c6.83,12.68,27.1,21.59,41.94,13.7a25.78,25.78,0,0,0,8.6-7.52C98.22,1436.66,87.55,1437.15,77.37,1433.21Z"/><path class="cls-6" d="M1079.79,347.27c-8.74,9.26-27.77,12.43-38.22,2.56s-8.39-29.05.34-38.3c11.27-11.94,39.9-25.28,50.36-15.41S1091.38,335,1079.79,347.27Z"/><path class="cls-10" d="M1072.47,309.1c-6.19,5.91-11.4,13.64-11.11,22s6.19,15.84,13.31,20.19a24.34,24.34,0,0,0,5.12-4.07c11.16-11.83,22.1-39.18,13.53-50C1085.37,299,1078.27,303.55,1072.47,309.1Z"/><path class="cls-10" d="M1076.9,333.59c.31.64.64,1.28,1,1.89s.87,1.43,1.36,2.11c.23.32.46.64.7,1l.17.2a32.28,32.28,0,0,0,3.64,3.57l0,0c7.94-11.1,14.5-28.47,12.06-39.42-6.22,2.73-12.16,6.08-16.28,11.55a27.24,27.24,0,0,0-3.36,6.07c.16-.37-.46,1.46-.54,1.77-.16.69-.3,1.39-.4,2.1,0,.12-.08,1.55-.08,1.82a22.23,22.23,0,0,0,.17,2.44c0,.05,0,.09,0,.13l.07.3c.06.32.14.64.22,1,.17.63.34,1.26.56,1.88C1076.35,332.23,1077.09,334,1076.9,333.59Z"/><path class="cls-2" d="M1049.53,331.49c-.09-12,6.22-23.09,14.88-31a74.17,74.17,0,0,1,7.95-6.37c-11.35,3-23.86,10.47-30.45,17.45-8.73,9.25-10.8,28.43-.34,38.3,5.2,4.91,12.52,6.59,19.65,5.9C1054.49,349.37,1049.6,340.94,1049.53,331.49Z"/><path class="cls-6" d="M1078.56,1049.74c-8.65,9.1-27.48,12.22-37.84,2.52s-8.3-28.57.35-37.67c11.15-11.74,39.49-24.86,49.84-15.15S1090,1037.67,1078.56,1049.74Z"/><path class="cls-10" d="M1071.31,1012.2c-6.13,5.81-11.28,13.42-11,21.69s6.13,15.57,13.18,19.85a24.27,24.27,0,0,0,5.06-4c11-11.63,21.88-38.53,13.4-49.16C1084.08,1002.28,1077.06,1006.75,1071.31,1012.2Z"/><path class="cls-10" d="M1063.82,971.39c.31.63.64,1.25,1,1.85a23.7,23.7,0,0,0,1.35,2.07c.22.32.46.63.69.94l.17.2a32.25,32.25,0,0,0,3.6,3.51l0,0c7.87-10.91,14.36-28,11.94-38.76-6.16,2.69-12,6-16.11,11.36a26.44,26.44,0,0,0-3.33,6c.16-.36-.46,1.43-.53,1.74-.16.68-.3,1.37-.4,2.06,0,.12-.08,1.53-.08,1.79a21.52,21.52,0,0,0,.17,2.41c0,.05,0,.08,0,.13s0,.16.07.29c.07.32.14.63.22.94.17.62.34,1.24.56,1.85C1063.28,970.05,1064,971.74,1063.82,971.39Z"/><path class="cls-2" d="M1048.6,1034.23c-.09-11.79,6.17-22.72,14.74-30.53a73.58,73.58,0,0,1,7.87-6.27c-11.24,3-23.63,10.3-30.14,17.16-8.65,9.1-10.7,28-.35,37.67,5.15,4.82,12.4,6.48,19.46,5.8C1053.52,1051.8,1048.68,1043.52,1048.6,1034.23Z"/><path class="cls-6" d="M667.57,1772.72c-17.81,16.41-54.77,19.7-73.82-.7s-13-56.76,4.82-73.17c23-21.16,79.51-42.49,98.56-22.09S691.2,1751,667.57,1772.72Z"/><path class="cls-10" d="M657.62,1698.67c-12.55,10.4-23.4,24.42-23.76,40.54s10.2,31.17,23.44,40.53a45.76,45.76,0,0,0,10.27-7c22.77-21,46.78-71.67,31.46-93.59C683.54,1681.28,669.4,1688.92,657.62,1698.67Z"/><path class="cls-10" d="M663.5,1746.15c.54,1.27,1.1,2.53,1.73,3.75.75,1.44,1.53,2.86,2.4,4.23.4.64.82,1.29,1.25,1.92l.3.41a64.07,64.07,0,0,0,6.61,7.36l.05,0c16.5-20.06,31-52.28,27.49-73.58-12.27,4.32-24.06,9.84-32.58,19.7a50.6,50.6,0,0,0-7.12,11.1c.35-.67-1,2.73-1.23,3.31-.39,1.3-.73,2.62-1,3.95,0,.24-.33,3-.35,3.47a43.36,43.36,0,0,0,.06,4.7c0,.1,0,.17,0,.25s.06.33.1.59c.09.62.2,1.24.32,1.85.26,1.24.52,2.47.87,3.68C662.59,1743.47,663.84,1746.86,663.5,1746.15Z"/><path class="cls-2" d="M611.06,1738.13c1.12-22.91,14.48-43.23,32-57.15a138.16,138.16,0,0,1,16-11c-22.17,4.11-47.06,16.53-60.48,28.9-17.81,16.41-23.87,52.77-4.82,73.17,9.48,10.15,23.39,14.43,37.17,14.15C618.67,1773,610.17,1756.2,611.06,1738.13Z"/><path class="cls-21" d="M175.82,205.62c17.13,20.59,18.94,61.13-4.32,80.48s-62.81,10.18-79.93-10.41C69.49,249.14,48.85,186,72.12,166.62S153.1,178.31,175.82,205.62Z"/><path class="cls-10" d="M94,210.91c10.78,14.43,25.62,27.26,43.26,28.78s34.65-8.93,45.54-22.71a51.58,51.58,0,0,0-7.2-11.71c-21.89-26.31-76.27-56.08-101-40.91C76.17,181.41,83.86,197.38,94,210.91Z"/><path class="cls-10" d="M148.3,213.68c1.41-.49,2.82-1,4.19-1.62,1.61-.72,3.21-1.46,4.75-2.31.73-.4,1.45-.81,2.16-1.24l.47-.3a67.53,67.53,0,0,0,8.38-6.69l.05-.06C147.13,182.06,112.52,164,89,166.3c4.14,13.69,9.63,26.94,20,36.93a57.09,57.09,0,0,0,11.82,8.55c-.71-.43,2.94,1.34,3.57,1.57,1.4.52,2.83,1,4.28,1.37.26,0,3.23.57,3.79.63a46.32,46.32,0,0,0,5.14.26h.28l.65-.07c.68-.06,1.36-.13,2-.22,1.37-.19,2.73-.39,4.08-.69C145.31,214.49,149.09,213.37,148.3,213.68Z"/><path class="cls-43" d="M136,265.29c-25-2.84-46.67-18.85-61.07-38.94a155.78,155.78,0,0,1-11.32-18.21c3.45,24.47,15.85,52.49,28.76,68,17.12,20.58,56.65,29.76,79.92,10.41,11.58-9.63,16.94-24.51,17.3-39.56C174.63,259.44,155.8,267.53,136,265.29Z"/><path class="cls-44" d="M129.07,280.44c-20.41-3.79-37.84-13.71-52.08-28.12a118.4,118.4,0,0,0,14.58,23.37c17.12,20.59,56.66,29.76,79.93,10.41a45.17,45.17,0,0,0,12.31-16.53C167.47,279.54,148.7,284.08,129.07,280.44Z"/><text class="cls-45" transform="translate(240.92 492.74)"><tspan class="cls-46">T<tspan class="cls-47" x="111.81" y="0">r</tspan><tspan class="cls-48" x="189.95" y="0">ac</tspan><tspan class="cls-49" x="393.63" y="0">k</tspan><tspan class="cls-50" x="486.22" y="0">er</tspan></tspan><tspan x="0" y="219.6" xml:space="preserve">    </tspan></text><text class="cls-51" transform="translate(243.19 323.93)">Animal</text><path class="cls-6" d="M354.83,1687.21c8.85,17.35,3.64,46.4-16,56.4s-46.18-2.84-55-20.19c-11.41-22.38-15.92-70.51,3.69-80.5S343.1,1664.19,354.83,1687.21Z"/><path class="cls-2" d="M317.24,1723.55C300,1718,287,1703.67,279.65,1687.47a111.52,111.52,0,0,1-5.42-14.45c-1,17.75,3.78,39.27,10.69,52,9.18,16.94,35.78,29,54.92,18.62,9.53-5.16,15.41-14.9,17.79-25.47C345.29,1724.87,330.86,1727.92,317.24,1723.55Z"/><path class="cls-11" d="M310.71,1733.69a70,70,0,0,1-32.77-27.18,85,85,0,0,0,7,18.55c9.18,16.94,35.78,29,54.92,18.62a32.57,32.57,0,0,0,11-9.93C337.93,1738.48,324,1739,310.71,1733.69Z"/><path class="cls-14" d="M296.31,1678c5.31,11.82,13.72,23.15,25.87,27s25.73-.84,35.53-8.81a36.88,36.88,0,0,0-3.22-9.35c-11.24-21.91-44.76-51.33-64.52-44.55C288.43,1654.47,291.32,1666.89,296.31,1678Z"/></g></g></svg>